  0
SECTION
  2
HEADER
  9
$ACADVER
  1
AC1032
  9
$ACADMAINTVER
 90
      197
  9
$DWGCODEPAGE
  3
ANSI_1252
  9
$LASTSAVEDBY
  1
Hieu
  9
$REQUIREDVERSIONS
160
                 0
  9
$INSBASE
 10
0.0
 20
0.0
 30
0.0
  9
$EXTMIN
 10
0.0
 20
0.0
 30
0.0
  9
$EXTMAX
 10
799.9999999999999
 20
599.9999999999999
 30
0.0
  9
$LIMMIN
 10
0.0
 20
0.0
  9
$LIMMAX
 10
420.0
 20
297.0
  9
$ORTHOMODE
 70
     0
  9
$REGENMODE
 70
     1
  9
$FILLMODE
 70
     1
  9
$QTEXTMODE
 70
     0
  9
$MIRRTEXT
 70
     1
  9
$LTSCALE
 40
1.0
  9
$ATTMODE
 70
     1
  9
$TEXTSIZE
 40
3.5
  9
$TRACEWID
 40
1.0
  9
$TEXTSTYLE
  7
Standard
  9
$CLAYER
  8
0
  9
$CELTYPE
  6
ByLayer
  9
$CECOLOR
 62
   256
  9
$CELTSCALE
 40
1.0
  9
$DISPSILH
 70
     0
  9
$DIMSCALE
 40
1.0
  9
$DIMASZ
 40
3.301999999999998
  9
$DIMEXO
 40
1.0
  9
$DIMDLI
 40
3.75
  9
$DIMRND
 40
0.0
  9
$DIMDLE
 40
0.0
  9
$DIMEXE
 40
1.0
  9
$DIMTP
 40
0.0
  9
$DIMTM
 40
0.0
  9
$DIMTXT
 40
3.5
  9
$DIMCEN
 40
2.5
  9
$DIMTSZ
 40
0.0
  9
$DIMTOL
 70
     0
  9
$DIMLIM
 70
     0
  9
$DIMTIH
 70
     1
  9
$DIMTOH
 70
     1
  9
$DIMSE1
 70
     0
  9
$DIMSE2
 70
     0
  9
$DIMTAD
 70
     1
  9
$DIMZIN
 70
     1
  9
$DIMBLK
  1

  9
$DIMASO
 70
     1
  9
$DIMSHO
 70
     1
  9
$DIMPOST
  1

  9
$DIMAPOST
  1

  9
$DIMALT
 70
     0
  9
$DIMALTD
 70
     3
  9
$DIMALTF
 40
0.0393700787401575
  9
$DIMLFAC
 40
0.5
  9
$DIMTOFL
 70
     1
  9
$DIMTVP
 40
0.0
  9
$DIMTIX
 70
     0
  9
$DIMSOXD
 70
     0
  9
$DIMSAH
 70
     0
  9
$DIMBLK1
  1

  9
$DIMBLK2
  1

  9
$DIMSTYLE
  2
ISO-25
  9
$DIMCLRD
 70
     0
  9
$DIMCLRE
 70
     0
  9
$DIMCLRT
 70
     0
  9
$DIMTFAC
 40
1.0
  9
$DIMGAP
 40
1.524
  9
$DIMJUST
 70
     0
  9
$DIMSD1
 70
     0
  9
$DIMSD2
 70
     0
  9
$DIMTOLJ
 70
     0
  9
$DIMTZIN
 70
     1
  9
$DIMALTZ
 70
     0
  9
$DIMALTTZ
 70
     0
  9
$DIMUPT
 70
     0
  9
$DIMDEC
 70
     2
  9
$DIMTDEC
 70
     2
  9
$DIMALTU
 70
     2
  9
$DIMALTTD
 70
     3
  9
$DIMTXSTY
  7
Standard
  9
$DIMAUNIT
 70
     0
  9
$DIMADEC
 70
     2
  9
$DIMALTRND
 40
0.0
  9
$DIMAZIN
 70
     0
  9
$DIMDSEP
 70
    44
  9
$DIMATFIT
 70
     3
  9
$DIMFRAC
 70
     0
  9
$DIMLDRBLK
  1

  9
$DIMLUNIT
 70
     2
  9
$DIMLWD
 70
    -2
  9
$DIMLWE
 70
    -2
  9
$DIMTMOVE
 70
     0
  9
$DIMFXL
 40
1.0
  9
$DIMFXLON
 70
     0
  9
$DIMJOGANG
 40
0.7853981633974483
  9
$DIMTFILL
 70
     0
  9
$DIMTFILLCLR
 70
     0
  9
$DIMARCSYM
 70
     0
  9
$DIMLTYPE
  6

  9
$DIMLTEX1
  6

  9
$DIMLTEX2
  6

  9
$DIMTXTDIRECTION
 70
     0
  9
$LUNITS
 70
     2
  9
$LUPREC
 70
     2
  9
$SKETCHINC
 40
1.0
  9
$FILLETRAD
 40
10.0
  9
$AUNITS
 70
     0
  9
$AUPREC
 70
     2
  9
$MENU
  1
.
  9
$ELEVATION
 40
0.0
  9
$PELEVATION
 40
0.0
  9
$THICKNESS
 40
0.0
  9
$LIMCHECK
 70
     0
  9
$CHAMFERA
 40
0.0
  9
$CHAMFERB
 40
0.0
  9
$CHAMFERC
 40
0.0
  9
$CHAMFERD
 40
0.0
  9
$SKPOLY
 70
     0
  9
$TDCREATE
 40
2460455.426400463
  9
$TDUCREATE
 40
2460455.134735150
  9
$TDUPDATE
 40
2460455.470717593
  9
$TDUUPDATE
 40
2460455.179050926
  9
$TDINDWG
 40
0.0423032523
  9
$TDUSRTIMER
 40
0.0423032523
  9
$USRTIMER
 70
     1
  9
$ANGBASE
 50
0.0
  9
$ANGDIR
 70
     0
  9
$PDMODE
 70
     0
  9
$PDSIZE
 40
-1.0
  9
$PLINEWID
 40
0.0
  9
$SPLFRAME
 70
     0
  9
$SPLINETYPE
 70
     6
  9
$SPLINESEGS
 70
     8
  9
$HANDSEED
  5
61A
  9
$SURFTAB1
 70
     6
  9
$SURFTAB2
 70
     6
  9
$SURFTYPE
 70
     6
  9
$SURFU
 70
     6
  9
$SURFV
 70
     6
  9
$UCSBASE
  2

  9
$UCSNAME
  2

  9
$UCSORG
 10
0.0
 20
0.0
 30
0.0
  9
$UCSXDIR
 10
1.0
 20
0.0
 30
0.0
  9
$UCSYDIR
 10
0.0
 20
1.0
 30
0.0
  9
$UCSORTHOREF
  2

  9
$UCSORTHOVIEW
 70
     0
  9
$UCSORGTOP
 10
0.0
 20
0.0
 30
0.0
  9
$UCSORGBOTTOM
 10
0.0
 20
0.0
 30
0.0
  9
$UCSORGLEFT
 10
0.0
 20
0.0
 30
0.0
  9
$UCSORGRIGHT
 10
0.0
 20
0.0
 30
0.0
  9
$UCSORGFRONT
 10
0.0
 20
0.0
 30
0.0
  9
$UCSORGBACK
 10
0.0
 20
0.0
 30
0.0
  9
$PUCSBASE
  2

  9
$PUCSNAME
  2

  9
$PUCSORG
 10
0.0
 20
0.0
 30
0.0
  9
$PUCSXDIR
 10
1.0
 20
0.0
 30
0.0
  9
$PUCSYDIR
 10
0.0
 20
1.0
 30
0.0
  9
$PUCSORTHOREF
  2

  9
$PUCSORTHOVIEW
 70
     0
  9
$PUCSORGTOP
 10
0.0
 20
0.0
 30
0.0
  9
$PUCSORGBOTTOM
 10
0.0
 20
0.0
 30
0.0
  9
$PUCSORGLEFT
 10
0.0
 20
0.0
 30
0.0
  9
$PUCSORGRIGHT
 10
0.0
 20
0.0
 30
0.0
  9
$PUCSORGFRONT
 10
0.0
 20
0.0
 30
0.0
  9
$PUCSORGBACK
 10
0.0
 20
0.0
 30
0.0
  9
$USERI1
 70
     0
  9
$USERI2
 70
     0
  9
$USERI3
 70
     0
  9
$USERI4
 70
     0
  9
$USERI5
 70
     0
  9
$USERR1
 40
0.0
  9
$USERR2
 40
0.0
  9
$USERR3
 40
0.0
  9
$USERR4
 40
0.0
  9
$USERR5
 40
0.0
  9
$WORLDVIEW
 70
     1
  9
$SHADEDGE
 70
     3
  9
$SHADEDIF
 70
    70
  9
$TILEMODE
 70
     1
  9
$MAXACTVP
 70
    64
  9
$PINSBASE
 10
0.0
 20
0.0
 30
0.0
  9
$PLIMCHECK
 70
     0
  9
$PEXTMIN
 10
1.000000000000000E+20
 20
1.000000000000000E+20
 30
1.000000000000000E+20
  9
$PEXTMAX
 10
-1.000000000000000E+20
 20
-1.000000000000000E+20
 30
-1.000000000000000E+20
  9
$PLIMMIN
 10
0.0
 20
0.0
  9
$PLIMMAX
 10
420.0
 20
297.0
  9
$UNITMODE
 70
     0
  9
$VISRETAIN
 70
     1
  9
$PLINEGEN
 70
     0
  9
$PSLTSCALE
 70
     1
  9
$TREEDEPTH
 70
  3020
  9
$CMLSTYLE
  2
Standard
  9
$CMLJUST
 70
     0
  9
$CMLSCALE
 40
20.0
  9
$PROXYGRAPHICS
 70
     1
  9
$MEASUREMENT
 70
     1
  9
$CELWEIGHT
370
    -1
  9
$ENDCAPS
280
     0
  9
$JOINSTYLE
280
     0
  9
$LWDISPLAY
290
     1
  9
$INSUNITS
 70
     4
  9
$HYPERLINKBASE
  1

  9
$STYLESHEET
  1

  9
$XEDIT
290
     1
  9
$CEPSNTYPE
380
     0
  9
$PSTYLEMODE
290
     1
  9
$FINGERPRINTGUID
  2
{53425FBD-5955-4569-B2E1-3F4209A4D719}
  9
$VERSIONGUID
  2
{DE385E86-E07D-D44D-A9A1-F74B947E95E9}
  9
$EXTNAMES
290
     1
  9
$PSVPSCALE
 40
0.0
  9
$OLESTARTUP
290
     0
  9
$SORTENTS
280
   127
  9
$INDEXCTL
280
     0
  9
$HIDETEXT
280
     0
  9
$XCLIPFRAME
280
     2
  9
$HALOGAP
280
     0
  9
$OBSCOLOR
 70
   257
  9
$OBSLTYPE
280
     0
  9
$INTERSECTIONDISPLAY
280
     0
  9
$INTERSECTIONCOLOR
 70
   257
  9
$DIMASSOC
280
     1
  9
$PROJECTNAME
  1

  9
$CAMERADISPLAY
290
     0
  9
$LENSLENGTH
 40
50.0
  9
$CAMERAHEIGHT
 40
0.0
  9
$STEPSPERSEC
 40
2.0
  9
$STEPSIZE
 40
6.0
  9
$3DDWFPREC
 40
2.0
  9
$PSOLWIDTH
 40
0.25
  9
$PSOLHEIGHT
 40
4.0
  9
$LOFTANG1
 40
1.570796326794896
  9
$LOFTANG2
 40
1.570796326794896
  9
$LOFTMAG1
 40
0.0
  9
$LOFTMAG2
 40
0.0
  9
$LOFTPARAM
 70
     7
  9
$LOFTNORMALS
280
     1
  9
$LATITUDE
 40
37.795
  9
$LONGITUDE
 40
-122.394
  9
$NORTHDIRECTION
 40
0.0
  9
$TIMEZONE
 70
 -8000
  9
$LIGHTGLYPHDISPLAY
280
     1
  9
$TILEMODELIGHTSYNCH
280
     1
  9
$CMATERIAL
347
195
  9
$SOLIDHIST
280
     0
  9
$SHOWHIST
280
     1
  9
$DWFFRAME
280
     2
  9
$DGNFRAME
280
     0
  9
$REALWORLDSCALE
290
     1
  9
$INTERFERECOLOR
 62
     1
  9
$INTERFEREOBJVS
345
1B7
  9
$INTERFEREVPVS
346
1B4
  9
$CSHADOW
280
     0
  9
$SHADOWPLANELOCATION
 40
0.0
  0
ENDSEC
  0
SECTION
  2
CLASSES
  0
CLASS
  1
ACDBDICTIONARYWDFLT
  2
AcDbDictionaryWithDefault
  3
ObjectDBX Classes
 90
        0
 91
        1
280
     0
281
     0
  0
CLASS
  1
VISUALSTYLE
  2
AcDbVisualStyle
  3
ObjectDBX Classes
 90
     4095
 91
       24
280
     0
281
     0
  0
CLASS
  1
MATERIAL
  2
AcDbMaterial
  3
ObjectDBX Classes
 90
     1153
 91
        3
280
     0
281
     0
  0
CLASS
  1
SCALE
  2
AcDbScale
  3
ObjectDBX Classes
 90
     1153
 91
       33
280
     0
281
     0
  0
CLASS
  1
TABLESTYLE
  2
AcDbTableStyle
  3
ObjectDBX Classes
 90
     4095
 91
        1
280
     0
281
     0
  0
CLASS
  1
MLEADERSTYLE
  2
AcDbMLeaderStyle
  3
ACDB_MLEADERSTYLE_CLASS
 90
     4095
 91
        1
280
     0
281
     0
  0
CLASS
  1
SUN
  2
AcDbSun
  3
SCENEOE
 90
     1153
 91
        0
280
     0
281
     0
  0
CLASS
  1
ACDBSECTIONVIEWSTYLE
  2
AcDbSectionViewStyle
  3
ObjectDBX Classes
 90
     1025
 91
        2
280
     0
281
     0
  0
CLASS
  1
ACDBDETAILVIEWSTYLE
  2
AcDbDetailViewStyle
  3
ObjectDBX Classes
 90
     1025
 91
        2
280
     0
281
     0
  0
CLASS
  1
DICTIONARYVAR
  2
AcDbDictionaryVar
  3
ObjectDBX Classes
 90
        0
 91
        9
280
     0
281
     0
  0
CLASS
  1
CELLSTYLEMAP
  2
AcDbCellStyleMap
  3
ObjectDBX Classes
 90
     1152
 91
        4
280
     0
281
     0
  0
CLASS
  1
SORTENTSTABLE
  2
AcDbSortentsTable
  3
ObjectDBX Classes
 90
        0
 91
        1
280
     0
281
     0
  0
ENDSEC
  0
SECTION
  2
TABLES
  0
TABLE
  2
VPORT
  5
8
330
0
100
AcDbSymbolTable
 70
     1
  0
VPORT
  5
29
330
8
100
AcDbSymbolTableRecord
100
AcDbViewportTableRecord
  2
*Active
 70
     0
 10
0.0
 20
0.0
 11
1.0
 21
1.0
 12
610.2273853835509
 22
364.030336930908
 13
0.0
 23
0.0
 14
10.0
 24
10.0
 15
10.0
 25
10.0
 16
0.0
 26
0.0
 36
1.0
 17
0.0
 27
0.0
 37
0.0
 40
704.339825156686
 41
2.303721488595438
 42
50.0
 43
0.0
 44
0.0
 50
0.0
 51
0.0
 71
     0
 72
  2000
 73
     1
 74
     3
 75
     0
 76
     0
 77
     0
 78
     0
281
     0
 65
     1
110
0.0
120
0.0
130
0.0
111
1.0
121
0.0
131
0.0
112
0.0
122
1.0
132
0.0
 79
     0
146
0.0
348
1B3
 60
     3
 61
     5
292
     1
282
     1
141
0.0
142
0.0
 63
   250
421
  3355443
1001
ACAD_NAV_VCDISPLAY
1070
     3
  0
ENDTAB
  0
TABLE
  2
LTYPE
  5
5
330
0
100
AcDbSymbolTable
 70
     7
  0
LTYPE
  5
14
330
5
100
AcDbSymbolTableRecord
100
AcDbLinetypeTableRecord
  2
ByBlock
 70
     0
  3

 72
    65
 73
     0
 40
0.0
  0
LTYPE
  5
15
330
5
100
AcDbSymbolTableRecord
100
AcDbLinetypeTableRecord
  2
ByLayer
 70
     0
  3

 72
    65
 73
     0
 40
0.0
  0
LTYPE
  5
16
330
5
100
AcDbSymbolTableRecord
100
AcDbLinetypeTableRecord
  2
Continuous
 70
     0
  3
Solid line
 72
    65
 73
     0
 40
0.0
  0
LTYPE
  5
6E
330
5
100
AcDbSymbolTableRecord
100
AcDbLinetypeTableRecord
  2
HIDDEN
 70
     0
  3
Hidden __ __ __ __ __ __ __ __ __ __ __ __ __ __
 72
    65
 73
     2
 40
1.905
 49
1.27
 74
     0
 49
-0.635
 74
     0
  0
LTYPE
  5
6F
330
5
100
AcDbSymbolTableRecord
100
AcDbLinetypeTableRecord
  2
PHANTOM
 70
     0
  3
Phantom ______  __  __  ______  __  __  ______
 72
    65
 73
     6
 40
12.7
 49
6.349999999999998
 74
     0
 49
-1.27
 74
     0
 49
1.27
 74
     0
 49
-1.27
 74
     0
 49
1.27
 74
     0
 49
-1.27
 74
     0
  0
LTYPE
  5
70
330
5
100
AcDbSymbolTableRecord
100
AcDbLinetypeTableRecord
  2
CENTER
 70
     0
  3
Center ____ _ ____ _ ____ _ ____ _ ____ _ ____
 72
    65
 73
     4
 40
10.16
 49
6.349999999999998
 74
     0
 49
-1.27
 74
     0
 49
1.27
 74
     0
 49
-1.27
 74
     0
  0
LTYPE
  5
71
330
5
100
AcDbSymbolTableRecord
100
AcDbLinetypeTableRecord
  2
CENTERX2
 70
     0
  3
Center (2x) ________  __  ________  __  _____
 72
    65
 73
     4
 40
20.32
 49
12.7
 74
     0
 49
-2.54
 74
     0
 49
2.54
 74
     0
 49
-2.54
 74
     0
  0
LTYPE
  5
72
330
5
100
AcDbSymbolTableRecord
100
AcDbLinetypeTableRecord
  2
DOT2
 70
     0
  3
Dot (.5x) ........................................
 72
    65
 73
     2
 40
0.635
 49
0.0
 74
     0
 49
-0.635
 74
     0
  0
ENDTAB
  0
TABLE
  2
LAYER
  5
2
102
{ACAD_XDICTIONARY
360
1D9
102
}
330
0
100
AcDbSymbolTable
 70
     3
  0
LAYER
  5
10
102
{ACAD_XDICTIONARY
360
1D2
102
}
330
2
100
AcDbSymbolTableRecord
100
AcDbLayerTableRecord
  2
0
 70
     0
 62
     7
  6
Continuous
370
    -3
390
F
347
1A5
348
0
  0
LAYER
  5
73
102
{ACAD_XDICTIONARY
360
1D4
102
}
330
2
100
AcDbSymbolTableRecord
100
AcDbLayerTableRecord
  2
FORMAT
 70
     0
 62
     7
  6
Continuous
370
    -3
390
F
347
1A5
348
0
  0
LAYER
  5
38D
330
2
100
AcDbSymbolTableRecord
100
AcDbLayerTableRecord
  2
Defpoints
 70
     0
 62
     7
  6
Continuous
290
     0
370
    -3
390
F
347
1A5
348
0
  0
ENDTAB
  0
TABLE
  2
STYLE
  5
3
330
0
100
AcDbSymbolTable
 70
     4
  0
STYLE
  5
11
330
3
100
AcDbSymbolTableRecord
100
AcDbTextStyleTableRecord
  2
Standard
 70
     0
 40
0.0
 41
1.0
 50
0.0
 71
     0
 42
3.5
  3
txt
  4

  0
STYLE
  5
B1
330
3
100
AcDbSymbolTableRecord
100
AcDbTextStyleTableRecord
  2
SLDTEXTSTYLE0
 70
     0
 40
0.0
 41
0.75
 50
0.0
 71
     0
 42
3.5
  3
TXT
  4

  0
STYLE
  5
CE
330
3
100
AcDbSymbolTableRecord
100
AcDbTextStyleTableRecord
  2
SLDTEXTSTYLE1
 70
     0
 40
0.0
 41
0.6864493305940874
 50
0.0
 71
     0
 42
3.5
  3
TXT
  4

  0
STYLE
  5
EF
330
3
100
AcDbSymbolTableRecord
100
AcDbTextStyleTableRecord
  2
SLDTEXTSTYLE2
 70
     0
 40
0.0
 41
0.6875
 50
0.0
 71
     0
 42
3.5
  3
TXT
  4

  0
ENDTAB
  0
TABLE
  2
VIEW
  5
6
330
0
100
AcDbSymbolTable
 70
    10
  0
ENDTAB
  0
TABLE
  2
UCS
  5
7
330
0
100
AcDbSymbolTable
 70
     0
  0
ENDTAB
  0
TABLE
  2
APPID
  5
9
330
0
100
AcDbSymbolTable
 70
     5
  0
APPID
  5
12
330
9
100
AcDbSymbolTableRecord
100
AcDbRegAppTableRecord
  2
ACAD
 70
     0
  0
APPID
  5
1DF
330
9
100
AcDbSymbolTableRecord
100
AcDbRegAppTableRecord
  2
ACAD_NAV_VCDISPLAY
 70
     0
  0
APPID
  5
369
330
9
100
AcDbSymbolTableRecord
100
AcDbRegAppTableRecord
  2
Acad_TC
 70
     0
  0
APPID
  5
36A
330
9
100
AcDbSymbolTableRecord
100
AcDbRegAppTableRecord
  2
ACAD_DSTYLE_DIMRADIAL_EXTENSION
 70
     0
  0
APPID
  5
36B
330
9
100
AcDbSymbolTableRecord
100
AcDbRegAppTableRecord
  2
ACAD_EXEMPT_FROM_CAD_STANDARDS
 70
     0
  0
ENDTAB
  0
TABLE
  2
DIMSTYLE
  5
A
330
0
100
AcDbSymbolTable
 70
     3
100
AcDbDimStyleTable
 71
     1
340
27
  0
DIMSTYLE
105
27
330
A
100
AcDbSymbolTableRecord
100
AcDbDimStyleTableRecord
  2
ISO-25
 70
     0
 41
2.5
 42
0.625
 43
3.75
 44
1.25
 73
     0
 74
     0
 77
     1
 78
     8
140
2.5
141
2.5
143
0.03937007874016
147
0.625
171
     3
172
     1
271
     2
272
     2
274
     3
278
    44
283
     0
284
     8
340
11
  0
DIMSTYLE
105
21A
330
A
100
AcDbSymbolTableRecord
100
AcDbDimStyleTableRecord
  2
STANDARD
 70
     0
279
     2
340
11
  0
ENDTAB
  0
TABLE
  2
BLOCK_RECORD
  5
1
330
0
100
AcDbSymbolTable
 70
    42
  0
BLOCK_RECORD
  5
1F
330
1
100
AcDbSymbolTableRecord
100
AcDbBlockTableRecord
  2
*Model_Space
340
22
 70
     0
280
     1
281
     0
  0
BLOCK_RECORD
  5
1B
330
1
100
AcDbSymbolTableRecord
100
AcDbBlockTableRecord
  2
*Paper_Space
340
1E
 70
     0
280
     1
281
     0
  0
BLOCK_RECORD
  5
23
330
1
100
AcDbSymbolTableRecord
100
AcDbBlockTableRecord
  2
*Paper_Space0
340
26
 70
     0
280
     1
281
     0
  0
BLOCK_RECORD
  5
D4
330
1
100
AcDbSymbolTableRecord
100
AcDbBlockTableRecord
  2
SW_NOTE_0
340
0
 70
     0
280
     1
281
     0
  0
BLOCK_RECORD
  5
DF
330
1
100
AcDbSymbolTableRecord
100
AcDbBlockTableRecord
  2
SW_NOTE_0_1
340
0
 70
     0
280
     1
281
     0
  0
BLOCK_RECORD
  5
106
330
1
100
AcDbSymbolTableRecord
100
AcDbBlockTableRecord
  2
SW_CENTERMARKSYMBOL_0
340
0
 70
     0
280
     1
281
     0
  0
BLOCK_RECORD
  5
112
330
1
100
AcDbSymbolTableRecord
100
AcDbBlockTableRecord
  2
SW_CENTERMARKSYMBOL_1
340
0
 70
     0
280
     1
281
     0
  0
BLOCK_RECORD
  5
11E
330
1
100
AcDbSymbolTableRecord
100
AcDbBlockTableRecord
  2
SW_CENTERMARKSYMBOL_2
340
0
 70
     0
280
     1
281
     0
  0
BLOCK_RECORD
  5
12A
330
1
100
AcDbSymbolTableRecord
100
AcDbBlockTableRecord
  2
SW_CENTERMARKSYMBOL_3
340
0
 70
     0
280
     1
281
     0
  0
BLOCK_RECORD
  5
136
330
1
100
AcDbSymbolTableRecord
100
AcDbBlockTableRecord
  2
SW_CENTERMARKSYMBOL_4
340
0
 70
     0
280
     1
281
     0
  0
BLOCK_RECORD
  5
142
330
1
100
AcDbSymbolTableRecord
100
AcDbBlockTableRecord
  2
SW_CENTERMARKSYMBOL_5
340
0
 70
     0
280
     1
281
     0
  0
BLOCK_RECORD
  5
14E
330
1
100
AcDbSymbolTableRecord
100
AcDbBlockTableRecord
  2
SW_CENTERMARKSYMBOL_6
340
0
 70
     0
280
     1
281
     0
  0
BLOCK_RECORD
  5
15A
330
1
100
AcDbSymbolTableRecord
100
AcDbBlockTableRecord
  2
SW_CENTERMARKSYMBOL_7
340
0
 70
     0
280
     1
281
     0
  0
BLOCK_RECORD
  5
166
330
1
100
AcDbSymbolTableRecord
100
AcDbBlockTableRecord
  2
SW_CENTERMARKSYMBOL_8
340
0
 70
     0
280
     1
281
     0
  0
BLOCK_RECORD
  5
172
330
1
100
AcDbSymbolTableRecord
100
AcDbBlockTableRecord
  2
SW_CENTERMARKSYMBOL_9
340
0
 70
     0
280
     1
281
     0
  0
BLOCK_RECORD
  5
38E
330
1
100
AcDbSymbolTableRecord
100
AcDbBlockTableRecord
  2
*D15
340
0
 70
     0
280
     1
281
     0
  0
BLOCK_RECORD
  5
3A4
330
1
100
AcDbSymbolTableRecord
100
AcDbBlockTableRecord
  2
*D16
340
0
 70
     0
280
     1
281
     0
  0
BLOCK_RECORD
  5
3B2
330
1
100
AcDbSymbolTableRecord
100
AcDbBlockTableRecord
  2
*D17
340
0
 70
     0
280
     1
281
     0
  0
BLOCK_RECORD
  5
3BF
330
1
100
AcDbSymbolTableRecord
100
AcDbBlockTableRecord
  2
*D18
340
0
 70
     0
280
     1
281
     0
  0
BLOCK_RECORD
  5
3CC
330
1
100
AcDbSymbolTableRecord
100
AcDbBlockTableRecord
  2
*D19
340
0
 70
     0
280
     1
281
     0
  0
BLOCK_RECORD
  5
3D9
330
1
100
AcDbSymbolTableRecord
100
AcDbBlockTableRecord
  2
*D20
340
0
 70
     0
280
     1
281
     0
  0
BLOCK_RECORD
  5
3E6
330
1
100
AcDbSymbolTableRecord
100
AcDbBlockTableRecord
  2
*D21
340
0
 70
     0
280
     1
281
     0
  0
BLOCK_RECORD
  5
3F3
330
1
100
AcDbSymbolTableRecord
100
AcDbBlockTableRecord
  2
*D22
340
0
 70
     0
280
     1
281
     0
  0
BLOCK_RECORD
  5
400
330
1
100
AcDbSymbolTableRecord
100
AcDbBlockTableRecord
  2
*D23
340
0
 70
     0
280
     1
281
     0
  0
BLOCK_RECORD
  5
415
330
1
100
AcDbSymbolTableRecord
100
AcDbBlockTableRecord
  2
*D24
340
0
 70
     0
280
     1
281
     0
  0
BLOCK_RECORD
  5
51C
330
1
100
AcDbSymbolTableRecord
100
AcDbBlockTableRecord
  2
*D26
340
0
 70
     0
280
     1
281
     0
  0
BLOCK_RECORD
  5
52A
330
1
100
AcDbSymbolTableRecord
100
AcDbBlockTableRecord
  2
*D27
340
0
 70
     0
280
     1
281
     0
  0
BLOCK_RECORD
  5
537
330
1
100
AcDbSymbolTableRecord
100
AcDbBlockTableRecord
  2
*D28
340
0
 70
     0
280
     1
281
     0
  0
BLOCK_RECORD
  5
546
330
1
100
AcDbSymbolTableRecord
100
AcDbBlockTableRecord
  2
*D29
340
0
 70
     0
280
     1
281
     0
  0
BLOCK_RECORD
  5
556
330
1
100
AcDbSymbolTableRecord
100
AcDbBlockTableRecord
  2
*D30
340
0
 70
     0
280
     1
281
     0
  0
BLOCK_RECORD
  5
563
330
1
100
AcDbSymbolTableRecord
100
AcDbBlockTableRecord
  2
*D31
340
0
 70
     0
280
     1
281
     0
  0
BLOCK_RECORD
  5
570
330
1
100
AcDbSymbolTableRecord
100
AcDbBlockTableRecord
  2
*D32
340
0
 70
     0
280
     1
281
     0
  0
BLOCK_RECORD
  5
57D
330
1
100
AcDbSymbolTableRecord
100
AcDbBlockTableRecord
  2
*D33
340
0
 70
     0
280
     1
281
     0
  0
BLOCK_RECORD
  5
58A
330
1
100
AcDbSymbolTableRecord
100
AcDbBlockTableRecord
  2
*D34
340
0
 70
     0
280
     1
281
     0
  0
BLOCK_RECORD
  5
59F
330
1
100
AcDbSymbolTableRecord
100
AcDbBlockTableRecord
  2
*D35
340
0
 70
     0
280
     1
281
     0
  0
BLOCK_RECORD
  5
5AC
330
1
100
AcDbSymbolTableRecord
100
AcDbBlockTableRecord
  2
*D36
340
0
 70
     0
280
     1
281
     0
  0
BLOCK_RECORD
  5
5BC
330
1
100
AcDbSymbolTableRecord
100
AcDbBlockTableRecord
  2
*D37
340
0
 70
     0
280
     1
281
     0
  0
BLOCK_RECORD
  5
5C9
330
1
100
AcDbSymbolTableRecord
100
AcDbBlockTableRecord
  2
*D38
340
0
 70
     0
280
     1
281
     0
  0
BLOCK_RECORD
  5
5D6
330
1
100
AcDbSymbolTableRecord
100
AcDbBlockTableRecord
  2
*D39
340
0
 70
     0
280
     1
281
     0
  0
BLOCK_RECORD
  5
5E4
330
1
100
AcDbSymbolTableRecord
100
AcDbBlockTableRecord
  2
*D40
340
0
 70
     0
280
     1
281
     0
  0
BLOCK_RECORD
  5
5F2
330
1
100
AcDbSymbolTableRecord
100
AcDbBlockTableRecord
  2
*D41
340
0
 70
     0
280
     1
281
     0
  0
ENDTAB
  0
ENDSEC
  0
SECTION
  2
BLOCKS
  0
BLOCK
  5
20
330
1F
100
AcDbEntity
  8
0
100
AcDbBlockBegin
  2
*Model_Space
 70
     0
 10
0.0
 20
0.0
 30
0.0
  3
*Model_Space
  1

  0
ENDBLK
  5
21
330
1F
100
AcDbEntity
  8
0
100
AcDbBlockEnd
  0
BLOCK
  5
1C
330
1B
100
AcDbEntity
 67
     1
  8
0
100
AcDbBlockBegin
  2
*Paper_Space
 70
     0
 10
0.0
 20
0.0
 30
0.0
  3
*Paper_Space
  1

  0
ENDBLK
  5
1D
330
1B
100
AcDbEntity
 67
     1
  8
0
100
AcDbBlockEnd
  0
BLOCK
  5
24
330
23
100
AcDbEntity
 67
     1
  8
0
100
AcDbBlockBegin
  2
*Paper_Space0
 70
     0
 10
0.0
 20
0.0
 30
0.0
  3
*Paper_Space0
  1

  0
ENDBLK
  5
25
330
23
100
AcDbEntity
 67
     1
  8
0
100
AcDbBlockEnd
  0
BLOCK
  5
D5
330
D4
100
AcDbEntity
  8
0
100
AcDbBlockBegin
  2
SW_NOTE_0
 70
     0
 10
0.0
 20
0.0
 30
0.0
  3
SW_NOTE_0
  1

  0
MTEXT
  5
D7
330
D4
100
AcDbEntity
  8
0
  6
Continuous
 62
     0
370
     0
100
AcDbMText
 10
0.0
 20
1.933601609657941
 30
0.0
 40
1.5
 41
0.0
 46
0.0
 71
     1
 72
     1
  1
UNLESS OTHERWISE SPECIFIED:
  7
SLDTEXTSTYLE0
 73
     1
 44
1.0
  0
MTEXT
  5
D8
330
D4
100
AcDbEntity
  8
0
  6
Continuous
 62
     0
370
     0
100
AcDbMText
 10
0.0
 20
-0.5663983344626964
 30
0.0
 40
1.5
 41
0.0
 46
0.0
 71
     1
 72
     1
  1
DIMENSIONS ARE IN MILLIMETERS
  7
SLDTEXTSTYLE0
 73
     1
 44
1.0
  0
MTEXT
  5
D9
330
D4
100
AcDbEntity
  8
0
  6
Continuous
 62
     0
370
     0
100
AcDbMText
 10
0.0
 20
-3.066398278583341
 30
0.0
 40
1.5
 41
0.0
 46
0.0
 71
     1
 72
     1
  1
SURFACE FINISH:
  7
SLDTEXTSTYLE0
 73
     1
 44
1.0
  0
MTEXT
  5
DA
330
D4
100
AcDbEntity
  8
0
  6
Continuous
 62
     0
370
     0
100
AcDbMText
 10
0.0
 20
-5.566398222703987
 30
0.0
 40
1.5
 41
0.0
 46
0.0
 71
     1
 72
     1
  1
TOLERANCES:
  7
SLDTEXTSTYLE0
 73
     1
 44
1.0
  0
MTEXT
  5
DB
330
D4
100
AcDbEntity
  8
0
  6
Continuous
 62
     0
370
     0
100
AcDbMText
 10
1.687500000000007
 20
-8.066398166824633
 30
0.0
 40
1.5
 41
0.0
 46
0.0
 71
     1
 72
     1
  1
LINEAR:
  7
SLDTEXTSTYLE0
 73
     1
 44
1.0
  0
MTEXT
  5
DC
330
D4
100
AcDbEntity
  8
0
  6
Continuous
 62
     0
370
     0
100
AcDbMText
 10
1.687500000000007
 20
-10.56639811094528
 30
0.0
 40
1.5
 41
0.0
 46
0.0
 71
     1
 72
     1
  1
ANGULAR:
  7
SLDTEXTSTYLE0
 73
     1
 44
1.0
  0
ENDBLK
  5
D6
330
D4
100
AcDbEntity
  8
0
100
AcDbBlockEnd
  0
BLOCK
  5
E0
330
DF
100
AcDbEntity
  8
0
100
AcDbBlockBegin
  2
SW_NOTE_0_1
 70
     0
 10
0.0
 20
0.0
 30
0.0
  3
SW_NOTE_0_1
  1

  0
MTEXT
  5
E2
330
DF
100
AcDbEntity
  8
0
  6
Continuous
 62
     0
370
     0
100
AcDbMText
 10
0.0
 20
1.933601609657941
 30
0.0
 40
1.5
 41
0.0
 46
0.0
 71
     1
 72
     1
  1
DEBURR AND
  7
SLDTEXTSTYLE0
 73
     1
 44
1.0
  0
MTEXT
  5
E3
330
DF
100
AcDbEntity
  8
0
  6
Continuous
 62
     0
370
     0
100
AcDbMText
 10
0.0
 20
-0.5663983344626964
 30
0.0
 40
1.5
 41
0.0
 46
0.0
 71
     1
 72
     1
  1
BREAK SHARP
  7
SLDTEXTSTYLE0
 73
     1
 44
1.0
  0
MTEXT
  5
E4
330
DF
100
AcDbEntity
  8
0
  6
Continuous
 62
     0
370
     0
100
AcDbMText
 10
0.0
 20
-3.066398278583341
 30
0.0
 40
1.5
 41
0.0
 46
0.0
 71
     1
 72
     1
  1
EDGES
  7
SLDTEXTSTYLE0
 73
     1
 44
1.0
  0
ENDBLK
  5
E1
330
DF
100
AcDbEntity
  8
0
100
AcDbBlockEnd
  0
BLOCK
  5
107
330
106
100
AcDbEntity
  8
0
100
AcDbBlockBegin
  2
SW_CENTERMARKSYMBOL_0
 70
     0
 10
0.0
 20
0.0
 30
0.0
  3
SW_CENTERMARKSYMBOL_0
  1

  0
LINE
  5
109
330
106
100
AcDbEntity
  8
0
  6
Continuous
 62
     0
370
    18
100
AcDbLine
 10
0.0
 20
0.0
 30
0.0
 11
0.0
 21
4.999999999999976
 31
0.0
  0
LINE
  5
10A
330
106
100
AcDbEntity
  8
0
  6
Continuous
 62
     0
370
    18
100
AcDbLine
 10
0.0
 20
0.0
 30
0.0
 11
-5.000000000000004
 21
0.0
 31
0.0
  0
LINE
  5
10B
330
106
100
AcDbEntity
  8
0
  6
Continuous
 62
     0
370
    18
100
AcDbLine
 10
0.0
 20
0.0
 30
0.0
 11
0.0
 21
-5.000000000000004
 31
0.0
  0
LINE
  5
10C
330
106
100
AcDbEntity
  8
0
  6
Continuous
 62
     0
370
    18
100
AcDbLine
 10
0.0
 20
0.0
 30
0.0
 11
4.999999999999976
 21
0.0
 31
0.0
  0
LINE
  5
10D
330
106
100
AcDbEntity
  8
0
  6
Continuous
 62
     0
370
    18
100
AcDbLine
 10
0.0
 20
9.99999999999998
 30
0.0
 11
0.0
 21
13.19999999999999
 31
0.0
  0
LINE
  5
10E
330
106
100
AcDbEntity
  8
0
  6
Continuous
 62
     0
370
    18
100
AcDbLine
 10
-10.00000000000001
 20
0.0
 30
0.0
 11
-13.20000000000002
 21
0.0
 31
0.0
  0
LINE
  5
10F
330
106
100
AcDbEntity
  8
0
  6
Continuous
 62
     0
370
    18
100
AcDbLine
 10
0.0
 20
-10.00000000000001
 30
0.0
 11
0.0
 21
-13.20000000000002
 31
0.0
  0
LINE
  5
110
330
106
100
AcDbEntity
  8
0
  6
Continuous
 62
     0
370
    18
100
AcDbLine
 10
9.99999999999998
 20
0.0
 30
0.0
 11
13.19999999999999
 21
0.0
 31
0.0
  0
ENDBLK
  5
108
330
106
100
AcDbEntity
  8
0
100
AcDbBlockEnd
  0
BLOCK
  5
113
330
112
100
AcDbEntity
  8
0
100
AcDbBlockBegin
  2
SW_CENTERMARKSYMBOL_1
 70
     0
 10
0.0
 20
0.0
 30
0.0
  3
SW_CENTERMARKSYMBOL_1
  1

  0
LINE
  5
115
330
112
100
AcDbEntity
  8
0
  6
Continuous
 62
     0
370
    18
100
AcDbLine
 10
0.0
 20
0.0
 30
0.0
 11
0.0
 21
5.000000000000004
 31
0.0
  0
LINE
  5
116
330
112
100
AcDbEntity
  8
0
  6
Continuous
 62
     0
370
    18
100
AcDbLine
 10
0.0
 20
0.0
 30
0.0
 11
-5.000000000000004
 21
0.0
 31
0.0
  0
LINE
  5
117
330
112
100
AcDbEntity
  8
0
  6
Continuous
 62
     0
370
    18
100
AcDbLine
 10
0.0
 20
0.0
 30
0.0
 11
0.0
 21
-4.999999999999976
 31
0.0
  0
LINE
  5
118
330
112
100
AcDbEntity
  8
0
  6
Continuous
 62
     0
370
    18
100
AcDbLine
 10
0.0
 20
0.0
 30
0.0
 11
5.000000000000004
 21
0.0
 31
0.0
  0
LINE
  5
119
330
112
100
AcDbEntity
  8
0
  6
Continuous
 62
     0
370
    18
100
AcDbLine
 10
0.0
 20
10.00000000000001
 30
0.0
 11
0.0
 21
14.20000000000002
 31
0.0
  0
LINE
  5
11A
330
112
100
AcDbEntity
  8
0
  6
Continuous
 62
     0
370
    18
100
AcDbLine
 10
-9.999999999999994
 20
0.0
 30
0.0
 11
-14.19999999999999
 21
0.0
 31
0.0
  0
LINE
  5
11B
330
112
100
AcDbEntity
  8
0
  6
Continuous
 62
     0
370
    18
100
AcDbLine
 10
0.0
 20
-9.99999999999998
 30
0.0
 11
0.0
 21
-14.19999999999999
 31
0.0
  0
LINE
  5
11C
330
112
100
AcDbEntity
  8
0
  6
Continuous
 62
     0
370
    18
100
AcDbLine
 10
10.00000000000001
 20
0.0
 30
0.0
 11
14.2
 21
0.0
 31
0.0
  0
ENDBLK
  5
114
330
112
100
AcDbEntity
  8
0
100
AcDbBlockEnd
  0
BLOCK
  5
11F
330
11E
100
AcDbEntity
  8
0
100
AcDbBlockBegin
  2
SW_CENTERMARKSYMBOL_2
 70
     0
 10
0.0
 20
0.0
 30
0.0
  3
SW_CENTERMARKSYMBOL_2
  1

  0
LINE
  5
121
330
11E
100
AcDbEntity
  8
0
  6
Continuous
 62
     0
370
    18
100
AcDbLine
 10
0.0
 20
0.0
 30
0.0
 11
0.0
 21
5.000000000000004
 31
0.0
  0
LINE
  5
122
330
11E
100
AcDbEntity
  8
0
  6
Continuous
 62
     0
370
    18
100
AcDbLine
 10
0.0
 20
0.0
 30
0.0
 11
-5.000000000000004
 21
0.0
 31
0.0
  0
LINE
  5
123
330
11E
100
AcDbEntity
  8
0
  6
Continuous
 62
     0
370
    18
100
AcDbLine
 10
0.0
 20
0.0
 30
0.0
 11
0.0
 21
-5.000000000000004
 31
0.0
  0
LINE
  5
124
330
11E
100
AcDbEntity
  8
0
  6
Continuous
 62
     0
370
    18
100
AcDbLine
 10
0.0
 20
0.0
 30
0.0
 11
4.999999999999976
 21
0.0
 31
0.0
  0
LINE
  5
125
330
11E
100
AcDbEntity
  8
0
  6
Continuous
 62
     0
370
    18
100
AcDbLine
 10
0.0
 20
5.000000000000004
 30
0.0
 11
0.0
 21
10.00000000000001
 31
0.0
  0
LINE
  5
126
330
11E
100
AcDbEntity
  8
0
  6
Continuous
 62
     0
370
    18
100
AcDbLine
 10
-5.000000000000004
 20
0.0
 30
0.0
 11
-10.00000000000001
 21
0.0
 31
0.0
  0
LINE
  5
127
330
11E
100
AcDbEntity
  8
0
  6
Continuous
 62
     0
370
    18
100
AcDbLine
 10
0.0
 20
-5.000000000000004
 30
0.0
 11
0.0
 21
-10.00000000000001
 31
0.0
  0
LINE
  5
128
330
11E
100
AcDbEntity
  8
0
  6
Continuous
 62
     0
370
    18
100
AcDbLine
 10
4.999999999999976
 20
0.0
 30
0.0
 11
10.00000000000001
 21
0.0
 31
0.0
  0
ENDBLK
  5
120
330
11E
100
AcDbEntity
  8
0
100
AcDbBlockEnd
  0
BLOCK
  5
12B
330
12A
100
AcDbEntity
  8
0
100
AcDbBlockBegin
  2
SW_CENTERMARKSYMBOL_3
 70
     0
 10
0.0
 20
0.0
 30
0.0
  3
SW_CENTERMARKSYMBOL_3
  1

  0
LINE
  5
12D
330
12A
100
AcDbEntity
  8
0
  6
Continuous
 62
     0
370
    18
100
AcDbLine
 10
0.0
 20
0.0
 30
0.0
 11
0.0
 21
4.999999999999976
 31
0.0
  0
LINE
  5
12E
330
12A
100
AcDbEntity
  8
0
  6
Continuous
 62
     0
370
    18
100
AcDbLine
 10
0.0
 20
0.0
 30
0.0
 11
-5.000000000000004
 21
0.0
 31
0.0
  0
LINE
  5
12F
330
12A
100
AcDbEntity
  8
0
  6
Continuous
 62
     0
370
    18
100
AcDbLine
 10
0.0
 20
0.0
 30
0.0
 11
0.0
 21
-5.000000000000004
 31
0.0
  0
LINE
  5
130
330
12A
100
AcDbEntity
  8
0
  6
Continuous
 62
     0
370
    18
100
AcDbLine
 10
0.0
 20
0.0
 30
0.0
 11
4.999999999999976
 21
0.0
 31
0.0
  0
LINE
  5
131
330
12A
100
AcDbEntity
  8
0
  6
Continuous
 62
     0
370
    18
100
AcDbLine
 10
0.0
 20
4.999999999999976
 30
0.0
 11
0.0
 21
10.00000000000001
 31
0.0
  0
LINE
  5
132
330
12A
100
AcDbEntity
  8
0
  6
Continuous
 62
     0
370
    18
100
AcDbLine
 10
-5.000000000000004
 20
0.0
 30
0.0
 11
-10.00000000000001
 21
0.0
 31
0.0
  0
LINE
  5
133
330
12A
100
AcDbEntity
  8
0
  6
Continuous
 62
     0
370
    18
100
AcDbLine
 10
0.0
 20
-5.000000000000004
 30
0.0
 11
0.0
 21
-10.00000000000001
 31
0.0
  0
LINE
  5
134
330
12A
100
AcDbEntity
  8
0
  6
Continuous
 62
     0
370
    18
100
AcDbLine
 10
4.999999999999976
 20
0.0
 30
0.0
 11
10.00000000000001
 21
0.0
 31
0.0
  0
ENDBLK
  5
12C
330
12A
100
AcDbEntity
  8
0
100
AcDbBlockEnd
  0
BLOCK
  5
137
330
136
100
AcDbEntity
  8
0
100
AcDbBlockBegin
  2
SW_CENTERMARKSYMBOL_4
 70
     0
 10
0.0
 20
0.0
 30
0.0
  3
SW_CENTERMARKSYMBOL_4
  1

  0
LINE
  5
139
330
136
100
AcDbEntity
  8
0
  6
Continuous
 62
     0
370
    18
100
AcDbLine
 10
0.0
 20
0.0
 30
0.0
 11
0.0
 21
5.000000000000004
 31
0.0
  0
LINE
  5
13A
330
136
100
AcDbEntity
  8
0
  6
Continuous
 62
     0
370
    18
100
AcDbLine
 10
0.0
 20
0.0
 30
0.0
 11
-5.000000000000004
 21
0.0
 31
0.0
  0
LINE
  5
13B
330
136
100
AcDbEntity
  8
0
  6
Continuous
 62
     0
370
    18
100
AcDbLine
 10
0.0
 20
0.0
 30
0.0
 11
0.0
 21
-5.000000000000004
 31
0.0
  0
LINE
  5
13C
330
136
100
AcDbEntity
  8
0
  6
Continuous
 62
     0
370
    18
100
AcDbLine
 10
0.0
 20
0.0
 30
0.0
 11
4.99999999999999
 21
0.0
 31
0.0
  0
LINE
  5
13D
330
136
100
AcDbEntity
  8
0
  6
Continuous
 62
     0
370
    18
100
AcDbLine
 10
0.0
 20
5.000000000000004
 30
0.0
 11
0.0
 21
8.199999999999985
 31
0.0
  0
LINE
  5
13E
330
136
100
AcDbEntity
  8
0
  6
Continuous
 62
     0
370
    18
100
AcDbLine
 10
-5.000000000000004
 20
0.0
 30
0.0
 11
-8.199999999999999
 21
0.0
 31
0.0
  0
LINE
  5
13F
330
136
100
AcDbEntity
  8
0
  6
Continuous
 62
     0
370
    18
100
AcDbLine
 10
0.0
 20
-5.000000000000004
 30
0.0
 11
0.0
 21
-8.199999999999985
 31
0.0
  0
LINE
  5
140
330
136
100
AcDbEntity
  8
0
  6
Continuous
 62
     0
370
    18
100
AcDbLine
 10
4.99999999999999
 20
0.0
 30
0.0
 11
8.199999999999985
 21
0.0
 31
0.0
  0
ENDBLK
  5
138
330
136
100
AcDbEntity
  8
0
100
AcDbBlockEnd
  0
BLOCK
  5
143
330
142
100
AcDbEntity
  8
0
100
AcDbBlockBegin
  2
SW_CENTERMARKSYMBOL_5
 70
     0
 10
0.0
 20
0.0
 30
0.0
  3
SW_CENTERMARKSYMBOL_5
  1

  0
LINE
  5
145
330
142
100
AcDbEntity
  8
0
  6
Continuous
 62
     0
370
    18
100
AcDbLine
 10
0.0
 20
0.0
 30
0.0
 11
0.0
 21
5.000000000000004
 31
0.0
  0
LINE
  5
146
330
142
100
AcDbEntity
  8
0
  6
Continuous
 62
     0
370
    18
100
AcDbLine
 10
0.0
 20
0.0
 30
0.0
 11
-5.000000000000004
 21
0.0
 31
0.0
  0
LINE
  5
147
330
142
100
AcDbEntity
  8
0
  6
Continuous
 62
     0
370
    18
100
AcDbLine
 10
0.0
 20
0.0
 30
0.0
 11
0.0
 21
-5.000000000000004
 31
0.0
  0
LINE
  5
148
330
142
100
AcDbEntity
  8
0
  6
Continuous
 62
     0
370
    18
100
AcDbLine
 10
0.0
 20
0.0
 30
0.0
 11
4.99999999999999
 21
0.0
 31
0.0
  0
LINE
  5
149
330
142
100
AcDbEntity
  8
0
  6
Continuous
 62
     0
370
    18
100
AcDbLine
 10
0.0
 20
5.000000000000004
 30
0.0
 11
0.0
 21
8.200000000000013
 31
0.0
  0
LINE
  5
14A
330
142
100
AcDbEntity
  8
0
  6
Continuous
 62
     0
370
    18
100
AcDbLine
 10
-5.000000000000004
 20
0.0
 30
0.0
 11
-8.200000000000013
 21
0.0
 31
0.0
  0
LINE
  5
14B
330
142
100
AcDbEntity
  8
0
  6
Continuous
 62
     0
370
    18
100
AcDbLine
 10
0.0
 20
-5.000000000000004
 30
0.0
 11
0.0
 21
-8.200000000000013
 31
0.0
  0
LINE
  5
14C
330
142
100
AcDbEntity
  8
0
  6
Continuous
 62
     0
370
    18
100
AcDbLine
 10
4.99999999999999
 20
0.0
 30
0.0
 11
8.199999999999985
 21
0.0
 31
0.0
  0
ENDBLK
  5
144
330
142
100
AcDbEntity
  8
0
100
AcDbBlockEnd
  0
BLOCK
  5
14F
330
14E
100
AcDbEntity
  8
0
100
AcDbBlockBegin
  2
SW_CENTERMARKSYMBOL_6
 70
     0
 10
0.0
 20
0.0
 30
0.0
  3
SW_CENTERMARKSYMBOL_6
  1

  0
LINE
  5
151
330
14E
100
AcDbEntity
  8
0
  6
Continuous
 62
     0
370
    18
100
AcDbLine
 10
0.0
 20
0.0
 30
0.0
 11
0.0
 21
5.000000000000004
 31
0.0
  0
LINE
  5
152
330
14E
100
AcDbEntity
  8
0
  6
Continuous
 62
     0
370
    18
100
AcDbLine
 10
0.0
 20
0.0
 30
0.0
 11
-5.000000000000004
 21
0.0
 31
0.0
  0
LINE
  5
153
330
14E
100
AcDbEntity
  8
0
  6
Continuous
 62
     0
370
    18
100
AcDbLine
 10
0.0
 20
0.0
 30
0.0
 11
0.0
 21
-5.000000000000004
 31
0.0
  0
LINE
  5
154
330
14E
100
AcDbEntity
  8
0
  6
Continuous
 62
     0
370
    18
100
AcDbLine
 10
0.0
 20
0.0
 30
0.0
 11
4.99999999999999
 21
0.0
 31
0.0
  0
LINE
  5
155
330
14E
100
AcDbEntity
  8
0
  6
Continuous
 62
     0
370
    18
100
AcDbLine
 10
0.0
 20
5.000000000000004
 30
0.0
 11
0.0
 21
8.200000000000013
 31
0.0
  0
LINE
  5
156
330
14E
100
AcDbEntity
  8
0
  6
Continuous
 62
     0
370
    18
100
AcDbLine
 10
-5.000000000000004
 20
0.0
 30
0.0
 11
-8.200000000000013
 21
0.0
 31
0.0
  0
LINE
  5
157
330
14E
100
AcDbEntity
  8
0
  6
Continuous
 62
     0
370
    18
100
AcDbLine
 10
0.0
 20
-5.000000000000004
 30
0.0
 11
0.0
 21
-8.200000000000013
 31
0.0
  0
LINE
  5
158
330
14E
100
AcDbEntity
  8
0
  6
Continuous
 62
     0
370
    18
100
AcDbLine
 10
4.99999999999999
 20
0.0
 30
0.0
 11
8.199999999999999
 21
0.0
 31
0.0
  0
ENDBLK
  5
150
330
14E
100
AcDbEntity
  8
0
100
AcDbBlockEnd
  0
BLOCK
  5
15B
330
15A
100
AcDbEntity
  8
0
100
AcDbBlockBegin
  2
SW_CENTERMARKSYMBOL_7
 70
     0
 10
0.0
 20
0.0
 30
0.0
  3
SW_CENTERMARKSYMBOL_7
  1

  0
LINE
  5
15D
330
15A
100
AcDbEntity
  8
0
  6
Continuous
 62
     0
370
    18
100
AcDbLine
 10
0.0
 20
0.0
 30
0.0
 11
0.0
 21
5.000000000000004
 31
0.0
  0
LINE
  5
15E
330
15A
100
AcDbEntity
  8
0
  6
Continuous
 62
     0
370
    18
100
AcDbLine
 10
0.0
 20
0.0
 30
0.0
 11
-5.000000000000004
 21
0.0
 31
0.0
  0
LINE
  5
15F
330
15A
100
AcDbEntity
  8
0
  6
Continuous
 62
     0
370
    18
100
AcDbLine
 10
0.0
 20
0.0
 30
0.0
 11
0.0
 21
-5.000000000000004
 31
0.0
  0
LINE
  5
160
330
15A
100
AcDbEntity
  8
0
  6
Continuous
 62
     0
370
    18
100
AcDbLine
 10
0.0
 20
0.0
 30
0.0
 11
5.000000000000004
 21
0.0
 31
0.0
  0
LINE
  5
161
330
15A
100
AcDbEntity
  8
0
  6
Continuous
 62
     0
370
    18
100
AcDbLine
 10
0.0
 20
5.000000000000004
 30
0.0
 11
0.0
 21
8.199999999999985
 31
0.0
  0
LINE
  5
162
330
15A
100
AcDbEntity
  8
0
  6
Continuous
 62
     0
370
    18
100
AcDbLine
 10
-5.000000000000004
 20
0.0
 30
0.0
 11
-8.199999999999999
 21
0.0
 31
0.0
  0
LINE
  5
163
330
15A
100
AcDbEntity
  8
0
  6
Continuous
 62
     0
370
    18
100
AcDbLine
 10
0.0
 20
-5.000000000000004
 30
0.0
 11
0.0
 21
-8.200000000000013
 31
0.0
  0
LINE
  5
164
330
15A
100
AcDbEntity
  8
0
  6
Continuous
 62
     0
370
    18
100
AcDbLine
 10
5.000000000000004
 20
0.0
 30
0.0
 11
8.199999999999999
 21
0.0
 31
0.0
  0
ENDBLK
  5
15C
330
15A
100
AcDbEntity
  8
0
100
AcDbBlockEnd
  0
BLOCK
  5
167
330
166
100
AcDbEntity
  8
0
100
AcDbBlockBegin
  2
SW_CENTERMARKSYMBOL_8
 70
     0
 10
0.0
 20
0.0
 30
0.0
  3
SW_CENTERMARKSYMBOL_8
  1

  0
LINE
  5
169
330
166
100
AcDbEntity
  8
0
  6
Continuous
 62
     0
370
    18
100
AcDbLine
 10
0.0
 20
0.0
 30
0.0
 11
0.0
 21
5.000000000000004
 31
0.0
  0
LINE
  5
16A
330
166
100
AcDbEntity
  8
0
  6
Continuous
 62
     0
370
    18
100
AcDbLine
 10
0.0
 20
0.0
 30
0.0
 11
-4.99999999999999
 21
0.0
 31
0.0
  0
LINE
  5
16B
330
166
100
AcDbEntity
  8
0
  6
Continuous
 62
     0
370
    18
100
AcDbLine
 10
0.0
 20
0.0
 30
0.0
 11
0.0
 21
-5.000000000000004
 31
0.0
  0
LINE
  5
16C
330
166
100
AcDbEntity
  8
0
  6
Continuous
 62
     0
370
    18
100
AcDbLine
 10
0.0
 20
0.0
 30
0.0
 11
5.000000000000004
 21
0.0
 31
0.0
  0
LINE
  5
16D
330
166
100
AcDbEntity
  8
0
  6
Continuous
 62
     0
370
    18
100
AcDbLine
 10
0.0
 20
5.000000000000004
 30
0.0
 11
0.0
 21
8.199999999999985
 31
0.0
  0
LINE
  5
16E
330
166
100
AcDbEntity
  8
0
  6
Continuous
 62
     0
370
    18
100
AcDbLine
 10
-4.99999999999999
 20
0.0
 30
0.0
 11
-8.199999999999999
 21
0.0
 31
0.0
  0
LINE
  5
16F
330
166
100
AcDbEntity
  8
0
  6
Continuous
 62
     0
370
    18
100
AcDbLine
 10
0.0
 20
-5.000000000000004
 30
0.0
 11
0.0
 21
-8.199999999999985
 31
0.0
  0
LINE
  5
170
330
166
100
AcDbEntity
  8
0
  6
Continuous
 62
     0
370
    18
100
AcDbLine
 10
5.000000000000004
 20
0.0
 30
0.0
 11
8.199999999999999
 21
0.0
 31
0.0
  0
ENDBLK
  5
168
330
166
100
AcDbEntity
  8
0
100
AcDbBlockEnd
  0
BLOCK
  5
173
330
172
100
AcDbEntity
  8
0
100
AcDbBlockBegin
  2
SW_CENTERMARKSYMBOL_9
 70
     0
 10
0.0
 20
0.0
 30
0.0
  3
SW_CENTERMARKSYMBOL_9
  1

  0
LINE
  5
175
330
172
100
AcDbEntity
  8
0
  6
Continuous
 62
     0
370
    18
100
AcDbLine
 10
0.0
 20
0.0
 30
0.0
 11
0.0
 21
5.000000000000004
 31
0.0
  0
LINE
  5
176
330
172
100
AcDbEntity
  8
0
  6
Continuous
 62
     0
370
    18
100
AcDbLine
 10
0.0
 20
0.0
 30
0.0
 11
-5.000000000000004
 21
0.0
 31
0.0
  0
LINE
  5
177
330
172
100
AcDbEntity
  8
0
  6
Continuous
 62
     0
370
    18
100
AcDbLine
 10
0.0
 20
0.0
 30
0.0
 11
0.0
 21
-5.000000000000004
 31
0.0
  0
LINE
  5
178
330
172
100
AcDbEntity
  8
0
  6
Continuous
 62
     0
370
    18
100
AcDbLine
 10
0.0
 20
0.0
 30
0.0
 11
4.99999999999999
 21
0.0
 31
0.0
  0
LINE
  5
179
330
172
100
AcDbEntity
  8
0
  6
Continuous
 62
     0
370
    18
100
AcDbLine
 10
0.0
 20
5.000000000000004
 30
0.0
 11
0.0
 21
8.199999999999985
 31
0.0
  0
LINE
  5
17A
330
172
100
AcDbEntity
  8
0
  6
Continuous
 62
     0
370
    18
100
AcDbLine
 10
-5.000000000000004
 20
0.0
 30
0.0
 11
-8.199999999999999
 21
0.0
 31
0.0
  0
LINE
  5
17B
330
172
100
AcDbEntity
  8
0
  6
Continuous
 62
     0
370
    18
100
AcDbLine
 10
0.0
 20
-5.000000000000004
 30
0.0
 11
0.0
 21
-8.199999999999985
 31
0.0
  0
LINE
  5
17C
330
172
100
AcDbEntity
  8
0
  6
Continuous
 62
     0
370
    18
100
AcDbLine
 10
4.99999999999999
 20
0.0
 30
0.0
 11
8.199999999999999
 21
0.0
 31
0.0
  0
ENDBLK
  5
174
330
172
100
AcDbEntity
  8
0
100
AcDbBlockEnd
  0
BLOCK
  5
38F
330
38E
100
AcDbEntity
  8
0
100
AcDbBlockBegin
  2
*D15
 70
     1
 10
0.0
 20
0.0
 30
0.0
  3
*D15
  1

  0
LINE
  5
391
330
38E
100
AcDbEntity
  8
0
 62
     0
440
 16777216
370
    -2
100
AcDbLine
 10
147.4527289479089
 20
533.1650354742678
 30
0.0
 11
132.5120622812423
 21
533.1650354742678
 31
0.0
  0
LINE
  5
392
330
38E
100
AcDbEntity
  8
0
 62
     0
440
 16777216
370
    -2
100
AcDbLine
 10
132.5120622812423
 20
533.1650354742678
 30
0.0
 11
118.3185291551778
 21
537.1179364436135
 31
0.0
  0
LINE
  5
393
330
38E
100
AcDbEntity
  8
0
 62
     0
440
 16777216
370
    -2
100
AcDbLine
 10
94.6165551017197
 20
543.7189395468699
 30
0.0
 11
91.43561223370969
 21
544.6048325824313
 31
0.0
  0
MTEXT
  5
394
330
38E
100
AcDbEntity
  8
0
 62
     0
440
 16777216
100
AcDbMText
 10
140.7443956145756
 20
536.7307021409344
 30
0.0
 40
3.5
 41
0.0
 46
0.0
 71
     5
 72
     1
  1
∅9,00
 73
     1
 44
1.0
  0
LINE
  5
395
330
38E
100
AcDbEntity
  8
0
 62
     0
440
 16777216
370
    -2
100
AcDbLine
 10
97.79749796972973
 20
542.8330465113085
 30
0.0
 11
115.1375862871677
 21
538.0038294791749
 31
0.0
  0
SOLID
  5
396
330
38E
100
AcDbEntity
  8
0
 62
     0
440
 16777216
100
AcDbTrace
 10
94.76420394097994
 20
544.2490966915382
 30
0.0
 11
94.46890626245945
 21
543.1887824022015
 31
0.0
 12
97.79749796972973
 22
542.8330465113085
 32
0.0
 13
97.79749796972973
 23
542.8330465113085
 33
0.0
  0
SOLID
  5
397
330
38E
100
AcDbEntity
  8
0
 62
     0
440
 16777216
100
AcDbTrace
 10
118.466177994438
 20
537.6480935882819
 30
0.0
 11
118.1708803159175
 21
536.5877792989452
 31
0.0
 12
115.1375862871677
 22
538.0038294791749
 32
0.0
 13
115.1375862871677
 23
538.0038294791749
 33
0.0
  0
POINT
  5
398
330
38E
100
AcDbEntity
  8
Defpoints
 62
     0
440
 16777216
100
AcDbPoint
 10
115.1375862871677
 20
538.0038294791749
 30
0.0
  0
POINT
  5
399
330
38E
100
AcDbEntity
  8
Defpoints
 62
     0
440
 16777216
100
AcDbPoint
 10
97.79749796972973
 20
542.8330465113085
 30
0.0
  0
ENDBLK
  5
390
330
38E
100
AcDbEntity
  8
0
100
AcDbBlockEnd
  0
BLOCK
  5
3A5
330
3A4
100
AcDbEntity
  8
0
100
AcDbBlockBegin
  2
*D16
 70
     1
 10
0.0
 20
0.0
 30
0.0
  3
*D16
  1

  0
LINE
  5
3A7
330
3A4
100
AcDbEntity
  8
0
 62
     0
440
 16777216
370
    -2
100
AcDbLine
 10
107.4675421284488
 20
560.418437995242
 30
0.0
 11
129.7763072659869
 21
560.418437995242
 31
0.0
  0
LINE
  5
3A8
330
3A4
100
AcDbEntity
  8
0
 62
     0
440
 16777216
370
    -2
100
AcDbLine
 10
107.4675421284488
 20
540.4184379952418
 30
0.0
 11
129.7763072659869
 21
540.4184379952418
 31
0.0
  0
LINE
  5
3A9
330
3A4
100
AcDbEntity
  8
0
 62
     0
440
 16777216
370
    -2
100
AcDbLine
 10
128.7763072659869
 20
557.116437995242
 30
0.0
 11
128.7763072659869
 21
553.9841046619086
 31
0.0
  0
LINE
  5
3AA
330
3A4
100
AcDbEntity
  8
0
 62
     0
440
 16777216
370
    -2
100
AcDbLine
 10
128.7763072659869
 20
543.7204379952419
 30
0.0
 11
128.7763072659869
 21
546.8527713285753
 31
0.0
  0
SOLID
  5
3AB
330
3A4
100
AcDbEntity
  8
0
 62
     0
440
 16777216
100
AcDbTrace
 10
128.2259739326535
 20
557.116437995242
 30
0.0
 11
129.3266405993202
 21
557.116437995242
 31
0.0
 12
128.7763072659869
 22
560.418437995242
 32
0.0
 13
128.7763072659869
 23
560.418437995242
 33
0.0
  0
SOLID
  5
3AC
330
3A4
100
AcDbEntity
  8
0
 62
     0
440
 16777216
100
AcDbTrace
 10
128.2259739326535
 20
543.7204379952419
 30
0.0
 11
129.3266405993202
 21
543.7204379952419
 31
0.0
 12
128.7763072659869
 22
540.4184379952418
 32
0.0
 13
128.7763072659869
 23
540.4184379952418
 33
0.0
  0
MTEXT
  5
3AD
330
3A4
100
AcDbEntity
  8
0
 62
     0
440
 16777216
100
AcDbMText
 10
128.776307265987
 20
550.4184379952419
 30
0.0
 40
3.5
 41
0.0
 46
0.0
 71
     5
 72
     1
  1
10,00
 73
     1
 44
1.0
  0
POINT
  5
3AE
330
3A4
100
AcDbEntity
  8
Defpoints
 62
     0
440
 16777216
100
AcDbPoint
 10
106.4675421284488
 20
560.418437995242
 30
0.0
  0
POINT
  5
3AF
330
3A4
100
AcDbEntity
  8
Defpoints
 62
     0
440
 16777216
100
AcDbPoint
 10
106.4675421284487
 20
540.4184379952418
 30
0.0
  0
POINT
  5
3B0
330
3A4
100
AcDbEntity
  8
Defpoints
 62
     0
440
 16777216
100
AcDbPoint
 10
128.7763072659869
 20
540.4184379952418
 30
0.0
  0
ENDBLK
  5
3A6
330
3A4
100
AcDbEntity
  8
0
100
AcDbBlockEnd
  0
BLOCK
  5
3B3
330
3B2
100
AcDbEntity
  8
0
100
AcDbBlockBegin
  2
*D17
 70
     1
 10
0.0
 20
0.0
 30
0.0
  3
*D17
  1

  0
LINE
  5
3B5
330
3B2
100
AcDbEntity
  8
0
 62
     0
440
 16777216
370
    -2
100
AcDbLine
 10
136.4346558553449
 20
526.7275145060639
 30
0.0
 11
121.4939891886783
 21
526.7275145060639
 31
0.0
  0
LINE
  5
3B6
330
3B2
100
AcDbEntity
  8
0
 62
     0
440
 16777216
370
    -2
100
AcDbLine
 10
121.4939891886783
 20
526.7275145060639
 30
0.0
 11
115.5610870805121
 21
532.1331109525231
 31
0.0
  0
LINE
  5
3B7
330
3B2
100
AcDbEntity
  8
0
 62
     0
440
 16777216
370
    -2
100
AcDbLine
 10
97.37399717638528
 20
548.7037650379602
 30
0.0
 11
94.93318385889926
 21
550.9276432606115
 31
0.0
  0
MTEXT
  5
3B8
330
3B2
100
AcDbEntity
  8
0
 62
     0
440
 16777216
100
AcDbMText
 10
129.7263225220116
 20
530.2931811727305
 30
0.0
 40
3.5
 41
0.0
 46
0.0
 71
     5
 72
     1
  1
∅9,00
 73
     1
 44
1.0
  0
LINE
  5
3B9
330
3B2
100
AcDbEntity
  8
0
 62
     0
440
 16777216
370
    -2
100
AcDbLine
 10
99.81481049387134
 20
546.4798868153089
 30
0.0
 11
113.120273763026
 21
534.3569891751744
 31
0.0
  0
SOLID
  5
3BA
330
3B2
100
AcDbEntity
  8
0
 62
     0
440
 16777216
100
AcDbTrace
 10
97.7446435468272
 20
549.1105672575412
 30
0.0
 11
97.0033508059434
 21
548.2969628183791
 31
0.0
 12
99.81481049387134
 22
546.4798868153089
 32
0.0
 13
99.81481049387134
 23
546.4798868153089
 33
0.0
  0
SOLID
  5
3BB
330
3B2
100
AcDbEntity
  8
0
 62
     0
440
 16777216
100
AcDbTrace
 10
115.931733450954
 20
532.5399131721042
 30
0.0
 11
115.1904407100702
 21
531.7263087329421
 31
0.0
 12
113.120273763026
 22
534.3569891751744
 32
0.0
 13
113.120273763026
 23
534.3569891751744
 33
0.0
  0
POINT
  5
3BC
330
3B2
100
AcDbEntity
  8
Defpoints
 62
     0
440
 16777216
100
AcDbPoint
 10
113.120273763026
 20
534.3569891751744
 30
0.0
  0
POINT
  5
3BD
330
3B2
100
AcDbEntity
  8
Defpoints
 62
     0
440
 16777216
100
AcDbPoint
 10
99.81481049387134
 20
546.4798868153089
 30
0.0
  0
ENDBLK
  5
3B4
330
3B2
100
AcDbEntity
  8
0
100
AcDbBlockEnd
  0
BLOCK
  5
3C0
330
3BF
100
AcDbEntity
  8
0
100
AcDbBlockBegin
  2
*D18
 70
     1
 10
0.0
 20
0.0
 30
0.0
  3
*D18
  1

  0
LINE
  5
3C2
330
3BF
100
AcDbEntity
  8
0
 62
     0
440
 16777216
370
    -2
100
AcDbLine
 10
73.44812106999569
 20
552.562653741392
 30
0.0
 11
58.50745440332909
 21
552.562653741392
 31
0.0
  0
LINE
  5
3C3
330
3BF
100
AcDbEntity
  8
0
 62
     0
440
 16777216
370
    -2
100
AcDbLine
 10
58.50745440332909
 20
552.562653741392
 30
0.0
 11
54.42472155522963
 21
548.4445515983508
 31
0.0
  0
LINE
  5
3C4
330
3BF
100
AcDbEntity
  8
0
 62
     0
440
 16777216
370
    -2
100
AcDbLine
 10
38.51036270166745
 20
532.3923243921326
 30
0.0
 11
36.18558775323081
 21
530.0474095878974
 31
0.0
  0
MTEXT
  5
3C5
330
3BF
100
AcDbEntity
  8
0
 62
     0
440
 16777216
100
AcDbMText
 10
66.73978773666246
 20
556.1283204080587
 30
0.0
 40
3.5
 41
0.0
 46
0.0
 71
     5
 72
     1
  1
∅8,00
 73
     1
 44
1.0
  0
LINE
  5
3C6
330
3BF
100
AcDbEntity
  8
0
 62
     0
440
 16777216
370
    -2
100
AcDbLine
 10
40.83513765010414
 20
534.7372391963678
 30
0.0
 11
52.09994660679299
 21
546.0996367941155
 31
0.0
  0
SOLID
  5
3C7
330
3BF
100
AcDbEntity
  8
0
 62
     0
440
 16777216
100
AcDbTrace
 10
38.11954356762825
 20
532.7797868835387
 30
0.0
 11
38.90118183570667
 21
532.0048619007264
 31
0.0
 12
40.83513765010414
 22
534.7372391963678
 32
0.0
 13
40.83513765010414
 23
534.7372391963678
 33
0.0
  0
SOLID
  5
3C8
330
3BF
100
AcDbEntity
  8
0
 62
     0
440
 16777216
100
AcDbTrace
 10
54.03390242119044
 20
548.8320140897569
 30
0.0
 11
54.81554068926886
 21
548.0570891069446
 31
0.0
 12
52.09994660679299
 22
546.0996367941155
 32
0.0
 13
52.09994660679299
 23
546.0996367941155
 33
0.0
  0
POINT
  5
3C9
330
3BF
100
AcDbEntity
  8
Defpoints
 62
     0
440
 16777216
100
AcDbPoint
 10
52.09994660679299
 20
546.0996367941155
 30
0.0
  0
POINT
  5
3CA
330
3BF
100
AcDbEntity
  8
Defpoints
 62
     0
440
 16777216
100
AcDbPoint
 10
40.83513765010414
 20
534.7372391963678
 30
0.0
  0
ENDBLK
  5
3C1
330
3BF
100
AcDbEntity
  8
0
100
AcDbBlockEnd
  0
BLOCK
  5
3CD
330
3CC
100
AcDbEntity
  8
0
100
AcDbBlockBegin
  2
*D19
 70
     1
 10
0.0
 20
0.0
 30
0.0
  3
*D19
  1

  0
LINE
  5
3CF
330
3CC
100
AcDbEntity
  8
0
 62
     0
440
 16777216
370
    -2
100
AcDbLine
 10
64.71911436552938
 20
561.58447792568
 30
0.0
 11
49.77844769886269
 21
561.58447792568
 31
0.0
  0
LINE
  5
3D0
330
3CC
100
AcDbEntity
  8
0
 62
     0
440
 16777216
370
    -2
100
AcDbLine
 10
49.77844769886269
 20
561.58447792568
 30
0.0
 11
48.21972890624671
 21
568.8034490552793
 31
0.0
  0
LINE
  5
3D1
330
3CC
100
AcDbEntity
  8
0
 62
     0
440
 16777216
370
    -2
100
AcDbLine
 10
44.71535535065055
 20
585.0334269352039
 30
0.0
 11
44.01844849202741
 21
588.2610460004599
 31
0.0
  0
MTEXT
  5
3D2
330
3CC
100
AcDbEntity
  8
0
 62
     0
440
 16777216
100
AcDbMText
 10
58.01078103219601
 20
565.1501445923466
 30
0.0
 40
3.5
 41
0.0
 46
0.0
 71
     5
 72
     1
  1
∅5,00
 73
     1
 44
1.0
  0
LINE
  5
3D3
330
3CC
100
AcDbEntity
  8
0
 62
     0
440
 16777216
370
    -2
100
AcDbLine
 10
45.41226220927369
 20
581.8058078699478
 30
0.0
 11
47.52282204762358
 21
572.0310681205354
 31
0.0
  0
SOLID
  5
3D4
330
3CC
100
AcDbEntity
  8
0
 62
     0
440
 16777216
100
AcDbTrace
 10
45.25329186152655
 20
585.1495780783078
 30
0.0
 11
44.17741883977456
 21
584.9172757921
 31
0.0
 12
45.41226220927369
 22
581.8058078699478
 32
0.0
 13
45.41226220927369
 23
581.8058078699478
 33
0.0
  0
SOLID
  5
3D5
330
3CC
100
AcDbEntity
  8
0
 62
     0
440
 16777216
100
AcDbTrace
 10
48.75766541712271
 20
568.9196001983833
 30
0.0
 11
47.68179239537071
 21
568.6872979121756
 31
0.0
 12
47.52282204762358
 22
572.0310681205354
 32
0.0
 13
47.52282204762358
 23
572.0310681205354
 33
0.0
  0
POINT
  5
3D6
330
3CC
100
AcDbEntity
  8
Defpoints
 62
     0
440
 16777216
100
AcDbPoint
 10
47.52282204762358
 20
572.0310681205354
 30
0.0
  0
POINT
  5
3D7
330
3CC
100
AcDbEntity
  8
Defpoints
 62
     0
440
 16777216
100
AcDbPoint
 10
45.41226220927369
 20
581.8058078699478
 30
0.0
  0
ENDBLK
  5
3CE
330
3CC
100
AcDbEntity
  8
0
100
AcDbBlockEnd
  0
BLOCK
  5
3DA
330
3D9
100
AcDbEntity
  8
0
100
AcDbBlockBegin
  2
*D20
 70
     1
 10
0.0
 20
0.0
 30
0.0
  3
*D20
  1

  0
LINE
  5
3DC
330
3D9
100
AcDbEntity
  8
0
 62
     0
440
 16777216
370
    -2
100
AcDbLine
 10
78.34311654444613
 20
556.7399064149309
 30
0.0
 11
93.28378321111278
 21
556.7399064149309
 31
0.0
  0
LINE
  5
3DD
330
3D9
100
AcDbEntity
  8
0
 62
     0
440
 16777216
370
    -2
100
AcDbLine
 10
93.28378321111278
 20
556.7399064149309
 30
0.0
 11
100.3974007302909
 21
558.7247475257722
 31
0.0
  0
LINE
  5
3DE
330
3D9
100
AcDbEntity
  8
0
 62
     0
440
 16777216
370
    -2
100
AcDbLine
 10
112.5376835266065
 20
562.1121284647111
 30
0.0
 11
115.7181987434768
 21
562.9995556196124
 31
0.0
  0
MTEXT
  5
3DF
330
3D9
100
AcDbEntity
  8
0
 62
     0
440
 16777216
100
AcDbMText
 10
85.05144987777947
 20
560.3055730815976
 30
0.0
 40
3.5
 41
0.0
 46
0.0
 71
     5
 72
     1
  1
∅3,00
 73
     1
 44
1.0
  0
LINE
  5
3E0
330
3D9
100
AcDbEntity
  8
0
 62
     0
440
 16777216
370
    -2
100
AcDbLine
 10
109.3571683097361
 20
561.2247013098097
 30
0.0
 11
103.5779159471613
 21
559.6121746806735
 31
0.0
  0
SOLID
  5
3E1
330
3D9
100
AcDbEntity
  8
0
 62
     0
440
 16777216
100
AcDbTrace
 10
112.3897790007896
 20
562.6422143341896
 30
0.0
 11
112.6855880524234
 21
561.5820425952327
 31
0.0
 12
109.3571683097361
 22
561.2247013098097
 32
0.0
 13
109.3571683097361
 23
561.2247013098097
 33
0.0
  0
SOLID
  5
3E2
330
3D9
100
AcDbEntity
  8
0
 62
     0
440
 16777216
100
AcDbTrace
 10
100.2494962044741
 20
559.2548333952506
 30
0.0
 11
100.5453052561078
 21
558.1946616562938
 31
0.0
 12
103.5779159471613
 22
559.6121746806735
 32
0.0
 13
103.5779159471613
 23
559.6121746806735
 33
0.0
  0
POINT
  5
3E3
330
3D9
100
AcDbEntity
  8
Defpoints
 62
     0
440
 16777216
100
AcDbPoint
 10
103.5779159471613
 20
559.6121746806735
 30
0.0
  0
POINT
  5
3E4
330
3D9
100
AcDbEntity
  8
Defpoints
 62
     0
440
 16777216
100
AcDbPoint
 10
109.3571683097361
 20
561.2247013098097
 30
0.0
  0
ENDBLK
  5
3DB
330
3D9
100
AcDbEntity
  8
0
100
AcDbBlockEnd
  0
BLOCK
  5
3E7
330
3E6
100
AcDbEntity
  8
0
100
AcDbBlockBegin
  2
*D21
 70
     1
 10
0.0
 20
0.0
 30
0.0
  3
*D21
  1

  0
LINE
  5
3E9
330
3E6
100
AcDbEntity
  8
0
 62
     0
440
 16777216
370
    -2
100
AcDbLine
 10
106.4675421284487
 20
539.4184379952417
 30
0.0
 11
106.4675421284487
 21
511.1822791753172
 31
0.0
  0
LINE
  5
3EA
330
3E6
100
AcDbEntity
  8
0
 62
     0
440
 16777216
370
    -2
100
AcDbLine
 10
46.46754212844856
 20
539.4184379952417
 30
0.0
 11
46.46754212844856
 21
511.1822791753172
 31
0.0
  0
LINE
  5
3EB
330
3E6
100
AcDbEntity
  8
0
 62
     0
440
 16777216
370
    -2
100
AcDbLine
 10
103.1655421284487
 20
512.1822791753173
 30
0.0
 11
49.76954212844857
 21
512.1822791753173
 31
0.0
  0
SOLID
  5
3EC
330
3E6
100
AcDbEntity
  8
0
 62
     0
440
 16777216
100
AcDbTrace
 10
103.1655421284487
 20
512.7326125086506
 30
0.0
 11
103.1655421284487
 21
511.6319458419838
 31
0.0
 12
106.4675421284487
 22
512.1822791753173
 32
0.0
 13
106.4675421284487
 23
512.1822791753173
 33
0.0
  0
SOLID
  5
3ED
330
3E6
100
AcDbEntity
  8
0
 62
     0
440
 16777216
100
AcDbTrace
 10
49.76954212844857
 20
512.7326125086506
 30
0.0
 11
49.76954212844857
 21
511.6319458419838
 31
0.0
 12
46.46754212844856
 22
512.1822791753173
 32
0.0
 13
46.46754212844856
 23
512.1822791753173
 33
0.0
  0
MTEXT
  5
3EE
330
3E6
100
AcDbEntity
  8
0
 62
     0
440
 16777216
100
AcDbMText
 10
76.46754212844864
 20
515.7479458419839
 30
0.0
 40
3.5
 41
0.0
 46
0.0
 71
     5
 72
     1
  1
30,00
 73
     1
 44
1.0
  0
POINT
  5
3EF
330
3E6
100
AcDbEntity
  8
Defpoints
 62
     0
440
 16777216
100
AcDbPoint
 10
106.4675421284487
 20
540.4184379952416
 30
0.0
  0
POINT
  5
3F0
330
3E6
100
AcDbEntity
  8
Defpoints
 62
     0
440
 16777216
100
AcDbPoint
 10
46.46754212844856
 20
540.4184379952416
 30
0.0
  0
POINT
  5
3F1
330
3E6
100
AcDbEntity
  8
Defpoints
 62
     0
440
 16777216
100
AcDbPoint
 10
46.46754212844856
 20
512.1822791753173
 30
0.0
  0
ENDBLK
  5
3E8
330
3E6
100
AcDbEntity
  8
0
100
AcDbBlockEnd
  0
BLOCK
  5
3F4
330
3F3
100
AcDbEntity
  8
0
100
AcDbBlockBegin
  2
*D22
 70
     1
 10
0.0
 20
0.0
 30
0.0
  3
*D22
  1

  0
LINE
  5
3F6
330
3F3
100
AcDbEntity
  8
0
 62
     0
440
 16777216
370
    -2
100
AcDbLine
 10
161.6034101734973
 20
585.7571228829645
 30
0.0
 11
146.6627435068306
 21
585.7571228829645
 31
0.0
  0
LINE
  5
3F7
330
3F3
100
AcDbEntity
  8
0
 62
     0
440
 16777216
370
    -2
100
AcDbLine
 10
146.6627435068306
 20
585.7571228829645
 30
0.0
 11
144.5327398675743
 21
583.2339723728373
 31
0.0
  0
LINE
  5
3F8
330
3F3
100
AcDbEntity
  8
0
 62
     0
440
 16777216
370
    -2
100
AcDbLine
 10
136.4023443893229
 20
573.6029036176457
 30
0.0
 11
134.2723407500666
 21
571.0797531075185
 31
0.0
  0
MTEXT
  5
3F9
330
3F3
100
AcDbEntity
  8
0
 62
     0
440
 16777216
100
AcDbMText
 10
154.8950768401639
 20
589.3227895496311
 30
0.0
 40
3.5
 41
0.0
 46
0.0
 71
     5
 72
     1
  1
∅3,00
 73
     1
 44
1.0
  0
LINE
  5
3FA
330
3F3
100
AcDbEntity
  8
0
 62
     0
440
 16777216
370
    -2
100
AcDbLine
 10
138.5323480285792
 20
576.1260541277729
 30
0.0
 11
142.402736228318
 21
580.7108218627101
 31
0.0
  0
SOLID
  5
3FB
330
3F3
100
AcDbEntity
  8
0
 62
     0
440
 16777216
100
AcDbTrace
 10
135.9818193043017
 20
573.9579042241884
 30
0.0
 11
136.8228694743441
 21
573.2479030111029
 31
0.0
 12
138.5323480285792
 22
576.1260541277729
 32
0.0
 13
138.5323480285792
 23
576.1260541277729
 33
0.0
  0
SOLID
  5
3FC
330
3F3
100
AcDbEntity
  8
0
 62
     0
440
 16777216
100
AcDbTrace
 10
144.1122147825531
 20
583.58897297938
 30
0.0
 11
144.9532649525955
 21
582.8789717662945
 31
0.0
 12
142.402736228318
 22
580.7108218627101
 32
0.0
 13
142.402736228318
 23
580.7108218627101
 33
0.0
  0
POINT
  5
3FD
330
3F3
100
AcDbEntity
  8
Defpoints
 62
     0
440
 16777216
100
AcDbPoint
 10
142.402736228318
 20
580.7108218627101
 30
0.0
  0
POINT
  5
3FE
330
3F3
100
AcDbEntity
  8
Defpoints
 62
     0
440
 16777216
100
AcDbPoint
 10
138.5323480285792
 20
576.1260541277729
 30
0.0
  0
ENDBLK
  5
3F5
330
3F3
100
AcDbEntity
  8
0
100
AcDbBlockEnd
  0
BLOCK
  5
401
330
400
100
AcDbEntity
  8
0
100
AcDbBlockBegin
  2
*D23
 70
     1
 10
0.0
 20
0.0
 30
0.0
  3
*D23
  1

  0
LINE
  5
403
330
400
100
AcDbEntity
  8
0
 62
     0
440
 16777216
370
    -2
100
AcDbLine
 10
141.4675421284486
 20
578.4184379952417
 30
0.0
 11
166.4618071279028
 21
578.4184379952417
 31
0.0
  0
LINE
  5
404
330
400
100
AcDbEntity
  8
0
 62
     0
440
 16777216
370
    -2
100
AcDbLine
 10
141.4675421284486
 20
502.418437995242
 30
0.0
 11
166.4618071279029
 21
502.418437995242
 31
0.0
  0
LINE
  5
405
330
400
100
AcDbEntity
  8
0
 62
     0
440
 16777216
370
    -2
100
AcDbLine
 10
165.4618071279029
 20
575.1164379952418
 30
0.0
 11
165.4618071279029
 21
543.9841046619085
 31
0.0
  0
LINE
  5
406
330
400
100
AcDbEntity
  8
0
 62
     0
440
 16777216
370
    -2
100
AcDbLine
 10
165.4618071279029
 20
505.720437995242
 30
0.0
 11
165.4618071279029
 21
536.8527713285752
 31
0.0
  0
SOLID
  5
407
330
400
100
AcDbEntity
  8
0
 62
     0
440
 16777216
100
AcDbTrace
 10
164.9114737945695
 20
575.1164379952418
 30
0.0
 11
166.0121404612362
 21
575.1164379952418
 31
0.0
 12
165.4618071279028
 22
578.4184379952417
 32
0.0
 13
165.4618071279028
 23
578.4184379952417
 33
0.0
  0
SOLID
  5
408
330
400
100
AcDbEntity
  8
0
 62
     0
440
 16777216
100
AcDbTrace
 10
164.9114737945695
 20
505.720437995242
 30
0.0
 11
166.0121404612362
 21
505.720437995242
 31
0.0
 12
165.4618071279029
 22
502.418437995242
 32
0.0
 13
165.4618071279029
 23
502.418437995242
 33
0.0
  0
MTEXT
  5
409
330
400
100
AcDbEntity
  8
0
 62
     0
440
 16777216
100
AcDbMText
 10
165.461807127903
 20
540.4184379952417
 30
0.0
 40
3.5
 41
0.0
 46
0.0
 71
     5
 72
     1
  1
38,00
 73
     1
 44
1.0
  0
POINT
  5
40A
330
400
100
AcDbEntity
  8
Defpoints
 62
     0
440
 16777216
100
AcDbPoint
 10
140.4675421284486
 20
578.4184379952417
 30
0.0
  0
POINT
  5
40B
330
400
100
AcDbEntity
  8
Defpoints
 62
     0
440
 16777216
100
AcDbPoint
 10
140.4675421284486
 20
502.418437995242
 30
0.0
  0
POINT
  5
40C
330
400
100
AcDbEntity
  8
Defpoints
 62
     0
440
 16777216
100
AcDbPoint
 10
165.4618071279029
 20
502.418437995242
 30
0.0
  0
ENDBLK
  5
402
330
400
100
AcDbEntity
  8
0
100
AcDbBlockEnd
  0
BLOCK
  5
416
330
415
100
AcDbEntity
  8
0
100
AcDbBlockBegin
  2
*D24
 70
     1
 10
0.0
 20
0.0
 30
0.0
  3
*D24
  1

  0
LINE
  5
418
330
415
100
AcDbEntity
  8
0
 62
     0
440
 16777216
370
    -2
100
AcDbLine
 10
116.4675421284486
 20
579.4184379952415
 30
0.0
 11
116.4675421284486
 21
592.5363577581349
 31
0.0
  0
LINE
  5
419
330
415
100
AcDbEntity
  8
0
 62
     0
440
 16777216
370
    -2
100
AcDbLine
 10
140.4675421284486
 20
579.4184379952415
 30
0.0
 11
140.4675421284486
 21
592.5363577581349
 31
0.0
  0
LINE
  5
41A
330
415
100
AcDbEntity
  8
0
 62
     0
440
 16777216
370
    -2
100
AcDbLine
 10
119.7695421284486
 20
591.536357758135
 30
0.0
 11
137.1655421284486
 21
591.536357758135
 31
0.0
  0
SOLID
  5
41B
330
415
100
AcDbEntity
  8
0
 62
     0
440
 16777216
100
AcDbTrace
 10
119.7695421284486
 20
592.0866910914683
 30
0.0
 11
119.7695421284486
 21
590.9860244248015
 31
0.0
 12
116.4675421284486
 22
591.536357758135
 32
0.0
 13
116.4675421284486
 23
591.536357758135
 33
0.0
  0
SOLID
  5
41C
330
415
100
AcDbEntity
  8
0
 62
     0
440
 16777216
100
AcDbTrace
 10
137.1655421284486
 20
592.0866910914683
 30
0.0
 11
137.1655421284486
 21
590.9860244248015
 31
0.0
 12
140.4675421284486
 22
591.536357758135
 32
0.0
 13
140.4675421284486
 23
591.536357758135
 33
0.0
  0
MTEXT
  5
41D
330
415
100
AcDbEntity
  8
0
 62
     0
440
 16777216
100
AcDbMText
 10
128.4675421284486
 20
595.1020244248016
 30
0.0
 40
3.5
 41
0.0
 46
0.0
 71
     5
 72
     1
  1
12,00
 73
     1
 44
1.0
  0
POINT
  5
41E
330
415
100
AcDbEntity
  8
Defpoints
 62
     0
440
 16777216
100
AcDbPoint
 10
116.4675421284486
 20
578.4184379952415
 30
0.0
  0
POINT
  5
41F
330
415
100
AcDbEntity
  8
Defpoints
 62
     0
440
 16777216
100
AcDbPoint
 10
140.4675421284486
 20
578.4184379952415
 30
0.0
  0
POINT
  5
420
330
415
100
AcDbEntity
  8
Defpoints
 62
     0
440
 16777216
100
AcDbPoint
 10
140.4675421284486
 20
591.536357758135
 30
0.0
  0
ENDBLK
  5
417
330
415
100
AcDbEntity
  8
0
100
AcDbBlockEnd
  0
BLOCK
  5
51D
330
51C
100
AcDbEntity
  8
0
100
AcDbBlockBegin
  2
*D26
 70
     1
 10
0.0
 20
0.0
 30
0.0
  3
*D26
  1

  0
LINE
  5
51F
330
51C
100
AcDbEntity
  8
0
 62
     0
440
 16777216
370
    -2
100
AcDbLine
 10
285.0185633243178
 20
562.5066462675752
 30
0.0
 11
267.1612299909845
 21
562.5066462675752
 31
0.0
  0
LINE
  5
520
330
51C
100
AcDbEntity
  8
0
 62
     0
440
 16777216
370
    -2
100
AcDbLine
 10
267.1612299909845
 20
562.5066462675752
 30
0.0
 11
246.7719026983707
 21
552.5744259616166
 31
0.0
  0
LINE
  5
521
330
51C
100
AcDbEntity
  8
0
 62
     0
440
 16777216
370
    -2
100
AcDbLine
 10
208.1109647080146
 20
533.7415852384053
 30
0.0
 11
205.1424404487793
 21
532.2955327765867
 31
0.0
  0
MTEXT
  5
522
330
51C
100
AcDbEntity
  8
0
 62
     0
440
 16777216
100
AcDbMText
 10
276.8518966576511
 20
566.0723129342418
 30
0.0
 40
3.5
 41
0.0
 46
0.0
 71
     5
 72
     1
  1
∅18,20
 73
     1
 44
1.0
  0
LINE
  5
523
330
51C
100
AcDbEntity
  8
0
 62
     0
440
 16777216
370
    -2
100
AcDbLine
 10
211.0794889672499
 20
535.1876377002238
 30
0.0
 11
243.8033784391353
 21
551.128373499798
 31
0.0
  0
SOLID
  5
524
330
51C
100
AcDbEntity
  8
0
 62
     0
440
 16777216
100
AcDbTrace
 10
207.8699559643782
 20
534.2363392816111
 30
0.0
 11
208.351973451651
 21
533.2468311951993
 31
0.0
 12
211.0794889672499
 22
535.1876377002238
 32
0.0
 13
211.0794889672499
 23
535.1876377002238
 33
0.0
  0
SOLID
  5
525
330
51C
100
AcDbEntity
  8
0
 62
     0
440
 16777216
100
AcDbTrace
 10
246.5308939547342
 20
553.0691800048225
 30
0.0
 11
247.0129114420071
 21
552.0796719184106
 31
0.0
 12
243.8033784391353
 22
551.128373499798
 32
0.0
 13
243.8033784391353
 23
551.128373499798
 33
0.0
  0
POINT
  5
526
330
51C
100
AcDbEntity
  8
Defpoints
 62
     0
440
 16777216
100
AcDbPoint
 10
243.8033784391353
 20
551.128373499798
 30
0.0
  0
POINT
  5
527
330
51C
100
AcDbEntity
  8
Defpoints
 62
     0
440
 16777216
100
AcDbPoint
 10
211.0794889672499
 20
535.1876377002238
 30
0.0
  0
ENDBLK
  5
51E
330
51C
100
AcDbEntity
  8
0
100
AcDbBlockEnd
  0
BLOCK
  5
52B
330
52A
100
AcDbEntity
  8
0
100
AcDbBlockBegin
  2
*D27
 70
     1
 10
0.0
 20
0.0
 30
0.0
  3
*D27
  1

  0
LINE
  5
52D
330
52A
100
AcDbEntity
  8
0
 62
     0
440
 16777216
370
    -2
100
AcDbLine
 10
171.9006282374325
 20
577.6430074440821
 30
0.0
 11
189.1746282374325
 21
577.6430074440821
 31
0.0
  0
LINE
  5
52E
330
52A
100
AcDbEntity
  8
0
 62
     0
440
 16777216
370
    -2
100
AcDbLine
 10
189.1746282374325
 20
577.6430074440821
 30
0.0
 11
212.3598736084894
 21
556.7490963991284
 31
0.0
  0
LINE
  5
52F
330
52A
100
AcDbEntity
  8
0
 62
     0
440
 16777216
370
    -2
100
AcDbLine
 10
242.5229937978959
 20
529.5669148008935
 30
0.0
 11
244.9759201811443
 21
527.3564044167597
 31
0.0
  0
MTEXT
  5
530
330
52A
100
AcDbEntity
  8
0
 62
     0
440
 16777216
100
AcDbMText
 10
179.7756282374325
 20
581.2086741107487
 30
0.0
 40
3.5
 41
0.0
 46
0.0
 71
     5
 72
     1
  1
∅17,00
 73
     1
 44
1.0
  0
LINE
  5
531
330
52A
100
AcDbEntity
  8
0
 62
     0
440
 16777216
370
    -2
100
AcDbLine
 10
240.0700674146474
 20
531.7774251850273
 30
0.0
 11
214.8127999917379
 21
554.5385860149945
 31
0.0
  0
SOLID
  5
532
330
52A
100
AcDbEntity
  8
0
 62
     0
440
 16777216
100
AcDbTrace
 10
242.8914121952515
 20
529.9757358647682
 30
0.0
 11
242.1545754005403
 21
529.1580937370187
 31
0.0
 12
240.0700674146474
 22
531.7774251850273
 32
0.0
 13
240.0700674146474
 23
531.7774251850273
 33
0.0
  0
SOLID
  5
533
330
52A
100
AcDbEntity
  8
0
 62
     0
440
 16777216
100
AcDbTrace
 10
212.7282920058451
 20
557.1579174630032
 30
0.0
 11
211.9914552111338
 21
556.3402753352536
 31
0.0
 12
214.8127999917379
 22
554.5385860149945
 32
0.0
 13
214.8127999917379
 23
554.5385860149945
 33
0.0
  0
POINT
  5
534
330
52A
100
AcDbEntity
  8
Defpoints
 62
     0
440
 16777216
100
AcDbPoint
 10
214.8127999917379
 20
554.5385860149945
 30
0.0
  0
POINT
  5
535
330
52A
100
AcDbEntity
  8
Defpoints
 62
     0
440
 16777216
100
AcDbPoint
 10
240.0700674146474
 20
531.7774251850273
 30
0.0
  0
ENDBLK
  5
52C
330
52A
100
AcDbEntity
  8
0
100
AcDbBlockEnd
  0
BLOCK
  5
538
330
537
100
AcDbEntity
  8
0
100
AcDbBlockBegin
  2
*D28
 70
     1
 10
0.0
 20
0.0
 30
0.0
  3
*D28
  1

  0
LINE
  5
53A
330
537
100
AcDbEntity
  8
0
 62
     0
440
 16777216
370
    -2
100
AcDbLine
 10
198.7876689626789
 20
574.7768939882739
 30
0.0
 11
214.311668962679
 21
574.7768939882739
 31
0.0
  0
LINE
  5
53B
330
537
100
AcDbEntity
  8
0
 62
     0
440
 16777216
370
    -2
100
AcDbLine
 10
214.311668962679
 20
574.7768939882739
 30
0.0
 11
220.952747323382
 21
570.9232350836494
 31
0.0
  0
LINE
  5
53C
330
537
100
AcDbEntity
  8
0
 62
     0
440
 16777216
370
    -2
100
AcDbLine
 10
233.9301200830032
 20
563.3927761163723
 30
0.0
 11
236.7861108089608
 21
561.7355130192017
 31
0.0
  0
MTEXT
  5
53D
330
537
100
AcDbEntity
  8
0
 62
     0
440
 16777216
100
AcDbMText
 10
205.7876689626791
 20
578.3425606549406
 30
0.0
 40
3.5
 41
0.0
 46
0.0
 71
     5
 72
     1
  1
∅4,20
 73
     1
 44
1.0
  0
LINE
  5
53E
330
537
100
AcDbEntity
  8
0
 62
     0
440
 16777216
370
    -2
100
AcDbLine
 10
231.0741293570455
 20
565.0500392135429
 30
0.0
 11
223.8087380493397
 21
569.2659719864788
 31
0.0
  0
SOLID
  5
53F
330
537
100
AcDbEntity
  8
0
 62
     0
440
 16777216
100
AcDbTrace
 10
234.2063305991983
 20
563.8687745706987
 30
0.0
 11
233.653909566808
 21
562.9167776620461
 31
0.0
 12
231.0741293570455
 22
565.0500392135429
 32
0.0
 13
231.0741293570455
 23
565.0500392135429
 33
0.0
  0
SOLID
  5
540
330
537
100
AcDbEntity
  8
0
 62
     0
440
 16777216
100
AcDbTrace
 10
221.2289578395772
 20
571.3992335379757
 30
0.0
 11
220.6765368071869
 21
570.4472366293231
 31
0.0
 12
223.8087380493397
 22
569.2659719864788
 32
0.0
 13
223.8087380493397
 23
569.2659719864788
 33
0.0
  0
POINT
  5
541
330
537
100
AcDbEntity
  8
Defpoints
 62
     0
440
 16777216
100
AcDbPoint
 10
223.8087380493397
 20
569.2659719864788
 30
0.0
  0
POINT
  5
542
330
537
100
AcDbEntity
  8
Defpoints
 62
     0
440
 16777216
100
AcDbPoint
 10
231.0741293570455
 20
565.0500392135429
 30
0.0
  0
ENDBLK
  5
539
330
537
100
AcDbEntity
  8
0
100
AcDbBlockEnd
  0
BLOCK
  5
547
330
546
100
AcDbEntity
  8
0
100
AcDbBlockBegin
  2
*D29
 70
     1
 10
0.0
 20
0.0
 30
0.0
  3
*D29
  1

  0
LINE
  5
549
330
546
100
AcDbEntity
  8
0
 62
     0
440
 16777216
370
    -2
100
AcDbLine
 10
251.9211803776244
 20
571.7895030474307
 30
0.0
 11
236.9805137109577
 21
571.7895030474307
 31
0.0
  0
LINE
  5
54A
330
546
100
AcDbEntity
  8
0
 62
     0
440
 16777216
370
    -2
100
AcDbLine
 10
236.9805137109577
 20
571.7895030474307
 30
0.0
 11
234.0101212000524
 21
570.3472921297223
 31
0.0
  0
LINE
  5
54B
330
546
100
AcDbEntity
  8
0
 62
     0
440
 16777216
370
    -2
100
AcDbLine
 10
220.8727462063329
 20
563.9687190702995
 30
0.0
 11
217.9023536954275
 21
562.5265081525911
 31
0.0
  0
MTEXT
  5
54C
330
546
100
AcDbEntity
  8
0
 62
     0
440
 16777216
100
AcDbMText
 10
245.212847044291
 20
575.3551697140973
 30
0.0
 40
3.5
 41
0.0
 46
0.0
 71
     5
 72
     1
  1
∅4,00
 73
     1
 44
1.0
  0
LINE
  5
54D
330
546
100
AcDbEntity
  8
0
 62
     0
440
 16777216
370
    -2
100
AcDbLine
 10
223.8431387172382
 20
565.4109299880079
 30
0.0
 11
231.039728689147
 21
568.9050812120138
 31
0.0
  0
SOLID
  5
54E
330
546
100
AcDbEntity
  8
0
 62
     0
440
 16777216
100
AcDbTrace
 10
220.6323777200481
 20
564.4637844887837
 30
0.0
 11
221.1131146926176
 21
563.4736536518153
 31
0.0
 12
223.8431387172382
 22
565.4109299880079
 32
0.0
 13
223.8431387172382
 23
565.4109299880079
 33
0.0
  0
SOLID
  5
54F
330
546
100
AcDbEntity
  8
0
 62
     0
440
 16777216
100
AcDbTrace
 10
233.7697527137676
 20
570.8423575482065
 30
0.0
 11
234.2504896863371
 21
569.8522267112379
 31
0.0
 12
231.039728689147
 22
568.9050812120138
 32
0.0
 13
231.039728689147
 23
568.9050812120138
 33
0.0
  0
POINT
  5
550
330
546
100
AcDbEntity
  8
Defpoints
 62
     0
440
 16777216
100
AcDbPoint
 10
231.039728689147
 20
568.9050812120138
 30
0.0
  0
POINT
  5
551
330
546
100
AcDbEntity
  8
Defpoints
 62
     0
440
 16777216
100
AcDbPoint
 10
223.8431387172382
 20
565.4109299880079
 30
0.0
  0
ENDBLK
  5
548
330
546
100
AcDbEntity
  8
0
100
AcDbBlockEnd
  0
BLOCK
  5
557
330
556
100
AcDbEntity
  8
0
100
AcDbBlockBegin
  2
*D30
 70
     1
 10
0.0
 20
0.0
 30
0.0
  3
*D30
  1

  0
LINE
  5
559
330
556
100
AcDbEntity
  8
0
 62
     0
440
 16777216
370
    -2
100
AcDbLine
 10
334.6761393879433
 20
574.3148218028371
 30
0.0
 11
349.61680605461
 21
574.3148218028371
 31
0.0
  0
LINE
  5
55A
330
556
100
AcDbEntity
  8
0
 62
     0
440
 16777216
370
    -2
100
AcDbLine
 10
349.61680605461
 20
574.3148218028371
 30
0.0
 11
352.0533319406549
 21
572.0862470101427
 31
0.0
  0
LINE
  5
55B
330
556
100
AcDbEntity
  8
0
 62
     0
440
 16777216
370
    -2
100
AcDbLine
 10
362.8295354657304
 20
562.2297641898792
 30
0.0
 11
365.2660613517753
 21
560.0011893971847
 31
0.0
  0
MTEXT
  5
55C
330
556
100
AcDbEntity
  8
0
 62
     0
440
 16777216
100
AcDbMText
 10
341.3844727212768
 20
577.8804884695037
 30
0.0
 40
3.5
 41
0.0
 46
0.0
 71
     5
 72
     1
  1
∅4,00
 73
     1
 44
1.0
  0
LINE
  5
55D
330
556
100
AcDbEntity
  8
0
 62
     0
440
 16777216
370
    -2
100
AcDbLine
 10
360.3930095796855
 20
564.4583389825736
 30
0.0
 11
354.4898578266998
 21
569.8576722174482
 31
0.0
  0
SOLID
  5
55E
330
556
100
AcDbEntity
  8
0
 62
     0
440
 16777216
100
AcDbTrace
 10
363.2009645978461
 20
562.6358518375533
 30
0.0
 11
362.4581063336147
 21
561.823676542205
 31
0.0
 12
360.3930095796855
 22
564.4583389825736
 32
0.0
 13
360.3930095796855
 23
564.4583389825736
 33
0.0
  0
SOLID
  5
55F
330
556
100
AcDbEntity
  8
0
 62
     0
440
 16777216
100
AcDbTrace
 10
352.4247610727706
 20
572.4923346578168
 30
0.0
 11
351.6819028085391
 21
571.6801593624685
 31
0.0
 12
354.4898578266998
 22
569.8576722174482
 32
0.0
 13
354.4898578266998
 23
569.8576722174482
 33
0.0
  0
POINT
  5
560
330
556
100
AcDbEntity
  8
Defpoints
 62
     0
440
 16777216
100
AcDbPoint
 10
354.4898578266998
 20
569.8576722174482
 30
0.0
  0
POINT
  5
561
330
556
100
AcDbEntity
  8
Defpoints
 62
     0
440
 16777216
100
AcDbPoint
 10
360.3930095796855
 20
564.4583389825736
 30
0.0
  0
ENDBLK
  5
558
330
556
100
AcDbEntity
  8
0
100
AcDbBlockEnd
  0
BLOCK
  5
564
330
563
100
AcDbEntity
  8
0
100
AcDbBlockBegin
  2
*D31
 70
     1
 10
0.0
 20
0.0
 30
0.0
  3
*D31
  1

  0
LINE
  5
566
330
563
100
AcDbEntity
  8
0
 62
     0
440
 16777216
370
    -2
100
AcDbLine
 10
333.64628805817
 20
558.6300862085372
 30
0.0
 11
318.12228805817
 21
558.6300862085372
 31
0.0
  0
LINE
  5
567
330
563
100
AcDbEntity
  8
0
 62
     0
440
 16777216
370
    -2
100
AcDbLine
 10
318.12228805817
 20
558.6300862085372
 30
0.0
 11
314.8093182228085
 21
567.1025017479965
 31
0.0
  0
LINE
  5
568
330
563
100
AcDbEntity
  8
0
 62
     0
440
 16777216
370
    -2
100
AcDbLine
 10
310.0735491835767
 20
579.2135094520253
 30
0.0
 11
308.8710338523291
 21
582.2887591781639
 31
0.0
  0
MTEXT
  5
569
330
563
100
AcDbEntity
  8
0
 62
     0
440
 16777216
100
AcDbMText
 10
326.6462880581701
 20
562.1957528752038
 30
0.0
 40
3.5
 41
0.0
 46
0.0
 71
     5
 72
     1
  1
∅3,20
 73
     1
 44
1.0
  0
LINE
  5
56A
330
563
100
AcDbEntity
  8
0
 62
     0
440
 16777216
370
    -2
100
AcDbLine
 10
311.2760645148243
 20
576.138259725887
 30
0.0
 11
313.606802891561
 21
570.1777514741349
 31
0.0
  0
SOLID
  5
56B
330
563
100
AcDbEntity
  8
0
 62
     0
440
 16777216
100
AcDbTrace
 10
310.5860908045997
 20
579.4139286739
 30
0.0
 11
309.5610075625535
 21
579.0130902301508
 31
0.0
 12
311.2760645148243
 22
576.138259725887
 32
0.0
 13
311.2760645148243
 23
576.138259725887
 33
0.0
  0
SOLID
  5
56C
330
563
100
AcDbEntity
  8
0
 62
     0
440
 16777216
100
AcDbTrace
 10
315.3218598438316
 20
567.3029209698711
 30
0.0
 11
314.2967766017855
 21
566.9020825261218
 31
0.0
 12
313.606802891561
 22
570.1777514741349
 32
0.0
 13
313.606802891561
 23
570.1777514741349
 33
0.0
  0
POINT
  5
56D
330
563
100
AcDbEntity
  8
Defpoints
 62
     0
440
 16777216
100
AcDbPoint
 10
313.606802891561
 20
570.1777514741349
 30
0.0
  0
POINT
  5
56E
330
563
100
AcDbEntity
  8
Defpoints
 62
     0
440
 16777216
100
AcDbPoint
 10
311.2760645148243
 20
576.138259725887
 30
0.0
  0
ENDBLK
  5
565
330
563
100
AcDbEntity
  8
0
100
AcDbBlockEnd
  0
BLOCK
  5
571
330
570
100
AcDbEntity
  8
0
100
AcDbBlockBegin
  2
*D32
 70
     1
 10
0.0
 20
0.0
 30
0.0
  3
*D32
  1

  0
LINE
  5
573
330
570
100
AcDbEntity
  8
0
 62
     0
440
 16777216
370
    -2
100
AcDbLine
 10
425.1583695917751
 20
561.2786242855714
 30
0.0
 11
409.6343695917751
 21
561.2786242855715
 31
0.0
  0
LINE
  5
574
330
570
100
AcDbEntity
  8
0
 62
     0
440
 16777216
370
    -2
100
AcDbLine
 10
409.6343695917751
 20
561.2786242855715
 30
0.0
 11
405.8091406649968
 21
567.5961215829341
 31
0.0
  0
LINE
  5
575
330
570
100
AcDbEntity
  8
0
 62
     0
440
 16777216
370
    -2
100
AcDbLine
 10
399.0737267413883
 20
578.7198896170878
 30
0.0
 11
397.3634578413763
 21
581.544457599922
 31
0.0
  0
MTEXT
  5
576
330
570
100
AcDbEntity
  8
0
 62
     0
440
 16777216
100
AcDbMText
 10
418.1583695917752
 20
564.8442909522381
 30
0.0
 40
3.5
 41
0.0
 46
0.0
 71
     5
 72
     1
  1
∅3,20
 73
     1
 44
1.0
  0
LINE
  5
577
330
570
100
AcDbEntity
  8
0
 62
     0
440
 16777216
370
    -2
100
AcDbLine
 10
400.7839956414002
 20
575.8953216342535
 30
0.0
 11
404.0988717649849
 21
570.4206895657683
 31
0.0
  0
SOLID
  5
578
330
570
100
AcDbEntity
  8
0
 62
     0
440
 16777216
100
AcDbTrace
 10
399.5444880718608
 20
579.0049344337565
 30
0.0
 11
398.602965410916
 21
578.4348448004191
 31
0.0
 12
400.7839956414002
 22
575.8953216342535
 32
0.0
 13
400.7839956414002
 23
575.8953216342535
 33
0.0
  0
SOLID
  5
579
330
570
100
AcDbEntity
  8
0
 62
     0
440
 16777216
100
AcDbTrace
 10
406.2799019954693
 20
567.8811663996027
 30
0.0
 11
405.3383793345245
 21
567.3110767662653
 31
0.0
 12
404.0988717649849
 22
570.4206895657683
 32
0.0
 13
404.0988717649849
 23
570.4206895657683
 33
0.0
  0
POINT
  5
57A
330
570
100
AcDbEntity
  8
Defpoints
 62
     0
440
 16777216
100
AcDbPoint
 10
404.0988717649849
 20
570.4206895657683
 30
0.0
  0
POINT
  5
57B
330
570
100
AcDbEntity
  8
Defpoints
 62
     0
440
 16777216
100
AcDbPoint
 10
400.7839956414002
 20
575.8953216342535
 30
0.0
  0
ENDBLK
  5
572
330
570
100
AcDbEntity
  8
0
100
AcDbBlockEnd
  0
BLOCK
  5
57E
330
57D
100
AcDbEntity
  8
0
100
AcDbBlockBegin
  2
*D33
 70
     1
 10
0.0
 20
0.0
 30
0.0
  3
*D33
  1

  0
LINE
  5
580
330
57D
100
AcDbEntity
  8
0
 62
     0
440
 16777216
370
    -2
100
AcDbLine
 10
450.3815464887979
 20
517.6631880764728
 30
0.0
 11
436.0242131554645
 21
517.6631880764728
 31
0.0
  0
LINE
  5
581
330
57D
100
AcDbEntity
  8
0
 62
     0
440
 16777216
370
    -2
100
AcDbLine
 10
436.0242131554645
 20
517.6631880764728
 30
0.0
 11
429.306635908385
 21
514.7241324659715
 31
0.0
  0
LINE
  5
582
330
57D
100
AcDbEntity
  8
0
 62
     0
440
 16777216
370
    -2
100
AcDbLine
 10
417.5762314979998
 20
509.5918787340503
 30
0.0
 11
414.5510990891359
 21
508.2683312627286
 31
0.0
  0
MTEXT
  5
583
330
57D
100
AcDbEntity
  8
0
 62
     0
440
 16777216
100
AcDbMText
 10
443.9648798221313
 20
521.2288547431394
 30
0.0
 40
3.5
 41
0.0
 46
0.0
 71
     5
 72
     1
  1
∅3,10
 73
     1
 44
1.0
  0
LINE
  5
584
330
57D
100
AcDbEntity
  8
0
 62
     0
440
 16777216
370
    -2
100
AcDbLine
 10
420.6013639068635
 20
510.9154262053721
 30
0.0
 11
426.2815034995211
 21
513.4005849946497
 31
0.0
  0
SOLID
  5
585
330
57D
100
AcDbEntity
  8
0
 62
     0
440
 16777216
100
AcDbTrace
 10
417.3556402527794
 20
510.096067468861
 30
0.0
 11
417.79682274322
 21
509.0876899992397
 31
0.0
 12
420.6013639068635
 22
510.9154262053721
 32
0.0
 13
420.6013639068635
 23
510.9154262053721
 33
0.0
  0
SOLID
  5
586
330
57D
100
AcDbEntity
  8
0
 62
     0
440
 16777216
100
AcDbTrace
 10
429.0860446631646
 20
515.2283212007821
 30
0.0
 11
429.5272271536052
 21
514.2199437311608
 31
0.0
 12
426.2815034995211
 22
513.4005849946497
 32
0.0
 13
426.2815034995211
 23
513.4005849946497
 33
0.0
  0
POINT
  5
587
330
57D
100
AcDbEntity
  8
Defpoints
 62
     0
440
 16777216
100
AcDbPoint
 10
426.2815034995211
 20
513.4005849946497
 30
0.0
  0
POINT
  5
588
330
57D
100
AcDbEntity
  8
Defpoints
 62
     0
440
 16777216
100
AcDbPoint
 10
420.6013639068635
 20
510.9154262053721
 30
0.0
  0
ENDBLK
  5
57F
330
57D
100
AcDbEntity
  8
0
100
AcDbBlockEnd
  0
BLOCK
  5
58B
330
58A
100
AcDbEntity
  8
0
100
AcDbBlockBegin
  2
*D34
 70
     1
 10
0.0
 20
0.0
 30
0.0
  3
*D34
  1

  0
LINE
  5
58D
330
58A
100
AcDbEntity
  8
0
 62
     0
440
 16777216
370
    -2
100
AcDbLine
 10
483.7696264419902
 20
566.2793483425835
 30
0.0
 11
498.1269597753234
 21
566.2793483425835
 31
0.0
  0
LINE
  5
58E
330
58A
100
AcDbEntity
  8
0
 62
     0
440
 16777216
370
    -2
100
AcDbLine
 10
498.1269597753234
 20
566.2793483425835
 30
0.0
 11
504.1876793813838
 21
570.4996358092331
 31
0.0
  0
LINE
  5
58F
330
58A
100
AcDbEntity
  8
0
 62
     0
440
 16777216
370
    -2
100
AcDbLine
 10
514.6951880250013
 20
577.8163753907886
 30
0.0
 11
517.4049500947627
 21
579.7032758983094
 31
0.0
  0
MTEXT
  5
590
330
58A
100
AcDbEntity
  8
0
 62
     0
440
 16777216
100
AcDbMText
 10
490.1862931086568
 20
569.8450150092501
 30
0.0
 40
3.5
 41
0.0
 46
0.0
 71
     5
 72
     1
  1
∅3,10
 73
     1
 44
1.0
  0
LINE
  5
591
330
58A
100
AcDbEntity
  8
0
 62
     0
440
 16777216
370
    -2
100
AcDbLine
 10
511.9854259552398
 20
575.9294748832679
 30
0.0
 11
506.8974414511452
 21
572.386536316754
 31
0.0
  0
SOLID
  5
592
330
58A
100
AcDbEntity
  8
0
 62
     0
440
 16777216
100
AcDbTrace
 10
514.3807046070812
 20
578.2680024024155
 30
0.0
 11
515.0096714429214
 21
577.3647483791616
 31
0.0
 12
511.9854259552398
 22
575.9294748832679
 32
0.0
 13
511.9854259552398
 23
575.9294748832679
 33
0.0
  0
SOLID
  5
593
330
58A
100
AcDbEntity
  8
0
 62
     0
440
 16777216
100
AcDbTrace
 10
503.8731959634637
 20
570.95126282086
 30
0.0
 11
504.5021627993039
 21
570.0480087976062
 31
0.0
 12
506.8974414511452
 22
572.386536316754
 32
0.0
 13
506.8974414511452
 23
572.386536316754
 33
0.0
  0
POINT
  5
594
330
58A
100
AcDbEntity
  8
Defpoints
 62
     0
440
 16777216
100
AcDbPoint
 10
506.8974414511452
 20
572.386536316754
 30
0.0
  0
POINT
  5
595
330
58A
100
AcDbEntity
  8
Defpoints
 62
     0
440
 16777216
100
AcDbPoint
 10
511.9854259552398
 20
575.9294748832679
 30
0.0
  0
ENDBLK
  5
58C
330
58A
100
AcDbEntity
  8
0
100
AcDbBlockEnd
  0
BLOCK
  5
5A0
330
59F
100
AcDbEntity
  8
0
100
AcDbBlockBegin
  2
*D35
 70
     1
 10
0.0
 20
0.0
 30
0.0
  3
*D35
  1

  0
LINE
  5
5A2
330
59F
100
AcDbEntity
  8
0
 62
     0
440
 16777216
370
    -2
100
AcDbLine
 10
245.4784834502644
 20
576.1580056000109
 30
0.0
 11
245.4784834502644
 21
587.7453692701565
 31
0.0
  0
LINE
  5
5A3
330
59F
100
AcDbEntity
  8
0
 62
     0
440
 16777216
370
    -2
100
AcDbLine
 10
261.4784834502644
 20
576.1580056000109
 30
0.0
 11
261.4784834502644
 21
587.7453692701565
 31
0.0
  0
LINE
  5
5A4
330
59F
100
AcDbEntity
  8
0
 62
     0
440
 16777216
370
    -2
100
AcDbLine
 10
248.7804834502644
 20
586.7453692701565
 30
0.0
 11
258.1764834502644
 21
586.7453692701565
 31
0.0
  0
SOLID
  5
5A5
330
59F
100
AcDbEntity
  8
0
 62
     0
440
 16777216
100
AcDbTrace
 10
248.7804834502644
 20
587.2957026034899
 30
0.0
 11
248.7804834502644
 21
586.1950359368231
 31
0.0
 12
245.4784834502644
 22
586.7453692701565
 32
0.0
 13
245.4784834502644
 23
586.7453692701565
 33
0.0
  0
SOLID
  5
5A6
330
59F
100
AcDbEntity
  8
0
 62
     0
440
 16777216
100
AcDbTrace
 10
258.1764834502644
 20
587.2957026034899
 30
0.0
 11
258.1764834502644
 21
586.1950359368231
 31
0.0
 12
261.4784834502644
 22
586.7453692701565
 32
0.0
 13
261.4784834502644
 23
586.7453692701565
 33
0.0
  0
MTEXT
  5
5A7
330
59F
100
AcDbEntity
  8
0
 62
     0
440
 16777216
100
AcDbMText
 10
253.4784834502644
 20
590.3110359368231
 30
0.0
 40
3.5
 41
0.0
 46
0.0
 71
     5
 72
     1
  1
8,00
 73
     1
 44
1.0
  0
POINT
  5
5A8
330
59F
100
AcDbEntity
  8
Defpoints
 62
     0
440
 16777216
100
AcDbPoint
 10
245.4784834502644
 20
575.1580056000109
 30
0.0
  0
POINT
  5
5A9
330
59F
100
AcDbEntity
  8
Defpoints
 62
     0
440
 16777216
100
AcDbPoint
 10
261.4784834502644
 20
575.1580056000109
 30
0.0
  0
POINT
  5
5AA
330
59F
100
AcDbEntity
  8
Defpoints
 62
     0
440
 16777216
100
AcDbPoint
 10
261.4784834502644
 20
586.7453692701565
 30
0.0
  0
ENDBLK
  5
5A1
330
59F
100
AcDbEntity
  8
0
100
AcDbBlockEnd
  0
BLOCK
  5
5AD
330
5AC
100
AcDbEntity
  8
0
100
AcDbBlockBegin
  2
*D36
 70
     1
 10
0.0
 20
0.0
 30
0.0
  3
*D36
  1

  0
LINE
  5
5AF
330
5AC
100
AcDbEntity
  8
0
 62
     0
440
 16777216
370
    -2
100
AcDbLine
 10
254.4784834502646
 20
578.1580056000112
 30
0.0
 11
268.0199388299876
 21
578.1580056000112
 31
0.0
  0
LINE
  5
5B0
330
5AC
100
AcDbEntity
  8
0
 62
     0
440
 16777216
370
    -2
100
AcDbLine
 10
254.4784834502646
 20
572.1580056000111
 30
0.0
 11
268.0199388299876
 21
572.1580056000113
 31
0.0
  0
LINE
  5
5B1
330
5AC
100
AcDbEntity
  8
0
 62
     0
440
 16777216
370
    -2
100
AcDbLine
 10
267.0199388299876
 20
581.4600056000113
 30
0.0
 11
267.0199388299876
 21
584.7620056000113
 31
0.0
  0
LINE
  5
5B2
330
5AC
100
AcDbEntity
  8
0
 62
     0
440
 16777216
370
    -2
100
AcDbLine
 10
267.0199388299876
 20
568.8560056000112
 30
0.0
 11
267.0199388299876
 21
565.5540056000112
 31
0.0
  0
LINE
  5
5B3
330
5AC
100
AcDbEntity
  8
0
 62
     0
440
 16777216
370
    -2
100
AcDbLine
 10
267.0199388299876
 20
565.5540056000112
 30
0.0
 11
255.5792721633209
 21
565.5540056000111
 31
0.0
  0
LINE
  5
5B4
330
5AC
100
AcDbEntity
  8
0
 62
     0
440
 16777216
370
    -2
100
AcDbLine
 10
267.0199388299876
 20
578.1580056000112
 30
0.0
 11
267.0199388299876
 21
572.1580056000113
 31
0.0
  0
SOLID
  5
5B5
330
5AC
100
AcDbEntity
  8
0
 62
     0
440
 16777216
100
AcDbTrace
 10
266.4696054966543
 20
581.4600056000113
 30
0.0
 11
267.570272163321
 21
581.4600056000113
 31
0.0
 12
267.0199388299876
 22
578.1580056000112
 32
0.0
 13
267.0199388299876
 23
578.1580056000112
 33
0.0
  0
SOLID
  5
5B6
330
5AC
100
AcDbEntity
  8
0
 62
     0
440
 16777216
100
AcDbTrace
 10
266.4696054966543
 20
568.8560056000112
 30
0.0
 11
267.570272163321
 21
568.8560056000112
 31
0.0
 12
267.0199388299876
 22
572.1580056000113
 32
0.0
 13
267.0199388299876
 23
572.1580056000113
 33
0.0
  0
MTEXT
  5
5B7
330
5AC
100
AcDbEntity
  8
0
 62
     0
440
 16777216
100
AcDbMText
 10
260.5376054966544
 20
569.1196722666776
 30
0.0
 40
3.5
 41
0.0
 46
0.0
 71
     5
 72
     1
  1
3,00
 73
     1
 44
1.0
  0
POINT
  5
5B8
330
5AC
100
AcDbEntity
  8
Defpoints
 62
     0
440
 16777216
100
AcDbPoint
 10
253.4784834502645
 20
578.1580056000112
 30
0.0
  0
POINT
  5
5B9
330
5AC
100
AcDbEntity
  8
Defpoints
 62
     0
440
 16777216
100
AcDbPoint
 10
253.4784834502645
 20
572.1580056000111
 30
0.0
  0
POINT
  5
5BA
330
5AC
100
AcDbEntity
  8
Defpoints
 62
     0
440
 16777216
100
AcDbPoint
 10
267.0199388299876
 20
572.1580056000113
 30
0.0
  0
ENDBLK
  5
5AE
330
5AC
100
AcDbEntity
  8
0
100
AcDbBlockEnd
  0
BLOCK
  5
5BD
330
5BC
100
AcDbEntity
  8
0
100
AcDbBlockBegin
  2
*D37
 70
     1
 10
0.0
 20
0.0
 30
0.0
  3
*D37
  1

  0
LINE
  5
5BF
330
5BC
100
AcDbEntity
  8
0
 62
     0
440
 16777216
370
    -2
100
AcDbLine
 10
312.4414337031926
 20
574.1580056000109
 30
0.0
 11
312.4414337031926
 21
592.5339445017291
 31
0.0
  0
LINE
  5
5C0
330
5BC
100
AcDbEntity
  8
0
 62
     0
440
 16777216
370
    -2
100
AcDbLine
 10
402.4414337031926
 20
574.1580056000109
 30
0.0
 11
402.4414337031926
 21
592.5339445017291
 31
0.0
  0
LINE
  5
5C1
330
5BC
100
AcDbEntity
  8
0
 62
     0
440
 16777216
370
    -2
100
AcDbLine
 10
315.7434337031926
 20
591.5339445017291
 30
0.0
 11
399.1394337031926
 21
591.5339445017291
 31
0.0
  0
SOLID
  5
5C2
330
5BC
100
AcDbEntity
  8
0
 62
     0
440
 16777216
100
AcDbTrace
 10
315.7434337031926
 20
592.0842778350625
 30
0.0
 11
315.7434337031926
 21
590.9836111683957
 31
0.0
 12
312.4414337031926
 22
591.5339445017291
 32
0.0
 13
312.4414337031926
 23
591.5339445017291
 33
0.0
  0
SOLID
  5
5C3
330
5BC
100
AcDbEntity
  8
0
 62
     0
440
 16777216
100
AcDbTrace
 10
399.1394337031926
 20
592.0842778350625
 30
0.0
 11
399.1394337031926
 21
590.9836111683957
 31
0.0
 12
402.4414337031926
 22
591.5339445017291
 32
0.0
 13
402.4414337031926
 23
591.5339445017291
 33
0.0
  0
MTEXT
  5
5C4
330
5BC
100
AcDbEntity
  8
0
 62
     0
440
 16777216
100
AcDbMText
 10
357.4414337031926
 20
595.0996111683958
 30
0.0
 40
3.5
 41
0.0
 46
0.0
 71
     5
 72
     1
  1
45,00
 73
     1
 44
1.0
  0
POINT
  5
5C5
330
5BC
100
AcDbEntity
  8
Defpoints
 62
     0
440
 16777216
100
AcDbPoint
 10
312.4414337031926
 20
573.1580056000109
 30
0.0
  0
POINT
  5
5C6
330
5BC
100
AcDbEntity
  8
Defpoints
 62
     0
440
 16777216
100
AcDbPoint
 10
402.4414337031926
 20
573.1580056000109
 30
0.0
  0
POINT
  5
5C7
330
5BC
100
AcDbEntity
  8
Defpoints
 62
     0
440
 16777216
100
AcDbPoint
 10
402.4414337031926
 20
591.5339445017291
 30
0.0
  0
ENDBLK
  5
5BE
330
5BC
100
AcDbEntity
  8
0
100
AcDbBlockEnd
  0
BLOCK
  5
5CA
330
5C9
100
AcDbEntity
  8
0
100
AcDbBlockBegin
  2
*D38
 70
     1
 10
0.0
 20
0.0
 30
0.0
  3
*D38
  1

  0
LINE
  5
5CC
330
5C9
100
AcDbEntity
  8
0
 62
     0
440
 16777216
370
    -2
100
AcDbLine
 10
423.4414337031924
 20
575.1580056000109
 30
0.0
 11
423.4414337031924
 21
592.7360098838931
 31
0.0
  0
LINE
  5
5CD
330
5C9
100
AcDbEntity
  8
0
 62
     0
440
 16777216
370
    -2
100
AcDbLine
 10
509.4414337031926
 20
575.1580056000109
 30
0.0
 11
509.4414337031926
 21
592.7360098838931
 31
0.0
  0
LINE
  5
5CE
330
5C9
100
AcDbEntity
  8
0
 62
     0
440
 16777216
370
    -2
100
AcDbLine
 10
426.7434337031923
 20
591.7360098838931
 30
0.0
 11
506.1394337031925
 21
591.7360098838931
 31
0.0
  0
SOLID
  5
5CF
330
5C9
100
AcDbEntity
  8
0
 62
     0
440
 16777216
100
AcDbTrace
 10
426.7434337031923
 20
592.2863432172264
 30
0.0
 11
426.7434337031923
 21
591.1856765505596
 31
0.0
 12
423.4414337031924
 22
591.7360098838931
 32
0.0
 13
423.4414337031924
 23
591.7360098838931
 33
0.0
  0
SOLID
  5
5D0
330
5C9
100
AcDbEntity
  8
0
 62
     0
440
 16777216
100
AcDbTrace
 10
506.1394337031925
 20
592.2863432172264
 30
0.0
 11
506.1394337031925
 21
591.1856765505596
 31
0.0
 12
509.4414337031926
 22
591.7360098838931
 32
0.0
 13
509.4414337031926
 23
591.7360098838931
 33
0.0
  0
MTEXT
  5
5D1
330
5C9
100
AcDbEntity
  8
0
 62
     0
440
 16777216
100
AcDbMText
 10
466.4414337031924
 20
595.3016765505597
 30
0.0
 40
3.5
 41
0.0
 46
0.0
 71
     5
 72
     1
  1
43,00
 73
     1
 44
1.0
  0
POINT
  5
5D2
330
5C9
100
AcDbEntity
  8
Defpoints
 62
     0
440
 16777216
100
AcDbPoint
 10
423.4414337031924
 20
574.1580056000109
 30
0.0
  0
POINT
  5
5D3
330
5C9
100
AcDbEntity
  8
Defpoints
 62
     0
440
 16777216
100
AcDbPoint
 10
509.4414337031926
 20
574.1580056000109
 30
0.0
  0
POINT
  5
5D4
330
5C9
100
AcDbEntity
  8
Defpoints
 62
     0
440
 16777216
100
AcDbPoint
 10
509.4414337031926
 20
591.7360098838931
 30
0.0
  0
ENDBLK
  5
5CB
330
5C9
100
AcDbEntity
  8
0
100
AcDbBlockEnd
  0
BLOCK
  5
5D7
330
5D6
100
AcDbEntity
  8
0
100
AcDbBlockBegin
  2
*D39
 70
     1
 10
0.0
 20
0.0
 30
0.0
  3
*D39
  1

  0
LINE
  5
5D9
330
5D6
100
AcDbEntity
  8
0
 62
     0
440
 16777216
370
    -2
100
AcDbLine
 10
510.4414337031928
 20
574.1580056000112
 30
0.0
 11
529.9061917367541
 21
574.1580056000112
 31
0.0
  0
LINE
  5
5DA
330
5D6
100
AcDbEntity
  8
0
 62
     0
440
 16777216
370
    -2
100
AcDbLine
 10
510.4414337031928
 20
512.1580056000111
 30
0.0
 11
529.9061917367541
 21
512.1580056000111
 31
0.0
  0
LINE
  5
5DB
330
5D6
100
AcDbEntity
  8
0
 62
     0
440
 16777216
370
    -2
100
AcDbLine
 10
528.9061917367542
 20
570.8560056000111
 30
0.0
 11
528.9061917367542
 21
546.7236722666777
 31
0.0
  0
LINE
  5
5DC
330
5D6
100
AcDbEntity
  8
0
 62
     0
440
 16777216
370
    -2
100
AcDbLine
 10
528.9061917367542
 20
515.4600056000112
 30
0.0
 11
528.9061917367542
 21
539.5923389333445
 31
0.0
  0
SOLID
  5
5DD
330
5D6
100
AcDbEntity
  8
0
 62
     0
440
 16777216
100
AcDbTrace
 10
528.3558584034208
 20
570.8560056000111
 30
0.0
 11
529.4565250700875
 21
570.8560056000111
 31
0.0
 12
528.9061917367542
 22
574.1580056000112
 32
0.0
 13
528.9061917367542
 23
574.1580056000112
 33
0.0
  0
SOLID
  5
5DE
330
5D6
100
AcDbEntity
  8
0
 62
     0
440
 16777216
100
AcDbTrace
 10
528.3558584034208
 20
515.4600056000112
 30
0.0
 11
529.4565250700875
 21
515.4600056000112
 31
0.0
 12
528.9061917367542
 22
512.1580056000111
 32
0.0
 13
528.9061917367542
 23
512.1580056000111
 33
0.0
  0
MTEXT
  5
5DF
330
5D6
100
AcDbEntity
  8
0
 62
     0
440
 16777216
100
AcDbMText
 10
528.9061917367542
 20
543.1580056000109
 30
0.0
 40
3.5
 41
0.0
 46
0.0
 71
     5
 72
     1
  1
31,00
 73
     1
 44
1.0
  0
POINT
  5
5E0
330
5D6
100
AcDbEntity
  8
Defpoints
 62
     0
440
 16777216
100
AcDbPoint
 10
509.4414337031928
 20
574.1580056000112
 30
0.0
  0
POINT
  5
5E1
330
5D6
100
AcDbEntity
  8
Defpoints
 62
     0
440
 16777216
100
AcDbPoint
 10
509.4414337031928
 20
512.1580056000111
 30
0.0
  0
POINT
  5
5E2
330
5D6
100
AcDbEntity
  8
Defpoints
 62
     0
440
 16777216
100
AcDbPoint
 10
528.9061917367542
 20
512.1580056000111
 30
0.0
  0
ENDBLK
  5
5D8
330
5D6
100
AcDbEntity
  8
0
100
AcDbBlockEnd
  0
BLOCK
  5
5E5
330
5E4
100
AcDbEntity
  8
0
100
AcDbBlockBegin
  2
*D40
 70
     1
 10
0.0
 20
0.0
 30
0.0
  3
*D40
  1

  0
LINE
  5
5E7
330
5E4
100
AcDbEntity
  8
0
 62
     0
440
 16777216
370
    -2
100
AcDbLine
 10
401.4414337031928
 20
573.1580056000111
 30
0.0
 11
381.7144454442101
 21
573.1580056000111
 31
0.0
  0
LINE
  5
5E8
330
5E4
100
AcDbEntity
  8
0
 62
     0
440
 16777216
370
    -2
100
AcDbLine
 10
401.4414337031928
 20
513.1580056000111
 30
0.0
 11
381.7144454442101
 21
513.1580056000111
 31
0.0
  0
LINE
  5
5E9
330
5E4
100
AcDbEntity
  8
0
 62
     0
440
 16777216
370
    -2
100
AcDbLine
 10
382.7144454442101
 20
569.8560056000111
 30
0.0
 11
382.7144454442101
 21
546.7236722666777
 31
0.0
  0
LINE
  5
5EA
330
5E4
100
AcDbEntity
  8
0
 62
     0
440
 16777216
370
    -2
100
AcDbLine
 10
382.7144454442101
 20
516.4600056000112
 30
0.0
 11
382.7144454442101
 21
539.5923389333445
 31
0.0
  0
SOLID
  5
5EB
330
5E4
100
AcDbEntity
  8
0
 62
     0
440
 16777216
100
AcDbTrace
 10
382.1641121108768
 20
569.8560056000111
 30
0.0
 11
383.2647787775435
 21
569.8560056000111
 31
0.0
 12
382.7144454442101
 22
573.1580056000111
 32
0.0
 13
382.7144454442101
 23
573.1580056000111
 33
0.0
  0
SOLID
  5
5EC
330
5E4
100
AcDbEntity
  8
0
 62
     0
440
 16777216
100
AcDbTrace
 10
382.1641121108768
 20
516.4600056000112
 30
0.0
 11
383.2647787775435
 21
516.4600056000112
 31
0.0
 12
382.7144454442101
 22
513.1580056000111
 32
0.0
 13
382.7144454442101
 23
513.1580056000111
 33
0.0
  0
MTEXT
  5
5ED
330
5E4
100
AcDbEntity
  8
0
 62
     0
440
 16777216
100
AcDbMText
 10
382.7144454442102
 20
543.1580056000109
 30
0.0
 40
3.5
 41
0.0
 46
0.0
 71
     5
 72
     1
  1
30,00
 73
     1
 44
1.0
  0
POINT
  5
5EE
330
5E4
100
AcDbEntity
  8
Defpoints
 62
     0
440
 16777216
100
AcDbPoint
 10
402.4414337031928
 20
573.1580056000111
 30
0.0
  0
POINT
  5
5EF
330
5E4
100
AcDbEntity
  8
Defpoints
 62
     0
440
 16777216
100
AcDbPoint
 10
402.4414337031928
 20
513.1580056000111
 30
0.0
  0
POINT
  5
5F0
330
5E4
100
AcDbEntity
  8
Defpoints
 62
     0
440
 16777216
100
AcDbPoint
 10
382.7144454442101
 20
513.1580056000111
 30
0.0
  0
ENDBLK
  5
5E6
330
5E4
100
AcDbEntity
  8
0
100
AcDbBlockEnd
  0
BLOCK
  5
5F3
330
5F2
100
AcDbEntity
  8
0
100
AcDbBlockBegin
  2
*D41
 70
     1
 10
0.0
 20
0.0
 30
0.0
  3
*D41
  1

  0
LINE
  5
5F5
330
5F2
100
AcDbEntity
  8
0
 62
     0
440
 16777216
370
    -2
100
AcDbLine
 10
226.4414337031927
 20
567.1580056000111
 30
0.0
 11
194.0480737730082
 21
567.1580056000111
 31
0.0
  0
LINE
  5
5F6
330
5F2
100
AcDbEntity
  8
0
 62
     0
440
 16777216
370
    -2
100
AcDbLine
 10
226.4414337031927
 20
519.1580056000073
 30
0.0
 11
194.0480737730082
 21
519.1580056000073
 31
0.0
  0
LINE
  5
5F7
330
5F2
100
AcDbEntity
  8
0
 62
     0
440
 16777216
370
    -2
100
AcDbLine
 10
195.0480737730082
 20
563.8560056000111
 30
0.0
 11
195.0480737730082
 21
546.7236722666759
 31
0.0
  0
LINE
  5
5F8
330
5F2
100
AcDbEntity
  8
0
 62
     0
440
 16777216
370
    -2
100
AcDbLine
 10
195.0480737730082
 20
522.4600056000073
 30
0.0
 11
195.0480737730082
 21
539.5923389333425
 31
0.0
  0
SOLID
  5
5F9
330
5F2
100
AcDbEntity
  8
0
 62
     0
440
 16777216
100
AcDbTrace
 10
194.4977404396749
 20
563.8560056000111
 30
0.0
 11
195.5984071063415
 21
563.8560056000111
 31
0.0
 12
195.0480737730082
 22
567.1580056000111
 32
0.0
 13
195.0480737730082
 23
567.1580056000111
 33
0.0
  0
SOLID
  5
5FA
330
5F2
100
AcDbEntity
  8
0
 62
     0
440
 16777216
100
AcDbTrace
 10
194.4977404396749
 20
522.4600056000073
 30
0.0
 11
195.5984071063415
 21
522.4600056000073
 31
0.0
 12
195.0480737730082
 22
519.1580056000073
 32
0.0
 13
195.0480737730082
 23
519.1580056000073
 33
0.0
  0
MTEXT
  5
5FB
330
5F2
100
AcDbEntity
  8
0
 62
     0
440
 16777216
100
AcDbMText
 10
195.0480737730083
 20
543.1580056000091
 30
0.0
 40
3.5
 41
0.0
 46
0.0
 71
     5
 72
     1
  1
24,00
 73
     1
 44
1.0
  0
POINT
  5
5FC
330
5F2
100
AcDbEntity
  8
Defpoints
 62
     0
440
 16777216
100
AcDbPoint
 10
227.4414337031927
 20
567.1580056000111
 30
0.0
  0
POINT
  5
5FD
330
5F2
100
AcDbEntity
  8
Defpoints
 62
     0
440
 16777216
100
AcDbPoint
 10
227.4414337031927
 20
519.1580056000073
 30
0.0
  0
POINT
  5
5FE
330
5F2
100
AcDbEntity
  8
Defpoints
 62
     0
440
 16777216
100
AcDbPoint
 10
195.0480737730082
 20
519.1580056000073
 30
0.0
  0
ENDBLK
  5
5F4
330
5F2
100
AcDbEntity
  8
0
100
AcDbBlockEnd
  0
ENDSEC
  0
SECTION
  2
ENTITIES
  0
ARC
  5
F4
330
1F
100
AcDbEntity
  8
0
  6
Continuous
 62
     7
370
    25
100
AcDbCircle
 10
34.46754212844861
 20
514.4184379952417
 30
0.0
 40
20.00000000000003
100
AcDbArc
 50
180.0
 51
270.0
  0
LINE
  5
F5
330
1F
100
AcDbEntity
  8
0
  6
Continuous
 62
     7
370
    25
100
AcDbLine
 10
14.4675421284486
 20
514.4184379952417
 30
0.0
 11
14.4675421284486
 21
566.4184379952416
 31
0.0
  0
ARC
  5
F6
330
1F
100
AcDbEntity
  8
0
  6
Continuous
 62
     7
370
    25
100
AcDbCircle
 10
34.46754212844861
 20
566.4184379952416
 30
0.0
 40
20.00000000000003
100
AcDbArc
 50
90.0
 51
180.0
  0
LINE
  5
F7
330
1F
100
AcDbEntity
  8
0
  6
Continuous
 62
     7
370
    25
100
AcDbLine
 10
34.46754212844861
 20
586.4184379952416
 30
0.0
 11
146.4675421284486
 21
586.4184379952416
 31
0.0
  0
ARC
  5
F8
330
1F
100
AcDbEntity
  8
0
  6
Continuous
 62
     7
370
    25
100
AcDbCircle
 10
146.4675421284486
 20
584.4184379952416
 30
0.0
 40
2.0
100
AcDbArc
 50
0.0
 51
90.0
  0
LINE
  5
F9
330
1F
100
AcDbEntity
  8
0
  6
Continuous
 62
     7
370
    25
100
AcDbLine
 10
148.4675421284486
 20
496.4184379952416
 30
0.0
 11
148.4675421284486
 21
584.4184379952416
 31
0.0
  0
ARC
  5
FA
330
1F
100
AcDbEntity
  8
0
  6
Continuous
 62
     7
370
    25
100
AcDbCircle
 10
146.4675421284486
 20
496.4184379952416
 30
0.0
 40
2.0
100
AcDbArc
 50
270.0
 51
0.0
  0
LINE
  5
FB
330
1F
100
AcDbEntity
  8
0
  6
Continuous
 62
     7
370
    25
100
AcDbLine
 10
34.46754212844858
 20
494.4184379952416
 30
0.0
 11
146.4675421284486
 21
494.4184379952416
 31
0.0
  0
CIRCLE
  5
FF
330
1F
100
AcDbEntity
  8
0
  6
Continuous
 62
     7
370
    25
100
AcDbCircle
 10
46.4675421284486
 20
576.9184379952417
 30
0.0
 40
5.0
  0
CIRCLE
  5
102
330
1F
100
AcDbEntity
  8
0
  6
Continuous
 62
     7
370
    25
100
AcDbCircle
 10
46.46754212844859
 20
503.9184379952416
 30
0.0
 40
5.0
  0
LWPOLYLINE
  5
2BF
330
1F
100
AcDbEntity
  8
0
100
AcDbPolyline
 90
        4
 70
     1
 43
0.0
 10
0.0
 20
599.9999999999999
 10
799.9999999999999
 20
599.9999999999999
 10
799.9999999999999
 20
0.0
 10
0.0
 20
0.0
  0
POINT
  5
321
330
1F
100
AcDbEntity
  8
0
100
AcDbPoint
 10
0.0
 20
0.0
 30
0.0
  0
CIRCLE
  5
372
330
1F
100
AcDbEntity
  8
0
100
AcDbCircle
 10
140.4675421284486
 20
502.4184379952417
 30
0.0
 40
3.0
  0
CIRCLE
  5
373
330
1F
100
AcDbEntity
  8
0
100
AcDbCircle
 10
116.4675421284486
 20
502.4184379952417
 30
0.0
 40
3.0
  0
CIRCLE
  5
374
330
1F
100
AcDbEntity
  8
0
100
AcDbCircle
 10
92.4675421284486
 20
502.4184379952417
 30
0.0
 40
3.0
  0
CIRCLE
  5
375
330
1F
100
AcDbEntity
  8
0
100
AcDbCircle
 10
140.4675421284486
 20
578.4184379952415
 30
0.0
 40
3.0
  0
CIRCLE
  5
376
330
1F
100
AcDbEntity
  8
0
100
AcDbCircle
 10
116.4675421284486
 20
578.4184379952415
 30
0.0
 40
3.0
  0
CIRCLE
  5
377
330
1F
100
AcDbEntity
  8
0
100
AcDbCircle
 10
92.4675421284486
 20
578.4184379952415
 30
0.0
 40
3.0
  0
CIRCLE
  5
379
330
1F
100
AcDbEntity
  8
0
100
AcDbCircle
 10
106.4675421284487
 20
540.4184379952416
 30
0.0
 40
9.0
  0
CIRCLE
  5
37B
330
1F
100
AcDbEntity
  8
0
100
AcDbCircle
 10
46.46754212844859
 20
540.4184379952416
 30
0.0
 40
8.0
  0
CIRCLE
  5
3A1
330
1F
100
AcDbEntity
  8
0
100
AcDbCircle
 10
106.4675421284487
 20
560.4184379952418
 30
0.0
 40
3.0
  0
CIRCLE
  5
3A2
330
1F
100
AcDbEntity
  8
0
100
AcDbCircle
 10
106.4675421284487
 20
520.4184379952415
 30
0.0
 40
3.0
  0
ARC
  5
445
330
1F
100
AcDbEntity
  8
0
  6
Continuous
 62
     7
370
    25
100
AcDbCircle
 10
258.4784834502644
 20
575.1580056000109
 30
0.0
 40
3.0
100
AcDbArc
 50
270.0
 51
90.0
  0
LINE
  5
446
330
1F
100
AcDbEntity
  8
0
  6
Continuous
 62
     7
370
    25
100
AcDbLine
 10
248.4784834502644
 20
578.1580056000109
 30
0.0
 11
258.4784834502644
 21
578.1580056000109
 31
0.0
  0
ARC
  5
447
330
1F
100
AcDbEntity
  8
0
  6
Continuous
 62
     7
370
    25
100
AcDbCircle
 10
248.4784834502644
 20
575.1580056000109
 30
0.0
 40
3.0
100
AcDbArc
 50
90.0
 51
270.0
  0
LINE
  5
448
330
1F
100
AcDbEntity
  8
0
  6
Continuous
 62
     7
370
    25
100
AcDbLine
 10
248.4784834502644
 20
572.1580056000109
 30
0.0
 11
258.4784834502644
 21
572.1580056000109
 31
0.0
  0
CIRCLE
  5
449
330
1F
100
AcDbEntity
  8
0
  6
Continuous
 62
     7
370
    25
100
AcDbCircle
 10
357.4414337031926
 20
519.1580056000109
 30
0.0
 40
4.0
  0
ARC
  5
452
330
1F
100
AcDbEntity
  8
0
  6
Continuous
 62
     7
370
    25
100
AcDbCircle
 10
227.4414337031926
 20
543.1580056000109
 30
0.0
 40
40.0
100
AcDbArc
 50
90.0
 51
270.0
  0
LINE
  5
453
330
1F
100
AcDbEntity
  8
0
  6
Continuous
 62
     7
370
    25
100
AcDbLine
 10
227.4414337031926
 20
583.1580056000109
 30
0.0
 11
507.4414337031928
 21
583.1580056000109
 31
0.0
  0
ARC
  5
454
330
1F
100
AcDbEntity
  8
0
  6
Continuous
 62
     7
370
    25
100
AcDbCircle
 10
507.4414337031928
 20
573.1580056000109
 30
0.0
 40
10.0
100
AcDbArc
 50
0.0
 51
90.0
  0
LINE
  5
455
330
1F
100
AcDbEntity
  8
0
  6
Continuous
 62
     7
370
    25
100
AcDbLine
 10
517.4414337031926
 20
573.1580056000109
 30
0.0
 11
517.4414337031926
 21
513.1580056000109
 31
0.0
  0
ARC
  5
456
330
1F
100
AcDbEntity
  8
0
  6
Continuous
 62
     7
370
    25
100
AcDbCircle
 10
507.4414337031928
 20
513.1580056000109
 30
0.0
 40
10.0
100
AcDbArc
 50
270.0
 51
0.0
  0
LINE
  5
457
330
1F
100
AcDbEntity
  8
0
  6
Continuous
 62
     7
370
    25
100
AcDbLine
 10
227.4414337031926
 20
503.1580056000109
 30
0.0
 11
507.4414337031928
 21
503.1580056000109
 31
0.0
  0
CIRCLE
  5
45D
330
1F
100
AcDbEntity
  8
0
  6
Continuous
 62
     7
370
    25
100
AcDbCircle
 10
357.4414337031926
 20
567.1580056000109
 30
0.0
 40
4.0
  0
CIRCLE
  5
528
330
1F
100
AcDbEntity
  8
0
100
AcDbCircle
 10
227.4414337031926
 20
543.1580056000109
 30
0.0
 40
17.0
  0
CIRCLE
  5
544
330
1F
100
AcDbEntity
  8
0
100
AcDbCircle
 10
227.4414337031926
 20
567.1580056000109
 30
0.0
 40
4.0
  0
CIRCLE
  5
552
330
1F
100
AcDbEntity
  8
0
100
AcDbCircle
 10
203.4414337031927
 20
543.1580056000109
 30
0.0
 40
4.0
  0
CIRCLE
  5
553
330
1F
100
AcDbEntity
  8
0
100
AcDbCircle
 10
251.4414337031964
 20
543.1580056000109
 30
0.0
 40
4.0
  0
CIRCLE
  5
554
330
1F
100
AcDbEntity
  8
0
100
AcDbCircle
 10
227.4414337031926
 20
519.158005600007
 30
0.0
 40
4.0
  0
CIRCLE
  5
596
330
1F
100
AcDbEntity
  8
0
100
AcDbCircle
 10
312.4414337031926
 20
573.1580056000109
 30
0.0
 40
3.0
  0
CIRCLE
  5
597
330
1F
100
AcDbEntity
  8
0
100
AcDbCircle
 10
312.4414337031926
 20
513.1580056000109
 30
0.0
 40
3.0
  0
CIRCLE
  5
598
330
1F
100
AcDbEntity
  8
0
100
AcDbCircle
 10
402.4414337031926
 20
513.1580056000109
 30
0.0
 40
3.0
  0
CIRCLE
  5
599
330
1F
100
AcDbEntity
  8
0
100
AcDbCircle
 10
402.4414337031926
 20
573.1580056000109
 30
0.0
 40
3.0
  0
CIRCLE
  5
59A
330
1F
100
AcDbEntity
  8
0
100
AcDbCircle
 10
423.4414337031924
 20
574.1580056000109
 30
0.0
 40
3.0
  0
CIRCLE
  5
59B
330
1F
100
AcDbEntity
  8
0
100
AcDbCircle
 10
423.4414337031924
 20
512.1580056000109
 30
0.0
 40
3.0
  0
CIRCLE
  5
59C
330
1F
100
AcDbEntity
  8
0
100
AcDbCircle
 10
509.4414337031926
 20
512.1580056000109
 30
0.0
 40
3.0
  0
CIRCLE
  5
59D
330
1F
100
AcDbEntity
  8
0
100
AcDbCircle
 10
509.4414337031926
 20
574.1580056000109
 30
0.0
 40
3.0
  0
ENDSEC
  0
SECTION
  2
OBJECTS
  0
DICTIONARY
  5
C
330
0
100
AcDbDictionary
281
     1
  3
ACAD_CIP_PREVIOUS_PRODUCT_INFO
350
1D1
  3
ACAD_COLOR
350
1C6
  3
ACAD_DETAILVIEWSTYLE
350
1CD
  3
ACAD_GROUP
350
D
  3
ACAD_LAYOUT
350
1A
  3
ACAD_MATERIAL
350
194
  3
ACAD_MLEADERSTYLE
350
1C9
  3
ACAD_MLINESTYLE
350
17
  3
ACAD_PLOTSETTINGS
350
19
  3
ACAD_PLOTSTYLENAME
350
E
  3
ACAD_SCALELIST
350
47
  3
ACAD_SECTIONVIEWSTYLE
350
1CB
  3
ACAD_TABLESTYLE
350
1C7
  3
ACAD_VISUALSTYLE
350
1AD
  3
ACDB_RECOMPOSE_DATA
350
619
  3
AcDbVariableDictionary
350
1FB
  0
DICTIONARY
  5
1D9
330
2
100
AcDbDictionary
280
     1
281
     1
  3
ACAD_LAYERSTATES
360
1DA
  0
DICTIONARY
  5
1D2
330
10
100
AcDbDictionary
280
     1
281
     1
  3
ADSK_XREC_LAYER_RECONCILED
360
1D3
  0
DICTIONARY
  5
1D4
330
73
100
AcDbDictionary
280
     1
281
     1
  3
ADSK_XREC_LAYER_RECONCILED
360
1D5
  0
XRECORD
  5
1D1
102
{ACAD_REACTORS
330
C
102
}
330
C
100
AcDbXrecord
280
     1
300
ACD
300
2022
300

  0
DICTIONARY
  5
1C6
102
{ACAD_REACTORS
330
C
102
}
330
C
100
AcDbDictionary
281
     1
  0
DICTIONARY
  5
1CD
102
{ACAD_REACTORS
330
C
102
}
330
C
100
AcDbDictionary
281
     1
  3
Imperial24
350
21C
  3
Metric50
350
1CE
  0
DICTIONARY
  5
D
102
{ACAD_REACTORS
330
C
102
}
330
C
100
AcDbDictionary
281
     1
  0
DICTIONARY
  5
1A
102
{ACAD_REACTORS
330
C
102
}
330
C
100
AcDbDictionary
281
     1
  3
Layout1
350
1E
  3
Layout2
350
26
  3
Model
350
22
  0
DICTIONARY
  5
194
102
{ACAD_REACTORS
330
C
102
}
330
C
100
AcDbDictionary
281
     1
  3
ByBlock
350
19D
  3
ByLayer
350
195
  3
Global
350
1A5
  0
DICTIONARY
  5
1C9
102
{ACAD_REACTORS
330
C
102
}
330
C
100
AcDbDictionary
281
     1
  3
Standard
350
1CA
  0
DICTIONARY
  5
17
102
{ACAD_REACTORS
330
C
102
}
330
C
100
AcDbDictionary
281
     1
  3
Standard
350
18
  0
DICTIONARY
  5
19
102
{ACAD_REACTORS
330
C
102
}
330
C
100
AcDbDictionary
281
     1
  0
ACDBDICTIONARYWDFLT
  5
E
102
{ACAD_REACTORS
330
C
102
}
330
C
100
AcDbDictionary
281
     1
  3
Normal
350
F
100
AcDbDictionaryWithDefault
340
F
  0
DICTIONARY
  5
47
102
{ACAD_REACTORS
330
C
102
}
330
C
100
AcDbDictionary
281
     1
  3
A0
350
48
  3
A1
350
49
  3
A2
350
4A
  3
A3
350
4B
  3
A4
350
4C
  3
A5
350
4D
  3
A6
350
4E
  3
A7
350
4F
  3
A8
350
50
  3
A9
350
51
  3
B0
350
52
  3
B1
350
53
  3
B2
350
54
  3
B3
350
55
  3
B4
350
56
  3
B5
350
57
  3
B6
350
58
  3
B7
350
59
  3
B8
350
5A
  3
B9
350
5B
  3
C0
350
5C
  3
C1
350
5D
  3
C2
350
5E
  3
C3
350
5F
  3
C4
350
60
  3
C5
350
61
  3
C6
350
62
  3
C7
350
63
  3
C8
350
64
  3
C9
350
65
  3
D0
350
66
  3
D1
350
67
  3
D2
350
68
  0
DICTIONARY
  5
1CB
102
{ACAD_REACTORS
330
C
102
}
330
C
100
AcDbDictionary
281
     1
  3
Imperial24
350
21B
  3
Metric50
350
1CC
  0
DICTIONARY
  5
1C7
102
{ACAD_REACTORS
330
C
102
}
330
C
100
AcDbDictionary
281
     1
  3
Standard
350
1C8
  0
DICTIONARY
  5
1AD
102
{ACAD_REACTORS
330
C
102
}
330
C
100
AcDbDictionary
281
     1
  3
2dWireframe
350
1B3
  3
Basic
350
1B2
  3
Brighten
350
1B9
  3
ColorChange
350
1BD
  3
Conceptual
350
1B6
  3
Dim
350
1B8
  3
EdgeColorOff
350
1C5
  3
Facepattern
350
1BC
  3
Flat
350
1AE
  3
FlatWithEdges
350
1AF
  3
Gouraud
350
1B0
  3
GouraudWithEdges
350
1B1
  3
Hidden
350
1B5
  3
JitterOff
350
1C3
  3
Linepattern
350
1BB
  3
OverhangOff
350
1C4
  3
Realistic
350
1B7
  3
Shaded
350
1C2
  3
Shaded with edges
350
1C1
  3
Shades of Gray
350
1BE
  3
Sketchy
350
1BF
  3
Thicken
350
1BA
  3
Wireframe
350
1B4
  3
X-Ray
350
1C0
  0
XRECORD
  5
619
102
{ACAD_REACTORS
330
C
102
}
330
C
100
AcDbXrecord
280
     1
 90
        1
330
1C8
  0
DICTIONARY
  5
1FB
102
{ACAD_REACTORS
330
C
102
}
330
C
100
AcDbDictionary
281
     1
  3
CANNOSCALE
350
201
  3
CMLEADERSTYLE
350
1FD
  3
CTABLESTYLE
350
1FC
  3
CVIEWDETAILSTYLE
350
1FE
  3
CVIEWSECTIONSTYLE
350
1FF
  3
LAYEREVAL
350
203
  3
LAYERNOTIFY
350
204
  3
LIGHTINGUNITS
350
202
  3
MSLTSCALE
350
200
  0
DICTIONARY
  5
1DA
102
{ACAD_REACTORS
330
1D9
102
}
330
1D9
100
AcDbDictionary
281
     1
  0
XRECORD
  5
1D3
102
{ACAD_REACTORS
330
1D2
102
}
330
1D2
100
AcDbXrecord
280
     1
290
     1
  0
XRECORD
  5
1D5
102
{ACAD_REACTORS
330
1D4
102
}
330
1D4
100
AcDbXrecord
280
     1
290
     1
  0
ACDBDETAILVIEWSTYLE
  5
21C
102
{ACAD_REACTORS
330
1CD
102
}
330
1CD
100
AcDbModelDocViewStyle
 70
     0
  3
Imperial24
290
     0
300
Imperial24
 90
        0
100
AcDbDetailViewStyle
 70
     0
 71
     0
 90
        3
 71
     1
340
11
 62
   256
 40
0.24
340
0
 62
   256
 40
0.24
300

 40
0.36
280
     3
 71
     2
340
16
 90
       25
 62
   256
 71
     3
340
11
 62
   256
 40
0.24
 90
        1
 40
0.75
 90
        1
300
%<\AcVar ViewType \f "%tc1">% %<\AcVar ViewDetailId>%\PSCALE %<\AcVar ViewScale \f "%sn">%
 71
     4
340
16
 90
       25
 62
   256
340
16
 90
       25
 62
   256
280
     0
  0
ACDBDETAILVIEWSTYLE
  5
1CE
102
{ACAD_REACTORS
330
1CD
102
}
330
1CD
100
AcDbModelDocViewStyle
 70
     0
  3
Metric50
290
     0
300
Metric50
 90
        0
100
AcDbDetailViewStyle
 70
     0
 71
     0
 90
        3
 71
     1
340
11
 62
   256
 40
5.0
340
0
 62
   256
 40
5.0
300

 40
0.0
280
     1
 71
     2
340
16
 90
       25
 62
   256
 71
     3
340
11
 62
   256
 40
5.0
 90
        0
 40
15.0
 90
        1
300
%<\AcVar ViewDetailId>% (%<\AcVar ViewScale \f "%sn">%)
 71
     4
340
16
 90
       25
 62
   256
340
16
 90
       25
 62
   256
280
     0
  0
LAYOUT
  5
1E
102
{ACAD_REACTORS
330
1A
102
}
330
1A
100
AcDbPlotSettings
  1

  2
none_device
  4

  6

 40
0.0
 41
0.0
 42
0.0
 43
0.0
 44
0.0
 45
0.0
 46
0.0
 47
0.0
 48
0.0
 49
0.0
140
0.0
141
0.0
142
1.0
143
1.0
 70
   688
 72
     1
 73
     0
 74
     5
  7

 75
    16
147
1.0
 76
     0
 77
     2
 78
   300
148
0.0
149
0.0
100
AcDbLayout
  1
Layout1
 70
     1
 71
     1
 10
0.0
 20
0.0
 11
420.0
 21
297.0
 12
0.0
 22
0.0
 32
0.0
 14
1.000000000000000E+20
 24
1.000000000000000E+20
 34
1.000000000000000E+20
 15
-1.000000000000000E+20
 25
-1.000000000000000E+20
 35
-1.000000000000000E+20
146
0.0
 13
0.0
 23
0.0
 33
0.0
 16
1.0
 26
0.0
 36
0.0
 17
0.0
 27
1.0
 37
0.0
 76
     0
330
1B
  0
LAYOUT
  5
26
102
{ACAD_REACTORS
330
1A
102
}
330
1A
100
AcDbPlotSettings
  1

  2
none_device
  4

  6

 40
0.0
 41
0.0
 42
0.0
 43
0.0
 44
0.0
 45
0.0
 46
0.0
 47
0.0
 48
0.0
 49
0.0
140
0.0
141
0.0
142
1.0
143
1.0
 70
   688
 72
     1
 73
     0
 74
     5
  7

 75
    16
147
1.0
 76
     0
 77
     2
 78
   300
148
0.0
149
0.0
100
AcDbLayout
  1
Layout2
 70
     1
 71
     2
 10
0.0
 20
0.0
 11
0.0
 21
0.0
 12
0.0
 22
0.0
 32
0.0
 14
0.0
 24
0.0
 34
0.0
 15
0.0
 25
0.0
 35
0.0
146
0.0
 13
0.0
 23
0.0
 33
0.0
 16
1.0
 26
0.0
 36
0.0
 17
0.0
 27
1.0
 37
0.0
 76
     0
330
23
  0
LAYOUT
  5
22
102
{ACAD_REACTORS
330
1A
102
}
330
1A
100
AcDbPlotSettings
  1

  2
none_device
  4
Letter_(8.50_x_11.00_Inches)
  6

 40
6.349999999999998
 41
6.349999999999998
 42
6.350005079999998
 43
6.350005079999998
 44
215.9
 45
279.4
 46
0.0
 47
0.0
 48
0.0
 49
0.0
140
0.0
141
0.0
142
1.0
143
1.0
 70
  1712
 72
     1
 73
     0
 74
     0
  7

 75
     0
147
1.0
 76
     0
 77
     2
 78
   300
148
0.0
149
0.0
100
AcDbLayout
  1
Model
 70
     1
 71
     0
 10
0.0
 20
0.0
 11
420.0
 21
297.0
 12
0.0
 22
0.0
 32
0.0
 14
0.0
 24
0.0
 34
0.0
 15
420.0
 25
297.0
 35
0.0
146
0.0
 13
0.0
 23
0.0
 33
0.0
 16
1.0
 26
0.0
 36
0.0
 17
0.0
 27
1.0
 37
0.0
 76
     0
330
1F
331
29
  0
MATERIAL
  5
19D
102
{ACAD_XDICTIONARY
360
19E
102
}
102
{ACAD_REACTORS
330
194
102
}
330
194
100
AcDbMaterial
  1
ByBlock
 72
     0
 43
0.0008202099737533
 43
0.0
 43
0.0
 43
0.0
 43
0.0
 43
0.0008202099737533
 43
0.0
 43
0.0
 43
0.0
 43
0.0
 43
1.0
 43
0.0
 43
0.0
 43
0.0
 43
0.0
 43
1.0
 77
     0
 47
0.0008202099737533
 47
0.0
 47
0.0
 47
0.0
 47
0.0
 47
0.0008202099737533
 47
0.0
 47
0.0
 47
0.0
 47
0.0
 47
1.0
 47
0.0
 47
0.0
 47
0.0
 47
0.0
 47
1.0
171
     0
 49
0.0008202099737533
 49
0.0
 49
0.0
 49
0.0
 49
0.0
 49
0.0008202099737533
 49
0.0
 49
0.0
 49
0.0
 49
0.0
 49
1.0
 49
0.0
 49
0.0
 49
0.0
 49
0.0
 49
1.0
175
     0
142
0.0008202099737533
142
0.0
142
0.0
142
0.0
142
0.0
142
0.0008202099737533
142
0.0
142
0.0
142
0.0
142
0.0
142
1.0
142
0.0
142
0.0
142
0.0
142
0.0
142
1.0
179
     0
144
0.0008202099737533
144
0.0
144
0.0
144
0.0
144
0.0
144
0.0008202099737533
144
0.0
144
0.0
144
0.0
144
0.0
144
1.0
144
0.0
144
0.0
144
0.0
144
0.0
144
1.0
147
0.0008202099737533
147
0.0
147
0.0
147
0.0
147
0.0
147
0.0008202099737533
147
0.0
147
0.0
147
0.0
147
0.0
147
1.0
147
0.0
147
0.0
147
0.0
147
0.0
147
1.0
  0
MATERIAL
  5
195
102
{ACAD_XDICTIONARY
360
196
102
}
102
{ACAD_REACTORS
330
194
102
}
330
194
100
AcDbMaterial
  1
ByLayer
 72
     0
 43
0.0008202099737533
 43
0.0
 43
0.0
 43
0.0
 43
0.0
 43
0.0008202099737533
 43
0.0
 43
0.0
 43
0.0
 43
0.0
 43
1.0
 43
0.0
 43
0.0
 43
0.0
 43
0.0
 43
1.0
 77
     0
 47
0.0008202099737533
 47
0.0
 47
0.0
 47
0.0
 47
0.0
 47
0.0008202099737533
 47
0.0
 47
0.0
 47
0.0
 47
0.0
 47
1.0
 47
0.0
 47
0.0
 47
0.0
 47
0.0
 47
1.0
171
     0
 49
0.0008202099737533
 49
0.0
 49
0.0
 49
0.0
 49
0.0
 49
0.0008202099737533
 49
0.0
 49
0.0
 49
0.0
 49
0.0
 49
1.0
 49
0.0
 49
0.0
 49
0.0
 49
0.0
 49
1.0
175
     0
142
0.0008202099737533
142
0.0
142
0.0
142
0.0
142
0.0
142
0.0008202099737533
142
0.0
142
0.0
142
0.0
142
0.0
142
1.0
142
0.0
142
0.0
142
0.0
142
0.0
142
1.0
179
     0
144
0.0008202099737533
144
0.0
144
0.0
144
0.0
144
0.0
144
0.0008202099737533
144
0.0
144
0.0
144
0.0
144
0.0
144
1.0
144
0.0
144
0.0
144
0.0
144
0.0
144
1.0
147
0.0008202099737533
147
0.0
147
0.0
147
0.0
147
0.0
147
0.0008202099737533
147
0.0
147
0.0
147
0.0
147
0.0
147
1.0
147
0.0
147
0.0
147
0.0
147
0.0
147
1.0
  0
MATERIAL
  5
1A5
102
{ACAD_XDICTIONARY
360
1A6
102
}
102
{ACAD_REACTORS
330
194
102
}
330
194
100
AcDbMaterial
  1
Global
 72
     0
 43
0.0008202099737533
 43
0.0
 43
0.0
 43
0.0
 43
0.0
 43
0.0008202099737533
 43
0.0
 43
0.0
 43
0.0
 43
0.0
 43
1.0
 43
0.0
 43
0.0
 43
0.0
 43
0.0
 43
1.0
 77
     0
 47
0.0008202099737533
 47
0.0
 47
0.0
 47
0.0
 47
0.0
 47
0.0008202099737533
 47
0.0
 47
0.0
 47
0.0
 47
0.0
 47
1.0
 47
0.0
 47
0.0
 47
0.0
 47
0.0
 47
1.0
171
     0
 49
0.0008202099737533
 49
0.0
 49
0.0
 49
0.0
 49
0.0
 49
0.0008202099737533
 49
0.0
 49
0.0
 49
0.0
 49
0.0
 49
1.0
 49
0.0
 49
0.0
 49
0.0
 49
0.0
 49
1.0
175
     0
142
0.0008202099737533
142
0.0
142
0.0
142
0.0
142
0.0
142
0.0008202099737533
142
0.0
142
0.0
142
0.0
142
0.0
142
1.0
142
0.0
142
0.0
142
0.0
142
0.0
142
1.0
179
     0
144
0.0008202099737533
144
0.0
144
0.0
144
0.0
144
0.0
144
0.0008202099737533
144
0.0
144
0.0
144
0.0
144
0.0
144
1.0
144
0.0
144
0.0
144
0.0
144
0.0
144
1.0
147
0.0008202099737533
147
0.0
147
0.0
147
0.0
147
0.0
147
0.0008202099737533
147
0.0
147
0.0
147
0.0
147
0.0
147
1.0
147
0.0
147
0.0
147
0.0
147
0.0
147
1.0
  0
MLEADERSTYLE
  5
1CA
102
{ACAD_REACTORS
330
1C9
102
}
330
1C9
100
AcDbMLeaderStyle
179
     2
170
     2
171
     1
172
     0
 90
        2
 40
0.0
 41
0.0
173
     1
 91
-1056964608
340
14
 92
       -2
290
     1
 42
2.0
291
     1
 43
0.36
  3
Standard
 44
4.0
300

342
11
174
     1
178
     6
175
     1
176
     0
 93
-1056964608
 45
4.0
292
     0
297
     0
 46
4.0
 94
-1056964608
 47
1.0
 49
1.0
140
1.0
293
     1
141
0.0
294
     1
177
     0
142
1.0
295
     0
296
     0
143
0.125
271
     0
272
     9
273
     9
298
     1
  0
MLINESTYLE
  5
18
102
{ACAD_REACTORS
330
17
102
}
330
17
100
AcDbMlineStyle
  2
STANDARD
 70
     0
  3

 62
   256
 51
90.0
 52
90.0
 71
     2
 49
0.5
 62
   256
  6
BYLAYER
 49
-0.5
 62
   256
  6
BYLAYER
  0
ACDBPLACEHOLDER
  5
F
102
{ACAD_REACTORS
330
E
102
}
330
E
  0
SCALE
  5
48
102
{ACAD_REACTORS
330
47
102
}
330
47
100
AcDbScale
 70
     0
300
1:1
140
1.0
141
1.0
290
     1
  0
SCALE
  5
49
102
{ACAD_REACTORS
330
47
102
}
330
47
100
AcDbScale
 70
     0
300
1:2
140
1.0
141
2.0
290
     0
  0
SCALE
  5
4A
102
{ACAD_REACTORS
330
47
102
}
330
47
100
AcDbScale
 70
     0
300
1:4
140
1.0
141
4.0
290
     0
  0
SCALE
  5
4B
102
{ACAD_REACTORS
330
47
102
}
330
47
100
AcDbScale
 70
     0
300
1:5
140
1.0
141
5.0
290
     0
  0
SCALE
  5
4C
102
{ACAD_REACTORS
330
47
102
}
330
47
100
AcDbScale
 70
     0
300
1:8
140
1.0
141
8.0
290
     0
  0
SCALE
  5
4D
102
{ACAD_REACTORS
330
47
102
}
330
47
100
AcDbScale
 70
     0
300
1:10
140
1.0
141
10.0
290
     0
  0
SCALE
  5
4E
102
{ACAD_REACTORS
330
47
102
}
330
47
100
AcDbScale
 70
     0
300
1:16
140
1.0
141
16.0
290
     0
  0
SCALE
  5
4F
102
{ACAD_REACTORS
330
47
102
}
330
47
100
AcDbScale
 70
     0
300
1:20
140
1.0
141
20.0
290
     0
  0
SCALE
  5
50
102
{ACAD_REACTORS
330
47
102
}
330
47
100
AcDbScale
 70
     0
300
1:30
140
1.0
141
30.0
290
     0
  0
SCALE
  5
51
102
{ACAD_REACTORS
330
47
102
}
330
47
100
AcDbScale
 70
     0
300
1:40
140
1.0
141
40.0
290
     0
  0
SCALE
  5
52
102
{ACAD_REACTORS
330
47
102
}
330
47
100
AcDbScale
 70
     0
300
1:50
140
1.0
141
50.0
290
     0
  0
SCALE
  5
53
102
{ACAD_REACTORS
330
47
102
}
330
47
100
AcDbScale
 70
     0
300
1:100
140
1.0
141
100.0
290
     0
  0
SCALE
  5
54
102
{ACAD_REACTORS
330
47
102
}
330
47
100
AcDbScale
 70
     0
300
2:1
140
2.0
141
1.0
290
     0
  0
SCALE
  5
55
102
{ACAD_REACTORS
330
47
102
}
330
47
100
AcDbScale
 70
     0
300
4:1
140
4.0
141
1.0
290
     0
  0
SCALE
  5
56
102
{ACAD_REACTORS
330
47
102
}
330
47
100
AcDbScale
 70
     0
300
8:1
140
8.0
141
1.0
290
     0
  0
SCALE
  5
57
102
{ACAD_REACTORS
330
47
102
}
330
47
100
AcDbScale
 70
     0
300
10:1
140
10.0
141
1.0
290
     0
  0
SCALE
  5
58
102
{ACAD_REACTORS
330
47
102
}
330
47
100
AcDbScale
 70
     0
300
100:1
140
100.0
141
1.0
290
     0
  0
SCALE
  5
59
102
{ACAD_REACTORS
330
47
102
}
330
47
100
AcDbScale
 70
     0
300
1/128" = 1'-0"
140
0.0078125
141
12.0
290
     0
  0
SCALE
  5
5A
102
{ACAD_REACTORS
330
47
102
}
330
47
100
AcDbScale
 70
     0
300
1/64" = 1'-0"
140
0.015625
141
12.0
290
     0
  0
SCALE
  5
5B
102
{ACAD_REACTORS
330
47
102
}
330
47
100
AcDbScale
 70
     0
300
1/32" = 1'-0"
140
0.03125
141
12.0
290
     0
  0
SCALE
  5
5C
102
{ACAD_REACTORS
330
47
102
}
330
47
100
AcDbScale
 70
     0
300
1/16" = 1'-0"
140
0.0625
141
12.0
290
     0
  0
SCALE
  5
5D
102
{ACAD_REACTORS
330
47
102
}
330
47
100
AcDbScale
 70
     0
300
3/32" = 1'-0"
140
0.09375
141
12.0
290
     0
  0
SCALE
  5
5E
102
{ACAD_REACTORS
330
47
102
}
330
47
100
AcDbScale
 70
     0
300
1/8" = 1'-0"
140
0.125
141
12.0
290
     0
  0
SCALE
  5
5F
102
{ACAD_REACTORS
330
47
102
}
330
47
100
AcDbScale
 70
     0
300
3/16" = 1'-0"
140
0.1875
141
12.0
290
     0
  0
SCALE
  5
60
102
{ACAD_REACTORS
330
47
102
}
330
47
100
AcDbScale
 70
     0
300
1/4" = 1'-0"
140
0.25
141
12.0
290
     0
  0
SCALE
  5
61
102
{ACAD_REACTORS
330
47
102
}
330
47
100
AcDbScale
 70
     0
300
3/8" = 1'-0"
140
0.375
141
12.0
290
     0
  0
SCALE
  5
62
102
{ACAD_REACTORS
330
47
102
}
330
47
100
AcDbScale
 70
     0
300
1/2" = 1'-0"
140
0.5
141
12.0
290
     0
  0
SCALE
  5
63
102
{ACAD_REACTORS
330
47
102
}
330
47
100
AcDbScale
 70
     0
300
3/4" = 1'-0"
140
0.75
141
12.0
290
     0
  0
SCALE
  5
64
102
{ACAD_REACTORS
330
47
102
}
330
47
100
AcDbScale
 70
     0
300
1" = 1'-0"
140
1.0
141
12.0
290
     0
  0
SCALE
  5
65
102
{ACAD_REACTORS
330
47
102
}
330
47
100
AcDbScale
 70
     0
300
1-1/2" = 1'-0"
140
1.5
141
12.0
290
     0
  0
SCALE
  5
66
102
{ACAD_REACTORS
330
47
102
}
330
47
100
AcDbScale
 70
     0
300
3" = 1'-0"
140
3.0
141
12.0
290
     0
  0
SCALE
  5
67
102
{ACAD_REACTORS
330
47
102
}
330
47
100
AcDbScale
 70
     0
300
6" = 1'-0"
140
6.0
141
12.0
290
     0
  0
SCALE
  5
68
102
{ACAD_REACTORS
330
47
102
}
330
47
100
AcDbScale
 70
     0
300
1'-0" = 1'-0"
140
12.0
141
12.0
290
     0
  0
ACDBSECTIONVIEWSTYLE
  5
21B
102
{ACAD_REACTORS
330
1CB
102
}
330
1CB
100
AcDbModelDocViewStyle
 70
     0
  3
Imperial24
290
     0
300
Imperial24
 90
        0
100
AcDbSectionViewStyle
 70
     0
 71
     0
 90
       78
 71
     1
340
11
 62
   256
 40
0.24
340
0
340
0
 62
   256
 40
0.24
300
I, O, Q, S, X, Z
 40
0.48
 90
        3
 40
0.18
 90
        1
 71
     2
340
16
 90
       25
 62
   256
340
16
 90
       50
 62
   256
 40
0.24
 40
0.0
 40
0.24
 71
     3
340
11
 62
   256
 40
0.24
 90
        1
 40
0.75
 90
        1
300
%<\AcVar ViewType \f "%tc1">% %<\AcVar ViewSectionStartId>%-%<\AcVar ViewSectionEndId>%\PSCALE %<\AcVar ViewScale \f "%sn">%
 71
     4
 62
   256
 62
   257
300
ANSI31
 40
1.0
 90
        0
290
     0
290
     0
 90
        6
 40
0.0
 40
1.570796326794896
 40
0.2617993877991494
 40
1.308996938995747
 40
-0.2617993877991494
 40
1.832595714594046
  0
ACDBSECTIONVIEWSTYLE
  5
1CC
102
{ACAD_REACTORS
330
1CB
102
}
330
1CB
100
AcDbModelDocViewStyle
 70
     0
  3
Metric50
290
     0
300
Metric50
 90
        0
100
AcDbSectionViewStyle
 70
     0
 71
     0
 90
      102
 71
     1
340
11
 62
   256
 40
5.0
340
0
340
0
 62
   256
 40
5.0
300
I, O, Q, S, X, Z
 40
10.0
 90
        0
 40
2.5
 90
        0
 71
     2
340
16
 90
       25
 62
   256
340
16
 90
       50
 62
   256
 40
5.0
 40
2.5
 40
5.0
 71
     3
340
11
 62
   256
 40
5.0
 90
        0
 40
15.0
 90
        1
300
%<\AcVar ViewSectionStartId>%-%<\AcVar ViewSectionEndId>% (%<\AcVar ViewScale \f "%sn">%)
 71
     4
 62
   256
 62
   257
300
ANSI31
 40
1.0
 90
        0
290
     0
290
     0
 90
        6
 40
0.0
 40
1.570796326794896
 40
0.2617993877991494
 40
1.308996938995747
 40
-0.2617993877991494
 40
1.832595714594045
  0
TABLESTYLE
  5
1C8
102
{ACAD_XDICTIONARY
360
205
102
}
102
{ACAD_REACTORS
330
1C7
102
}
330
1C7
100
AcDbTableStyle
280
     0
  3
Standard
 70
     0
 71
     0
 40
1.5
 41
1.5
280
     0
281
     0
  7
Standard
140
4.5
170
     2
 62
     0
 63
     7
283
     0
 90
      512
 91
        0
  1

274
    -2
284
     1
 64
     0
275
    -2
285
     1
 65
     0
276
    -2
286
     1
 66
     0
277
    -2
287
     1
 67
     0
278
    -2
288
     1
 68
     0
279
    -2
289
     1
 69
     0
  7
Standard
140
6.0
170
     5
 62
     0
 63
     7
283
     0
 90
      512
 91
        0
  1

274
    -2
284
     1
 64
     0
275
    -2
285
     1
 65
     0
276
    -2
286
     1
 66
     0
277
    -2
287
     1
 67
     0
278
    -2
288
     1
 68
     0
279
    -2
289
     1
 69
     0
  7
Standard
140
4.5
170
     5
 62
     0
 63
     7
283
     0
 90
      512
 91
        0
  1

274
    -2
284
     1
 64
     0
275
    -2
285
     1
 65
     0
276
    -2
286
     1
 66
     0
277
    -2
287
     1
 67
     0
278
    -2
288
     1
 68
     0
279
    -2
289
     1
 69
     0
  0
VISUALSTYLE
  5
1B3
102
{ACAD_REACTORS
330
1AD
102
}
330
1AD
100
AcDbVisualStyle
  2
2dWireframe
 70
     4
177
     3
291
     0
 70
    58
 90
        0
176
     1
 90
        2
176
     1
 90
        0
176
     1
 90
        0
176
     1
 40
0.6
176
     1
 40
30.0
176
     1
 62
     7
420
 16777215
176
     1
 90
        1
176
     1
 90
        4
176
     1
 62
     7
176
     1
 62
   257
176
     1
 90
        1
176
     1
 90
        1
176
     1
 40
1.0
176
     1
 90
        0
176
     1
 62
   257
176
     1
 40
1.0
176
     1
 90
        1
176
     1
 90
        6
176
     1
 90
        2
176
     1
 62
     7
176
     1
 90
        5
176
     1
 90
        0
176
     1
 90
        0
176
     1
290
     0
176
     1
 90
        1
176
     1
 40
0.0
176
     1
 90
        0
176
     1
290
     1
176
     1
290
     1
176
     1
290
     0
176
     1
290
     0
176
     1
290
     0
176
     1
290
     0
176
     1
290
     0
176
     1
290
     0
176
     1
290
     0
176
     1
 90
       50
176
     1
 40
0.0
176
     1
 40
1.0
176
     1
 90
        0
176
     1
 62
    18
176
     1
 90
       50
176
     1
 90
        3
176
     1
 62
     5
420
      255
176
     1
290
     0
176
     1
 90
       50
176
     1
 90
       50
176
     1
 90
       50
176
     1
290
     0
176
     1
 90
       50
176
     1
 62
   256
176
     0
 40
1.0
176
     0
 90
        2
176
     1
  1
strokes_ogs.tif
176
     1
290
     0
176
     1
 40
1.0
176
     1
 40
1.0
176
     1
  0
VISUALSTYLE
  5
1B2
102
{ACAD_REACTORS
330
1AD
102
}
330
1AD
100
AcDbVisualStyle
  2
Basic
 70
     7
177
     3
291
     1
 70
    58
 90
        1
176
     1
 90
        0
176
     1
 90
        1
176
     1
 90
        0
176
     1
 40
0.6
176
     1
 40
30.0
176
     1
 62
     7
420
 16777215
176
     1
 90
        0
176
     1
 90
        4
176
     1
 62
     7
176
     1
 62
   257
176
     1
 90
        1
176
     1
 90
        1
176
     1
 40
1.0
176
     1
 90
        8
176
     1
 62
     7
176
     1
 40
1.0
176
     1
 90
        1
176
     1
 90
        6
176
     1
 90
        2
176
     1
 62
     7
176
     1
 90
        5
176
     1
 90
        0
176
     1
 90
        0
176
     1
290
     0
176
     1
 90
        1
176
     1
 40
0.0
176
     1
 90
        0
176
     1
290
     0
176
     1
290
     1
176
     1
290
     1
176
     1
290
     0
176
     1
290
     0
176
     1
290
     0
176
     1
290
     0
176
     1
290
     0
176
     1
290
     0
176
     1
 90
       50
176
     1
 40
0.0
176
     1
 40
1.0
176
     1
 90
        0
176
     1
 62
    18
176
     1
 90
       50
176
     1
 90
        3
176
     1
 62
     5
420
      255
176
     1
290
     0
176
     1
 90
       50
176
     1
 90
       50
176
     1
 90
       50
176
     1
290
     0
176
     1
 90
       50
176
     1
 62
   256
176
     0
 40
1.0
176
     0
 90
        2
176
     1
  1
strokes_ogs.tif
176
     1
290
     0
176
     1
 40
1.0
176
     1
 40
1.0
176
     1
  0
VISUALSTYLE
  5
1B9
102
{ACAD_REACTORS
330
1AD
102
}
330
1AD
100
AcDbVisualStyle
  2
Brighten
 70
    12
177
     3
291
     1
 70
    58
 90
        2
176
     1
 90
        2
176
     1
 90
        0
176
     1
 90
        0
176
     1
 40
0.6
176
     1
 40
30.0
176
     1
 62
     7
420
 16777215
176
     1
 90
        1
176
     1
 90
        4
176
     1
 62
     7
176
     1
 62
   257
176
     1
 90
        1
176
     1
 90
        1
176
     1
 40
1.0
176
     1
 90
        8
176
     1
 62
     7
176
     1
 40
1.0
176
     1
 90
        1
176
     1
 90
        6
176
     1
 90
        2
176
     1
 62
     7
176
     1
 90
        5
176
     1
 90
        0
176
     1
 90
        0
176
     1
290
     0
176
     1
 90
        1
176
     1
 40
50.0
176
     1
 90
        0
176
     1
290
     0
176
     1
290
     1
176
     1
290
     1
176
     1
290
     0
176
     1
290
     0
176
     1
290
     0
176
     1
290
     0
176
     1
290
     0
176
     1
290
     0
176
     1
 90
       50
176
     1
 40
0.0
176
     1
 40
1.0
176
     1
 90
        0
176
     1
 62
    18
176
     1
 90
       50
176
     1
 90
        3
176
     1
 62
     5
420
      255
176
     1
290
     0
176
     1
 90
       50
176
     1
 90
       50
176
     1
 90
       50
176
     1
290
     0
176
     1
 90
       50
176
     1
 62
   256
176
     0
 40
1.0
176
     0
 90
        2
176
     1
  1
strokes_ogs.tif
176
     1
290
     0
176
     1
 40
1.0
176
     1
 40
1.0
176
     1
  0
VISUALSTYLE
  5
1BD
102
{ACAD_REACTORS
330
1AD
102
}
330
1AD
100
AcDbVisualStyle
  2
ColorChange
 70
    16
177
     3
291
     1
 70
    58
 90
        2
176
     1
 90
        2
176
     1
 90
        3
176
     1
 90
        0
176
     1
 40
0.6
176
     1
 40
30.0
176
     1
 62
     8
420
  8421504
176
     1
 90
        1
176
     1
 90
        4
176
     1
 62
     7
176
     1
 62
   257
176
     1
 90
        1
176
     1
 90
        1
176
     1
 40
1.0
176
     1
 90
        8
176
     1
 62
     8
420
  8421504
176
     1
 40
1.0
176
     1
 90
        1
176
     1
 90
        6
176
     1
 90
        2
176
     1
 62
     7
176
     1
 90
        5
176
     1
 90
        0
176
     1
 90
        0
176
     1
290
     0
176
     1
 90
        1
176
     1
 40
0.0
176
     1
 90
        0
176
     1
290
     0
176
     1
290
     1
176
     1
290
     1
176
     1
290
     0
176
     1
290
     0
176
     1
290
     0
176
     1
290
     0
176
     1
290
     0
176
     1
290
     0
176
     1
 90
       50
176
     1
 40
0.0
176
     1
 40
1.0
176
     1
 90
        0
176
     1
 62
    18
176
     1
 90
       50
176
     1
 90
        3
176
     1
 62
     5
420
      255
176
     1
290
     0
176
     1
 90
       50
176
     1
 90
       50
176
     1
 90
       50
176
     1
290
     0
176
     1
 90
       50
176
     1
 62
   256
176
     0
 40
1.0
176
     0
 90
        2
176
     1
  1
strokes_ogs.tif
176
     1
290
     0
176
     1
 40
1.0
176
     1
 40
1.0
176
     1
  0
VISUALSTYLE
  5
1B6
102
{ACAD_REACTORS
330
1AD
102
}
330
1AD
100
AcDbVisualStyle
  2
Conceptual
 70
     9
177
     3
291
     0
 70
    58
 90
        3
176
     1
 90
        2
176
     1
 90
        0
176
     1
 90
        0
176
     1
 40
0.6
176
     1
 40
30.0
176
     1
 62
     7
420
 16777215
176
     1
 90
        2
176
     1
 90
        2
176
     1
 62
     7
176
     1
 62
   257
176
     1
 90
        1
176
     1
 90
        1
176
     1
 40
179.0
176
     1
 90
        8
176
     1
 62
     7
176
     1
 40
1.0
176
     1
 90
        1
176
     1
 90
        6
176
     1
 90
        2
176
     1
 62
     7
176
     1
 90
        3
176
     1
 90
        0
176
     1
 90
        0
176
     1
290
     0
176
     1
 90
        1
176
     1
 40
0.0
176
     1
 90
        0
176
     1
290
     0
176
     1
290
     1
176
     1
290
     1
176
     1
290
     0
176
     1
290
     0
176
     1
290
     0
176
     1
290
     0
176
     1
290
     0
176
     1
290
     0
176
     1
 90
       50
176
     1
 40
0.0
176
     1
 40
1.0
176
     1
 90
        0
176
     1
 62
    18
176
     1
 90
       50
176
     1
 90
        3
176
     1
 62
     5
420
      255
176
     1
290
     0
176
     1
 90
       50
176
     1
 90
       50
176
     1
 90
       50
176
     1
290
     0
176
     1
 90
       50
176
     1
 62
   256
176
     0
 40
1.0
176
     0
 90
        2
176
     1
  1
strokes_ogs.tif
176
     1
290
     0
176
     1
 40
1.0
176
     1
 40
1.0
176
     1
  0
VISUALSTYLE
  5
1B8
102
{ACAD_REACTORS
330
1AD
102
}
330
1AD
100
AcDbVisualStyle
  2
Dim
 70
    11
177
     3
291
     1
 70
    58
 90
        2
176
     1
 90
        2
176
     1
 90
        0
176
     1
 90
        0
176
     1
 40
0.6
176
     1
 40
30.0
176
     1
 62
     7
420
 16777215
176
     1
 90
        1
176
     1
 90
        4
176
     1
 62
     7
176
     1
 62
   257
176
     1
 90
        1
176
     1
 90
        1
176
     1
 40
1.0
176
     1
 90
        8
176
     1
 62
     7
176
     1
 40
1.0
176
     1
 90
        1
176
     1
 90
        6
176
     1
 90
        2
176
     1
 62
     7
176
     1
 90
        5
176
     1
 90
        0
176
     1
 90
        0
176
     1
290
     0
176
     1
 90
        1
176
     1
 40
-50.0
176
     1
 90
        0
176
     1
290
     0
176
     1
290
     1
176
     1
290
     1
176
     1
290
     0
176
     1
290
     0
176
     1
290
     0
176
     1
290
     0
176
     1
290
     0
176
     1
290
     0
176
     1
 90
       50
176
     1
 40
0.0
176
     1
 40
1.0
176
     1
 90
        0
176
     1
 62
    18
176
     1
 90
       50
176
     1
 90
        3
176
     1
 62
     5
420
      255
176
     1
290
     0
176
     1
 90
       50
176
     1
 90
       50
176
     1
 90
       50
176
     1
290
     0
176
     1
 90
       50
176
     1
 62
   256
176
     0
 40
1.0
176
     0
 90
        2
176
     1
  1
strokes_ogs.tif
176
     1
290
     0
176
     1
 40
1.0
176
     1
 40
1.0
176
     1
  0
VISUALSTYLE
  5
1C5
102
{ACAD_REACTORS
330
1AD
102
}
330
1AD
100
AcDbVisualStyle
  2
EdgeColorOff
 70
    22
177
     3
291
     1
 70
    58
 90
        2
176
     0
 90
        2
176
     0
 90
        0
176
     0
 90
        0
176
     0
 40
0.6
176
     0
 40
30.0
176
     0
 62
     7
420
 16777215
176
     0
 90
        1
176
     0
 90
        4
176
     0
 62
     7
176
     0
 62
   257
176
     0
 90
        1
176
     0
 90
        1
176
     0
 40
1.0
176
     0
 90
        8
176
     2
 62
     7
176
     0
 40
1.0
176
     0
 90
        1
176
     0
 90
        6
176
     0
 90
        2
176
     0
 62
     7
176
     0
 90
        5
176
     0
 90
        0
176
     0
 90
        0
176
     0
290
     0
176
     0
 90
        1
176
     0
 40
0.0
176
     0
 90
        0
176
     0
290
     0
176
     0
290
     1
176
     0
290
     1
176
     0
290
     0
176
     0
290
     0
176
     0
290
     0
176
     0
290
     0
176
     0
290
     0
176
     0
290
     0
176
     0
 90
       50
176
     0
 40
0.0
176
     0
 40
1.0
176
     0
 90
        0
176
     0
 62
    18
176
     0
 90
       50
176
     0
 90
        3
176
     0
 62
     5
420
      255
176
     0
290
     0
176
     0
 90
       50
176
     0
 90
       50
176
     0
 90
       50
176
     0
290
     0
176
     0
 90
       50
176
     0
 62
   256
176
     0
 40
1.0
176
     0
 90
        2
176
     0
  1
strokes_ogs.tif
176
     0
290
     0
176
     0
 40
1.0
176
     0
 40
1.0
176
     0
  0
VISUALSTYLE
  5
1BC
102
{ACAD_REACTORS
330
1AD
102
}
330
1AD
100
AcDbVisualStyle
  2
Facepattern
 70
    15
177
     3
291
     1
 70
    58
 90
        2
176
     1
 90
        2
176
     1
 90
        0
176
     1
 90
        0
176
     1
 40
0.6
176
     1
 40
30.0
176
     1
 62
     7
420
 16777215
176
     1
 90
        1
176
     1
 90
        4
176
     1
 62
     7
176
     1
 62
   257
176
     1
 90
        1
176
     1
 90
        1
176
     1
 40
1.0
176
     1
 90
        8
176
     1
 62
     7
176
     1
 40
1.0
176
     1
 90
        1
176
     1
 90
        6
176
     1
 90
        2
176
     1
 62
     7
176
     1
 90
        5
176
     1
 90
        0
176
     1
 90
        0
176
     1
290
     0
176
     1
 90
        1
176
     1
 40
0.0
176
     1
 90
        0
176
     1
290
     0
176
     1
290
     1
176
     1
290
     1
176
     1
290
     0
176
     1
290
     0
176
     1
290
     0
176
     1
290
     0
176
     1
290
     0
176
     1
290
     0
176
     1
 90
       50
176
     1
 40
0.0
176
     1
 40
1.0
176
     1
 90
        0
176
     1
 62
    18
176
     1
 90
       50
176
     1
 90
        3
176
     1
 62
     5
420
      255
176
     1
290
     0
176
     1
 90
       50
176
     1
 90
       50
176
     1
 90
       50
176
     1
290
     0
176
     1
 90
       50
176
     1
 62
   256
176
     0
 40
1.0
176
     0
 90
        2
176
     1
  1
strokes_ogs.tif
176
     1
290
     0
176
     1
 40
1.0
176
     1
 40
1.0
176
     1
  0
VISUALSTYLE
  5
1AE
102
{ACAD_REACTORS
330
1AD
102
}
330
1AD
100
AcDbVisualStyle
  2
Flat
 70
     0
177
     3
291
     1
 70
    58
 90
        2
176
     1
 90
        1
176
     1
 90
        1
176
     1
 90
        2
176
     1
 40
0.6
176
     1
 40
30.0
176
     1
 62
     7
420
 16777215
176
     1
 90
        0
176
     1
 90
        0
176
     1
 62
     7
176
     1
 62
   257
176
     1
 90
        1
176
     1
 90
        1
176
     1
 40
1.0
176
     1
 90
        8
176
     1
 62
     7
176
     1
 40
1.0
176
     1
 90
        1
176
     1
 90
        6
176
     1
 90
        2
176
     1
 62
     7
176
     1
 90
        5
176
     1
 90
        0
176
     1
 90
        0
176
     1
290
     0
176
     1
 90
       13
176
     1
 40
0.0
176
     1
 90
        0
176
     1
290
     0
176
     1
290
     1
176
     1
290
     1
176
     1
290
     0
176
     1
290
     0
176
     1
290
     0
176
     1
290
     0
176
     1
290
     0
176
     1
290
     0
176
     1
 90
       50
176
     1
 40
0.0
176
     1
 40
1.0
176
     1
 90
        0
176
     1
 62
    18
176
     1
 90
       50
176
     1
 90
        3
176
     1
 62
     5
420
      255
176
     1
290
     0
176
     1
 90
       50
176
     1
 90
       50
176
     1
 90
       50
176
     1
290
     0
176
     1
 90
       50
176
     1
 62
   256
176
     0
 40
1.0
176
     0
 90
        2
176
     1
  1
strokes_ogs.tif
176
     1
290
     0
176
     1
 40
1.0
176
     1
 40
1.0
176
     1
  0
VISUALSTYLE
  5
1AF
102
{ACAD_REACTORS
330
1AD
102
}
330
1AD
100
AcDbVisualStyle
  2
FlatWithEdges
 70
     1
177
     3
291
     1
 70
    58
 90
        2
176
     1
 90
        1
176
     1
 90
        1
176
     1
 90
        2
176
     1
 40
0.6
176
     1
 40
30.0
176
     1
 62
     7
420
 16777215
176
     1
 90
        1
176
     1
 90
        0
176
     1
 62
     7
176
     1
 62
   257
176
     1
 90
        1
176
     1
 90
        1
176
     1
 40
1.0
176
     1
 90
        0
176
     1
 62
   257
176
     1
 40
1.0
176
     1
 90
        1
176
     1
 90
        6
176
     1
 90
        2
176
     1
 62
     7
176
     1
 90
        5
176
     1
 90
        0
176
     1
 90
        0
176
     1
290
     0
176
     1
 90
       13
176
     1
 40
0.0
176
     1
 90
        0
176
     1
290
     0
176
     1
290
     1
176
     1
290
     1
176
     1
290
     0
176
     1
290
     0
176
     1
290
     0
176
     1
290
     0
176
     1
290
     0
176
     1
290
     0
176
     1
 90
       50
176
     1
 40
0.0
176
     1
 40
1.0
176
     1
 90
        0
176
     1
 62
    18
176
     1
 90
       50
176
     1
 90
        3
176
     1
 62
     5
420
      255
176
     1
290
     0
176
     1
 90
       50
176
     1
 90
       50
176
     1
 90
       50
176
     1
290
     0
176
     1
 90
       50
176
     1
 62
   256
176
     0
 40
1.0
176
     0
 90
        2
176
     1
  1
strokes_ogs.tif
176
     1
290
     0
176
     1
 40
1.0
176
     1
 40
1.0
176
     1
  0
VISUALSTYLE
  5
1B0
102
{ACAD_REACTORS
330
1AD
102
}
330
1AD
100
AcDbVisualStyle
  2
Gouraud
 70
     2
177
     3
291
     1
 70
    58
 90
        2
176
     1
 90
        2
176
     1
 90
        1
176
     1
 90
        2
176
     1
 40
0.6
176
     1
 40
30.0
176
     1
 62
     7
420
 16777215
176
     1
 90
        0
176
     1
 90
        0
176
     1
 62
     7
176
     1
 62
   257
176
     1
 90
        1
176
     1
 90
        1
176
     1
 40
1.0
176
     1
 90
        0
176
     1
 62
     7
176
     1
 40
1.0
176
     1
 90
        1
176
     1
 90
        6
176
     1
 90
        2
176
     1
 62
     7
176
     1
 90
        5
176
     1
 90
        0
176
     1
 90
        0
176
     1
290
     0
176
     1
 90
       13
176
     1
 40
0.0
176
     1
 90
        0
176
     1
290
     0
176
     1
290
     1
176
     1
290
     1
176
     1
290
     0
176
     1
290
     0
176
     1
290
     0
176
     1
290
     0
176
     1
290
     0
176
     1
290
     0
176
     1
 90
       50
176
     1
 40
0.0
176
     1
 40
1.0
176
     1
 90
        0
176
     1
 62
    18
176
     1
 90
       50
176
     1
 90
        3
176
     1
 62
     5
420
      255
176
     1
290
     0
176
     1
 90
       50
176
     1
 90
       50
176
     1
 90
       50
176
     1
290
     0
176
     1
 90
       50
176
     1
 62
   256
176
     0
 40
1.0
176
     0
 90
        2
176
     1
  1
strokes_ogs.tif
176
     1
290
     0
176
     1
 40
1.0
176
     1
 40
1.0
176
     1
  0
VISUALSTYLE
  5
1B1
102
{ACAD_REACTORS
330
1AD
102
}
330
1AD
100
AcDbVisualStyle
  2
GouraudWithEdges
 70
     3
177
     3
291
     1
 70
    58
 90
        2
176
     1
 90
        2
176
     1
 90
        1
176
     1
 90
        2
176
     1
 40
0.6
176
     1
 40
30.0
176
     1
 62
     7
420
 16777215
176
     1
 90
        1
176
     1
 90
        0
176
     1
 62
     7
176
     1
 62
   257
176
     1
 90
        1
176
     1
 90
        1
176
     1
 40
1.0
176
     1
 90
        0
176
     1
 62
   257
176
     1
 40
1.0
176
     1
 90
        1
176
     1
 90
        6
176
     1
 90
        2
176
     1
 62
     7
176
     1
 90
        5
176
     1
 90
        0
176
     1
 90
        0
176
     1
290
     0
176
     1
 90
       13
176
     1
 40
0.0
176
     1
 90
        0
176
     1
290
     0
176
     1
290
     1
176
     1
290
     1
176
     1
290
     0
176
     1
290
     0
176
     1
290
     0
176
     1
290
     0
176
     1
290
     0
176
     1
290
     0
176
     1
 90
       50
176
     1
 40
0.0
176
     1
 40
1.0
176
     1
 90
        0
176
     1
 62
    18
176
     1
 90
       50
176
     1
 90
        3
176
     1
 62
     5
420
      255
176
     1
290
     0
176
     1
 90
       50
176
     1
 90
       50
176
     1
 90
       50
176
     1
290
     0
176
     1
 90
       50
176
     1
 62
   256
176
     0
 40
1.0
176
     0
 90
        2
176
     1
  1
strokes_ogs.tif
176
     1
290
     0
176
     1
 40
1.0
176
     1
 40
1.0
176
     1
  0
VISUALSTYLE
  5
1B5
102
{ACAD_REACTORS
330
1AD
102
}
330
1AD
100
AcDbVisualStyle
  2
Hidden
 70
     6
177
     3
291
     0
 70
    58
 90
        1
176
     1
 90
        2
176
     1
 90
        2
176
     1
 90
        0
176
     1
 40
0.6
176
     1
 40
30.0
176
     1
 62
     7
420
 16777215
176
     1
 90
        2
176
     1
 90
        2
176
     1
 62
     7
176
     1
 62
   257
176
     1
 90
        2
176
     1
 90
        1
176
     1
 40
40.0
176
     1
 90
        0
176
     1
 62
   257
176
     1
 40
1.0
176
     1
 90
        1
176
     1
 90
        6
176
     1
 90
        2
176
     1
 62
     7
176
     1
 90
        3
176
     1
 90
        0
176
     1
 90
        0
176
     1
290
     0
176
     1
 90
        1
176
     1
 40
0.0
176
     1
 90
        0
176
     1
290
     0
176
     1
290
     1
176
     1
290
     1
176
     1
290
     0
176
     1
290
     0
176
     1
290
     0
176
     1
290
     0
176
     1
290
     0
176
     1
290
     0
176
     1
 90
       50
176
     1
 40
0.0
176
     1
 40
1.0
176
     1
 90
        0
176
     1
 62
    18
176
     1
 90
       50
176
     1
 90
        3
176
     1
 62
     5
420
      255
176
     1
290
     0
176
     1
 90
       50
176
     1
 90
       50
176
     1
 90
       50
176
     1
290
     0
176
     1
 90
       50
176
     1
 62
   256
176
     0
 40
1.0
176
     0
 90
        2
176
     1
  1
strokes_ogs.tif
176
     1
290
     0
176
     1
 40
1.0
176
     1
 40
1.0
176
     1
  0
VISUALSTYLE
  5
1C3
102
{ACAD_REACTORS
330
1AD
102
}
330
1AD
100
AcDbVisualStyle
  2
JitterOff
 70
    20
177
     3
291
     1
 70
    58
 90
        2
176
     0
 90
        2
176
     0
 90
        0
176
     0
 90
        0
176
     0
 40
0.6
176
     0
 40
30.0
176
     0
 62
     7
420
 16777215
176
     0
 90
        1
176
     0
 90
        4
176
     0
 62
     7
176
     0
 62
   257
176
     0
 90
        1
176
     0
 90
        1
176
     0
 40
1.0
176
     0
 90
       10
176
     2
 62
     7
176
     0
 40
1.0
176
     0
 90
        1
176
     0
 90
        6
176
     0
 90
        2
176
     0
 62
     7
176
     0
 90
        5
176
     0
 90
        0
176
     0
 90
        0
176
     0
290
     0
176
     0
 90
        1
176
     0
 40
0.0
176
     0
 90
        0
176
     0
290
     0
176
     0
290
     1
176
     0
290
     1
176
     0
290
     0
176
     0
290
     0
176
     0
290
     0
176
     0
290
     0
176
     0
290
     0
176
     0
290
     0
176
     0
 90
       50
176
     0
 40
0.0
176
     0
 40
1.0
176
     0
 90
        0
176
     0
 62
    18
176
     0
 90
       50
176
     0
 90
        3
176
     0
 62
     5
420
      255
176
     0
290
     0
176
     0
 90
       50
176
     0
 90
       50
176
     0
 90
       50
176
     0
290
     0
176
     0
 90
       50
176
     0
 62
   256
176
     0
 40
1.0
176
     0
 90
        2
176
     0
  1
strokes_ogs.tif
176
     0
290
     0
176
     0
 40
1.0
176
     0
 40
1.0
176
     0
  0
VISUALSTYLE
  5
1BB
102
{ACAD_REACTORS
330
1AD
102
}
330
1AD
100
AcDbVisualStyle
  2
Linepattern
 70
    14
177
     3
291
     1
 70
    58
 90
        2
176
     1
 90
        2
176
     1
 90
        0
176
     1
 90
        0
176
     1
 40
0.6
176
     1
 40
30.0
176
     1
 62
     7
420
 16777215
176
     1
 90
        1
176
     1
 90
        4
176
     1
 62
     7
176
     1
 62
   257
176
     1
 90
        7
176
     1
 90
        7
176
     1
 40
1.0
176
     1
 90
        8
176
     1
 62
     7
176
     1
 40
1.0
176
     1
 90
        1
176
     1
 90
        6
176
     1
 90
        2
176
     1
 62
     7
176
     1
 90
        5
176
     1
 90
        0
176
     1
 90
        0
176
     1
290
     0
176
     1
 90
        1
176
     1
 40
0.0
176
     1
 90
        0
176
     1
290
     0
176
     1
290
     1
176
     1
290
     1
176
     1
290
     0
176
     1
290
     0
176
     1
290
     0
176
     1
290
     0
176
     1
290
     0
176
     1
290
     0
176
     1
 90
       50
176
     1
 40
0.0
176
     1
 40
1.0
176
     1
 90
        0
176
     1
 62
    18
176
     1
 90
       50
176
     1
 90
        3
176
     1
 62
     5
420
      255
176
     1
290
     0
176
     1
 90
       50
176
     1
 90
       50
176
     1
 90
       50
176
     1
290
     0
176
     1
 90
       50
176
     1
 62
   256
176
     0
 40
1.0
176
     0
 90
        2
176
     1
  1
strokes_ogs.tif
176
     1
290
     0
176
     1
 40
1.0
176
     1
 40
1.0
176
     1
  0
VISUALSTYLE
  5
1C4
102
{ACAD_REACTORS
330
1AD
102
}
330
1AD
100
AcDbVisualStyle
  2
OverhangOff
 70
    21
177
     3
291
     1
 70
    58
 90
        2
176
     0
 90
        2
176
     0
 90
        0
176
     0
 90
        0
176
     0
 40
0.6
176
     0
 40
30.0
176
     0
 62
     7
420
 16777215
176
     0
 90
        1
176
     0
 90
        4
176
     0
 62
     7
176
     0
 62
   257
176
     0
 90
        1
176
     0
 90
        1
176
     0
 40
1.0
176
     0
 90
        9
176
     2
 62
     7
176
     0
 40
1.0
176
     0
 90
        1
176
     0
 90
        6
176
     0
 90
        2
176
     0
 62
     7
176
     0
 90
        5
176
     0
 90
        0
176
     0
 90
        0
176
     0
290
     0
176
     0
 90
        1
176
     0
 40
0.0
176
     0
 90
        0
176
     0
290
     0
176
     0
290
     1
176
     0
290
     1
176
     0
290
     0
176
     0
290
     0
176
     0
290
     0
176
     0
290
     0
176
     0
290
     0
176
     0
290
     0
176
     0
 90
       50
176
     0
 40
0.0
176
     0
 40
1.0
176
     0
 90
        0
176
     0
 62
    18
176
     0
 90
       50
176
     0
 90
        3
176
     0
 62
     5
420
      255
176
     0
290
     0
176
     0
 90
       50
176
     0
 90
       50
176
     0
 90
       50
176
     0
290
     0
176
     0
 90
       50
176
     0
 62
   256
176
     0
 40
1.0
176
     0
 90
        2
176
     0
  1
strokes_ogs.tif
176
     0
290
     0
176
     0
 40
1.0
176
     0
 40
1.0
176
     0
  0
VISUALSTYLE
  5
1B7
102
{ACAD_REACTORS
330
1AD
102
}
330
1AD
100
AcDbVisualStyle
  2
Realistic
 70
     8
177
     3
291
     0
 70
    58
 90
        2
176
     1
 90
        3
176
     1
 90
        0
176
     1
 90
        2
176
     1
 40
0.6
176
     1
 40
30.0
176
     1
 62
     7
420
 16777215
176
     1
 90
        0
176
     1
 90
        0
176
     1
 62
     7
176
     1
 62
   257
176
     1
 90
        1
176
     1
 90
        1
176
     1
 40
1.0
176
     1
 90
        8
176
     1
 62
   257
176
     1
 40
1.0
176
     1
 90
        1
176
     1
 90
        6
176
     1
 90
        2
176
     1
 62
     7
176
     1
 90
        3
176
     1
 90
        0
176
     1
 90
        0
176
     1
290
     0
176
     1
 90
       13
176
     1
 40
0.0
176
     1
 90
        0
176
     1
290
     0
176
     1
290
     1
176
     1
290
     1
176
     1
290
     0
176
     1
290
     0
176
     1
290
     0
176
     1
290
     0
176
     1
290
     0
176
     1
290
     0
176
     1
 90
       50
176
     1
 40
0.0
176
     1
 40
1.0
176
     1
 90
        0
176
     1
 62
    18
176
     1
 90
       50
176
     1
 90
        3
176
     1
 62
     5
420
      255
176
     1
290
     0
176
     1
 90
       50
176
     1
 90
       50
176
     1
 90
       50
176
     1
290
     0
176
     1
 90
       50
176
     1
 62
   256
176
     0
 40
1.0
176
     0
 90
        2
176
     1
  1
strokes_ogs.tif
176
     1
290
     0
176
     1
 40
1.0
176
     1
 40
1.0
176
     1
  0
VISUALSTYLE
  5
1C2
102
{ACAD_REACTORS
330
1AD
102
}
330
1AD
100
AcDbVisualStyle
  2
Shaded
 70
    27
177
     3
291
     0
 70
    58
 90
        2
176
     1
 90
        2
176
     1
 90
        1
176
     1
 90
        2
176
     1
 40
0.6
176
     1
 40
30.0
176
     1
 62
     7
420
 16777215
176
     1
 90
        0
176
     1
 90
        4
176
     1
 62
     7
176
     1
 62
   257
176
     1
 90
        1
176
     1
 90
        1
176
     1
 40
1.0
176
     1
 90
        8
176
     1
 62
   257
176
     1
 40
1.0
176
     1
 90
        1
176
     1
 90
        6
176
     1
 90
        2
176
     1
 62
     8
420
  7895160
176
     1
 90
        3
176
     1
 90
        0
176
     1
 90
        0
176
     1
290
     0
176
     1
 90
        5
176
     1
 40
0.0
176
     1
 90
        0
176
     1
290
     0
176
     1
290
     1
176
     1
290
     1
176
     1
290
     0
176
     1
290
     0
176
     1
290
     0
176
     1
290
     0
176
     1
290
     0
176
     1
290
     0
176
     1
 90
       50
176
     1
 40
0.0
176
     1
 40
1.0
176
     1
 90
        0
176
     1
 62
    18
176
     1
 90
       50
176
     1
 90
        3
176
     1
 62
     5
420
      255
176
     1
290
     0
176
     1
 90
       50
176
     1
 90
       50
176
     1
 90
       50
176
     1
290
     0
176
     1
 90
       50
176
     1
 62
   256
176
     0
 40
1.0
176
     0
 90
        2
176
     1
  1
strokes_ogs.tif
176
     1
290
     0
176
     1
 40
1.0
176
     1
 40
1.0
176
     1
  0
VISUALSTYLE
  5
1C1
102
{ACAD_REACTORS
330
1AD
102
}
330
1AD
100
AcDbVisualStyle
  2
Shaded with edges
 70
    26
177
     3
291
     0
 70
    58
 90
        2
176
     1
 90
        2
176
     1
 90
        1
176
     1
 90
        2
176
     1
 40
0.6
176
     1
 40
30.0
176
     1
 62
     7
420
 16777215
176
     1
 90
        1
176
     1
 90
        2
176
     1
 62
     7
176
     1
 62
   257
176
     1
 90
        2
176
     1
 90
        1
176
     1
 40
1.0
176
     1
 90
        8
176
     1
 62
   257
176
     1
 40
1.0
176
     1
 90
        1
176
     1
 90
        6
176
     1
 90
        2
176
     1
 62
     7
176
     1
 90
        3
176
     1
 90
        0
176
     1
 90
        0
176
     1
290
     0
176
     1
 90
        5
176
     1
 40
0.0
176
     1
 90
        0
176
     1
290
     0
176
     1
290
     1
176
     1
290
     1
176
     1
290
     0
176
     1
290
     0
176
     1
290
     0
176
     1
290
     0
176
     1
290
     0
176
     1
290
     0
176
     1
 90
       50
176
     1
 40
0.0
176
     1
 40
1.0
176
     1
 90
        0
176
     1
 62
    18
176
     1
 90
       50
176
     1
 90
        3
176
     1
 62
     5
420
      255
176
     1
290
     0
176
     1
 90
       50
176
     1
 90
       50
176
     1
 90
       50
176
     1
290
     0
176
     1
 90
       50
176
     1
 62
   256
176
     0
 40
1.0
176
     0
 90
        2
176
     1
  1
strokes_ogs.tif
176
     1
290
     0
176
     1
 40
1.0
176
     1
 40
1.0
176
     1
  0
VISUALSTYLE
  5
1BE
102
{ACAD_REACTORS
330
1AD
102
}
330
1AD
100
AcDbVisualStyle
  2
Shades of Gray
 70
    23
177
     3
291
     0
 70
    58
 90
        2
176
     1
 90
        2
176
     1
 90
        3
176
     1
 90
        0
176
     1
 40
0.6
176
     1
 40
30.0
176
     1
 62
     7
420
 16777215
176
     1
 90
        2
176
     1
 90
        2
176
     1
 62
     7
176
     1
 62
     7
176
     1
 90
        1
176
     1
 90
        1
176
     1
 40
40.0
176
     1
 90
        8
176
     1
 62
     7
176
     1
 40
1.0
176
     1
 90
        1
176
     1
 90
        6
176
     1
 90
        2
176
     1
 62
     7
176
     1
 90
        3
176
     1
 90
        0
176
     1
 90
        0
176
     1
290
     0
176
     1
 90
        1
176
     1
 40
0.0
176
     1
 90
        0
176
     1
290
     0
176
     1
290
     1
176
     1
290
     1
176
     1
290
     0
176
     1
290
     0
176
     1
290
     0
176
     1
290
     0
176
     1
290
     0
176
     1
290
     0
176
     1
 90
       50
176
     1
 40
0.0
176
     1
 40
1.0
176
     1
 90
        0
176
     1
 62
    18
176
     1
 90
       50
176
     1
 90
        3
176
     1
 62
     5
420
      255
176
     1
290
     0
176
     1
 90
       50
176
     1
 90
       50
176
     1
 90
       50
176
     1
290
     0
176
     1
 90
       50
176
     1
 62
   256
176
     0
 40
1.0
176
     0
 90
        2
176
     1
  1
strokes_ogs.tif
176
     1
290
     0
176
     1
 40
1.0
176
     1
 40
1.0
176
     1
  0
VISUALSTYLE
  5
1BF
102
{ACAD_REACTORS
330
1AD
102
}
330
1AD
100
AcDbVisualStyle
  2
Sketchy
 70
    24
177
     3
291
     0
 70
    58
 90
        1
176
     1
 90
        2
176
     1
 90
        2
176
     1
 90
        0
176
     1
 40
0.6
176
     1
 40
30.0
176
     1
 62
     7
420
 16777215
176
     1
 90
        2
176
     1
 90
        2
176
     1
 62
     7
176
     1
 62
     7
176
     1
 90
        1
176
     1
 90
        1
176
     1
 40
40.0
176
     1
 90
       11
176
     1
 62
     7
176
     1
 40
1.0
176
     1
 90
        1
176
     1
 90
        6
176
     1
 90
        2
176
     1
 62
     7
176
     1
 90
        6
176
     1
 90
        0
176
     1
 90
        0
176
     1
290
     0
176
     1
 90
        1
176
     1
 40
0.0
176
     1
 90
        0
176
     1
290
     0
176
     1
290
     1
176
     1
290
     1
176
     1
290
     0
176
     1
290
     0
176
     1
290
     0
176
     1
290
     0
176
     1
290
     0
176
     1
290
     0
176
     1
 90
       50
176
     1
 40
0.0
176
     1
 40
1.0
176
     1
 90
        0
176
     1
 62
    18
176
     1
 90
       50
176
     1
 90
        3
176
     1
 62
     5
420
      255
176
     1
290
     0
176
     1
 90
       50
176
     1
 90
       50
176
     1
 90
       50
176
     1
290
     0
176
     1
 90
       50
176
     1
 62
   256
176
     0
 40
1.0
176
     0
 90
        2
176
     1
  1
strokes_ogs.tif
176
     1
290
     0
176
     1
 40
1.0
176
     1
 40
1.0
176
     1
  0
VISUALSTYLE
  5
1BA
102
{ACAD_REACTORS
330
1AD
102
}
330
1AD
100
AcDbVisualStyle
  2
Thicken
 70
    13
177
     3
291
     1
 70
    58
 90
        2
176
     1
 90
        2
176
     1
 90
        0
176
     1
 90
        0
176
     1
 40
0.6
176
     1
 40
30.0
176
     1
 62
     7
420
 16777215
176
     1
 90
        1
176
     1
 90
        4
176
     1
 62
     7
176
     1
 62
   257
176
     1
 90
        1
176
     1
 90
        1
176
     1
 40
1.0
176
     1
 90
       12
176
     1
 62
     7
176
     1
 40
1.0
176
     1
 90
        1
176
     1
 90
        6
176
     1
 90
        2
176
     1
 62
     7
176
     1
 90
        5
176
     1
 90
        0
176
     1
 90
        0
176
     1
290
     0
176
     1
 90
        1
176
     1
 40
0.0
176
     1
 90
        0
176
     1
290
     0
176
     1
290
     1
176
     1
290
     1
176
     1
290
     0
176
     1
290
     0
176
     1
290
     0
176
     1
290
     0
176
     1
290
     0
176
     1
290
     0
176
     1
 90
       50
176
     1
 40
0.0
176
     1
 40
1.0
176
     1
 90
        0
176
     1
 62
    18
176
     1
 90
       50
176
     1
 90
        3
176
     1
 62
     5
420
      255
176
     1
290
     0
176
     1
 90
       50
176
     1
 90
       50
176
     1
 90
       50
176
     1
290
     0
176
     1
 90
       50
176
     1
 62
   256
176
     0
 40
1.0
176
     0
 90
        2
176
     1
  1
strokes_ogs.tif
176
     1
290
     0
176
     1
 40
1.0
176
     1
 40
1.0
176
     1
  0
VISUALSTYLE
  5
1B4
102
{ACAD_REACTORS
330
1AD
102
}
330
1AD
100
AcDbVisualStyle
  2
Wireframe
 70
     5
177
     3
291
     0
 70
    58
 90
        0
176
     1
 90
        2
176
     1
 90
        0
176
     1
 90
        0
176
     1
 40
0.6
176
     1
 40
30.0
176
     1
 62
     7
420
 16777215
176
     1
 90
        1
176
     1
 90
        4
176
     1
 62
     7
176
     1
 62
   257
176
     1
 90
        1
176
     1
 90
        1
176
     1
 40
1.0
176
     1
 90
        0
176
     1
 62
   257
176
     1
 40
1.0
176
     1
 90
        1
176
     1
 90
        6
176
     1
 90
        2
176
     1
 62
     7
176
     1
 90
        3
176
     1
 90
        0
176
     1
 90
        0
176
     1
290
     0
176
     1
 90
        1
176
     1
 40
0.0
176
     1
 90
        0
176
     1
290
     0
176
     1
290
     1
176
     1
290
     1
176
     1
290
     0
176
     1
290
     0
176
     1
290
     0
176
     1
290
     0
176
     1
290
     0
176
     1
290
     0
176
     1
 90
       50
176
     1
 40
0.0
176
     1
 40
1.0
176
     1
 90
        0
176
     1
 62
    18
176
     1
 90
       50
176
     1
 90
        3
176
     1
 62
     5
420
      255
176
     1
290
     0
176
     1
 90
       50
176
     1
 90
       50
176
     1
 90
       50
176
     1
290
     0
176
     1
 90
       50
176
     1
 62
   256
176
     0
 40
1.0
176
     0
 90
        2
176
     1
  1
strokes_ogs.tif
176
     1
290
     0
176
     1
 40
1.0
176
     1
 40
1.0
176
     1
  0
VISUALSTYLE
  5
1C0
102
{ACAD_REACTORS
330
1AD
102
}
330
1AD
100
AcDbVisualStyle
  2
X-Ray
 70
    25
177
     3
291
     0
 70
    58
 90
        2
176
     1
 90
        2
176
     1
 90
        1
176
     1
 90
        1
176
     1
 40
0.5
176
     1
 40
30.0
176
     1
 62
     7
420
 16777215
176
     1
 90
        1
176
     1
 90
        0
176
     1
 62
     7
176
     1
 62
   257
176
     1
 90
        1
176
     1
 90
        1
176
     1
 40
1.0
176
     1
 90
        8
176
     1
 62
     7
176
     1
 40
1.0
176
     1
 90
        1
176
     1
 90
        6
176
     1
 90
        2
176
     1
 62
     7
176
     1
 90
        3
176
     1
 90
        0
176
     1
 90
        0
176
     1
290
     0
176
     1
 90
       13
176
     1
 40
0.0
176
     1
 90
        0
176
     1
290
     0
176
     1
290
     1
176
     1
290
     1
176
     1
290
     0
176
     1
290
     0
176
     1
290
     0
176
     1
290
     0
176
     1
290
     0
176
     1
290
     0
176
     1
 90
       50
176
     1
 40
0.0
176
     1
 40
1.0
176
     1
 90
        0
176
     1
 62
    18
176
     1
 90
       50
176
     1
 90
        3
176
     1
 62
     5
420
      255
176
     1
290
     0
176
     1
 90
       50
176
     1
 90
       50
176
     1
 90
       50
176
     1
290
     0
176
     1
 90
       50
176
     1
 62
   256
176
     0
 40
1.0
176
     0
 90
        2
176
     1
  1
strokes_ogs.tif
176
     1
290
     0
176
     1
 40
1.0
176
     1
 40
1.0
176
     1
  0
DICTIONARYVAR
  5
201
102
{ACAD_REACTORS
330
1FB
102
}
330
1FB
100
DictionaryVariables
280
     0
  1
1:1
  0
DICTIONARYVAR
  5
1FD
102
{ACAD_REACTORS
330
1FB
102
}
330
1FB
100
DictionaryVariables
280
     0
  1
STANDARD
  0
DICTIONARYVAR
  5
1FC
102
{ACAD_REACTORS
330
1FB
102
}
330
1FB
100
DictionaryVariables
280
     0
  1
STANDARD
  0
DICTIONARYVAR
  5
1FE
102
{ACAD_REACTORS
330
1FB
102
}
330
1FB
100
DictionaryVariables
280
     0
  1
Metric50
  0
DICTIONARYVAR
  5
1FF
102
{ACAD_REACTORS
330
1FB
102
}
330
1FB
100
DictionaryVariables
280
     0
  1
Metric50
  0
DICTIONARYVAR
  5
203
102
{ACAD_REACTORS
330
1FB
102
}
330
1FB
100
DictionaryVariables
280
     0
  1
1
  0
DICTIONARYVAR
  5
204
102
{ACAD_REACTORS
330
1FB
102
}
330
1FB
100
DictionaryVariables
280
     0
  1
15
  0
DICTIONARYVAR
  5
202
102
{ACAD_REACTORS
330
1FB
102
}
330
1FB
100
DictionaryVariables
280
     0
  1
0
  0
DICTIONARYVAR
  5
200
102
{ACAD_REACTORS
330
1FB
102
}
330
1FB
100
DictionaryVariables
280
     0
  1
0
  0
DICTIONARY
  5
19E
330
19D
100
AcDbDictionary
280
     1
281
     1
  3
BUMPTILE
360
1A0
  3
DIFFUSETILE
360
19F
  3
OPACITYTILE
360
1A3
  3
REFLECTIONTILE
360
1A2
  3
REFRACTIONTILE
360
1A4
  3
SPECULARTILE
360
1A1
  0
DICTIONARY
  5
196
330
195
100
AcDbDictionary
280
     1
281
     1
  3
BUMPTILE
360
198
  3
DIFFUSETILE
360
197
  3
OPACITYTILE
360
19B
  3
REFLECTIONTILE
360
19A
  3
REFRACTIONTILE
360
19C
  3
SPECULARTILE
360
199
  0
DICTIONARY
  5
1A6
330
1A5
100
AcDbDictionary
280
     1
281
     1
  3
BUMPTILE
360
1A8
  3
DIFFUSETILE
360
1A7
  3
OPACITYTILE
360
1AB
  3
REFLECTIONTILE
360
1AA
  3
REFRACTIONTILE
360
1AC
  3
SPECULARTILE
360
1A9
  0
DICTIONARY
  5
205
330
1C8
100
AcDbDictionary
280
     1
281
     1
  3
ACAD_ROUNDTRIP_2008_TABLESTYLE_CELLSTYLEMAP
360
618
  0
XRECORD
  5
1A0
102
{ACAD_REACTORS
330
19E
102
}
330
19E
100
AcDbXrecord
280
     1
270
     1
271
     1
  0
XRECORD
  5
19F
102
{ACAD_REACTORS
330
19E
102
}
330
19E
100
AcDbXrecord
280
     1
270
     1
271
     1
  0
XRECORD
  5
1A3
102
{ACAD_REACTORS
330
19E
102
}
330
19E
100
AcDbXrecord
280
     1
270
     1
271
     1
  0
XRECORD
  5
1A2
102
{ACAD_REACTORS
330
19E
102
}
330
19E
100
AcDbXrecord
280
     1
270
     1
271
     1
  0
XRECORD
  5
1A4
102
{ACAD_REACTORS
330
19E
102
}
330
19E
100
AcDbXrecord
280
     1
270
     1
271
     1
  0
XRECORD
  5
1A1
102
{ACAD_REACTORS
330
19E
102
}
330
19E
100
AcDbXrecord
280
     1
270
     1
271
     1
  0
XRECORD
  5
198
102
{ACAD_REACTORS
330
196
102
}
330
196
100
AcDbXrecord
280
     1
270
     1
271
     1
  0
XRECORD
  5
197
102
{ACAD_REACTORS
330
196
102
}
330
196
100
AcDbXrecord
280
     1
270
     1
271
     1
  0
XRECORD
  5
19B
102
{ACAD_REACTORS
330
196
102
}
330
196
100
AcDbXrecord
280
     1
270
     1
271
     1
  0
XRECORD
  5
19A
102
{ACAD_REACTORS
330
196
102
}
330
196
100
AcDbXrecord
280
     1
270
     1
271
     1
  0
XRECORD
  5
19C
102
{ACAD_REACTORS
330
196
102
}
330
196
100
AcDbXrecord
280
     1
270
     1
271
     1
  0
XRECORD
  5
199
102
{ACAD_REACTORS
330
196
102
}
330
196
100
AcDbXrecord
280
     1
270
     1
271
     1
  0
XRECORD
  5
1A8
102
{ACAD_REACTORS
330
1A6
102
}
330
1A6
100
AcDbXrecord
280
     1
270
     1
271
     1
  0
XRECORD
  5
1A7
102
{ACAD_REACTORS
330
1A6
102
}
330
1A6
100
AcDbXrecord
280
     1
270
     1
271
     1
  0
XRECORD
  5
1AB
102
{ACAD_REACTORS
330
1A6
102
}
330
1A6
100
AcDbXrecord
280
     1
270
     1
271
     1
  0
XRECORD
  5
1AA
102
{ACAD_REACTORS
330
1A6
102
}
330
1A6
100
AcDbXrecord
280
     1
270
     1
271
     1
  0
XRECORD
  5
1AC
102
{ACAD_REACTORS
330
1A6
102
}
330
1A6
100
AcDbXrecord
280
     1
270
     1
271
     1
  0
XRECORD
  5
1A9
102
{ACAD_REACTORS
330
1A6
102
}
330
1A6
100
AcDbXrecord
280
     1
270
     1
271
     1
  0
CELLSTYLEMAP
  5
618
102
{ACAD_REACTORS
330
205
102
}
330
205
100
AcDbCellStyleMap
 90
        3
300
CELLSTYLE
  1
TABLEFORMAT_BEGIN
 90
        5
170
     1
 91
        0
 92
    32768
 62
   257
 93
        1
300
CONTENTFORMAT
  1
CONTENTFORMAT_BEGIN
 90
        0
 91
        0
 92
      512
 93
        0
300

 40
0.0
140
1.0
 94
        5
 62
     0
340
11
144
6.0
309
CONTENTFORMAT_END
171
     1
301
MARGIN
  1
CELLMARGIN_BEGIN
 40
1.5
 40
1.5
 40
1.5
 40
1.5
 40
0.18
 40
0.18
309
CELLMARGIN_END
 94
        6
 95
        1
302
GRIDFORMAT
  1
GRIDFORMAT_BEGIN
 90
        0
 91
        1
 62
     0
 92
       -2
340
0
 93
        0
 40
1.125
309
GRIDFORMAT_END
 95
        2
302
GRIDFORMAT
  1
GRIDFORMAT_BEGIN
 90
        0
 91
        1
 62
     0
 92
       -2
340
0
 93
        0
 40
1.125
309
GRIDFORMAT_END
 95
        4
302
GRIDFORMAT
  1
GRIDFORMAT_BEGIN
 90
        0
 91
        1
 62
     0
 92
       -2
340
0
 93
        0
 40
1.125
309
GRIDFORMAT_END
 95
        8
302
GRIDFORMAT
  1
GRIDFORMAT_BEGIN
 90
        0
 91
        1
 62
     0
 92
       -2
340
0
 93
        0
 40
1.125
309
GRIDFORMAT_END
 95
       16
302
GRIDFORMAT
  1
GRIDFORMAT_BEGIN
 90
        0
 91
        1
 62
     0
 92
       -2
340
0
 93
        0
 40
1.125
309
GRIDFORMAT_END
 95
       32
302
GRIDFORMAT
  1
GRIDFORMAT_BEGIN
 90
        0
 91
        1
 62
     0
 92
       -2
340
0
 93
        0
 40
1.125
309
GRIDFORMAT_END
309
TABLEFORMAT_END
  1
CELLSTYLE_BEGIN
 90
        1
 91
        1
300
_TITLE
309
CELLSTYLE_END
300
CELLSTYLE
  1
TABLEFORMAT_BEGIN
 90
        5
170
     1
 91
        0
 92
        0
 62
   257
 93
        1
300
CONTENTFORMAT
  1
CONTENTFORMAT_BEGIN
 90
        0
 91
        0
 92
      512
 93
        0
300

 40
0.0
140
1.0
 94
        5
 62
     0
340
11
144
4.5
309
CONTENTFORMAT_END
171
     1
301
MARGIN
  1
CELLMARGIN_BEGIN
 40
1.5
 40
1.5
 40
1.5
 40
1.5
 40
0.18
 40
0.18
309
CELLMARGIN_END
 94
        6
 95
        1
302
GRIDFORMAT
  1
GRIDFORMAT_BEGIN
 90
        0
 91
        1
 62
     0
 92
       -2
340
0
 93
        0
 40
1.125
309
GRIDFORMAT_END
 95
        2
302
GRIDFORMAT
  1
GRIDFORMAT_BEGIN
 90
        0
 91
        1
 62
     0
 92
       -2
340
0
 93
        0
 40
1.125
309
GRIDFORMAT_END
 95
        4
302
GRIDFORMAT
  1
GRIDFORMAT_BEGIN
 90
        0
 91
        1
 62
     0
 92
       -2
340
0
 93
        0
 40
1.125
309
GRIDFORMAT_END
 95
        8
302
GRIDFORMAT
  1
GRIDFORMAT_BEGIN
 90
        0
 91
        1
 62
     0
 92
       -2
340
0
 93
        0
 40
1.125
309
GRIDFORMAT_END
 95
       16
302
GRIDFORMAT
  1
GRIDFORMAT_BEGIN
 90
        0
 91
        1
 62
     0
 92
       -2
340
0
 93
        0
 40
1.125
309
GRIDFORMAT_END
 95
       32
302
GRIDFORMAT
  1
GRIDFORMAT_BEGIN
 90
        0
 91
        1
 62
     0
 92
       -2
340
0
 93
        0
 40
1.125
309
GRIDFORMAT_END
309
TABLEFORMAT_END
  1
CELLSTYLE_BEGIN
 90
        2
 91
        1
300
_HEADER
309
CELLSTYLE_END
300
CELLSTYLE
  1
TABLEFORMAT_BEGIN
 90
        5
170
     1
 91
        0
 92
        0
 62
   257
 93
        1
300
CONTENTFORMAT
  1
CONTENTFORMAT_BEGIN
 90
        0
 91
        0
 92
      512
 93
        0
300

 40
0.0
140
1.0
 94
        2
 62
     0
340
11
144
4.5
309
CONTENTFORMAT_END
171
     1
301
MARGIN
  1
CELLMARGIN_BEGIN
 40
1.5
 40
1.5
 40
1.5
 40
1.5
 40
0.18
 40
0.18
309
CELLMARGIN_END
 94
        6
 95
        1
302
GRIDFORMAT
  1
GRIDFORMAT_BEGIN
 90
        0
 91
        1
 62
     0
 92
       -2
340
0
 93
        0
 40
1.125
309
GRIDFORMAT_END
 95
        2
302
GRIDFORMAT
  1
GRIDFORMAT_BEGIN
 90
        0
 91
        1
 62
     0
 92
       -2
340
0
 93
        0
 40
1.125
309
GRIDFORMAT_END
 95
        4
302
GRIDFORMAT
  1
GRIDFORMAT_BEGIN
 90
        0
 91
        1
 62
     0
 92
       -2
340
0
 93
        0
 40
1.125
309
GRIDFORMAT_END
 95
        8
302
GRIDFORMAT
  1
GRIDFORMAT_BEGIN
 90
        0
 91
        1
 62
     0
 92
       -2
340
0
 93
        0
 40
1.125
309
GRIDFORMAT_END
 95
       16
302
GRIDFORMAT
  1
GRIDFORMAT_BEGIN
 90
        0
 91
        1
 62
     0
 92
       -2
340
0
 93
        0
 40
1.125
309
GRIDFORMAT_END
 95
       32
302
GRIDFORMAT
  1
GRIDFORMAT_BEGIN
 90
        0
 91
        1
 62
     0
 92
       -2
340
0
 93
        0
 40
1.125
309
GRIDFORMAT_END
309
TABLEFORMAT_END
  1
CELLSTYLE_BEGIN
 90
        3
 91
        2
300
_DATA
309
CELLSTYLE_END
  0
ENDSEC
  0
SECTION
  2
ACDSDATA
 70
     2
 71
     8
  0
ACDSSCHEMA
 90
        0
  1
AcDb_Thumbnail_Schema
  2
AcDbDs::ID
280
    10
 91
        8
  2
Thumbnail_Data
280
    15
 91
        0
101
ACDSRECORD
 95
        0
 90
        1
  2
AcDbDs::TreatedAsObjectData
280
     1
291
     1
101
ACDSRECORD
 95
        0
 90
        2
  2
AcDbDs::Legacy
280
     1
291
     1
101
ACDSRECORD
  1
AcDbDs::ID
 90
        3
  2
AcDs:Indexable
280
     1
291
     1
101
ACDSRECORD
  1
AcDbDs::ID
 90
        4
  2
AcDbDs::HandleAttribute
280
     7
282
     1
  0
ACDSSCHEMA
 90
        1
  1
AcDbDs::TreatedAsObjectDataSchema
  2
AcDbDs::TreatedAsObjectData
280
     1
 91
        0
  0
ACDSSCHEMA
 90
        2
  1
AcDbDs::LegacySchema
  2
AcDbDs::Legacy
280
     1
 91
        0
  0
ACDSSCHEMA
 90
        3
  1
AcDbDs::IndexedPropertySchema
  2
AcDs:Indexable
280
     1
 91
        0
  0
ACDSSCHEMA
 90
        4
  1
AcDbDs::HandleAttributeSchema
  2
AcDbDs::HandleAttribute
280
     7
 91
        1
284
     1
  0
ACDSRECORD
 90
        0
  2
AcDbDs::ID
280
    10
320
22
  2
Thumbnail_Data
280
    15
 94
     1559
310
89504E470D0A1A0A0000000D49484452000001000000006F08030000003479EE6F00000300504C5445212830FFFFFF2128300000000000000000000000000000000000000000000000000000330000660000990000CC0000FF0033000033330033660033990033CC0033FF0066000066330066660066990066CC0066FF0099
310
000099330099660099990099CC0099FF00CC0000CC3300CC6600CC9900CCCC00CCFF00FF0000FF3300FF6600FF9900FFCC00FFFF3300003300333300663300993300CC3300FF3333003333333333663333993333CC3333FF3366003366333366663366993366CC3366FF3399003399333399663399993399CC3399FF33CC00
310
33CC3333CC6633CC9933CCCC33CCFF33FF0033FF3333FF6633FF9933FFCC33FFFF6600006600336600666600996600CC6600FF6633006633336633666633996633CC6633FF6666006666336666666666996666CC6666FF6699006699336699666699996699CC6699FF66CC0066CC3366CC6666CC9966CCCC66CCFF66FF0066
310
FF3366FF6666FF9966FFCC66FFFF9900009900339900669900999900CC9900FF9933009933339933669933999933CC9933FF9966009966339966669966999966CC9966FF9999009999339999669999999999CC9999FF99CC0099CC3399CC6699CC9999CCCC99CCFF99FF0099FF3399FF6699FF9999FFCC99FFFFCC0000CC00
310
33CC0066CC0099CC00CCCC00FFCC3300CC3333CC3366CC3399CC33CCCC33FFCC6600CC6633CC6666CC6699CC66CCCC66FFCC9900CC9933CC9966CC9999CC99CCCC99FFCCCC00CCCC33CCCC66CCCC99CCCCCCCCCCFFCCFF00CCFF33CCFF66CCFF99CCFFCCCCFFFFFF0000FF0033FF0066FF0099FF00CCFF00FFFF3300FF3333
310
FF3366FF3399FF33CCFF33FFFF6600FF6633FF6666FF6699FF66CCFF66FFFF9900FF9933FF9966FF9999FF99CCFF99FFFFCC00FFCC33FFCC66FFCC99FFCCCCFFCCFFFFFF00FFFF33FFFF66FFFF99FFFFCCFFFFFF0000000D0D0D1A1A1A2828283535354343435050505D5D5D6B6B6B787878868686939393A1A1A1AEAEAEBB
310
BBBBC9C9C9D6D6D6E4E4E4F1F1F1FFFFFF0000000000000000000000000000000000000000000000000000000000002E4550F10000011D4944415478DAEDD8510F8220140650FEFFFFBDEF6D36042C6AB63611CED7A6B31EE49E00C1944444444444444444449AC4A5190160D99B576DB8ECBF1904204A53A290FC3A48EE07
310
10FB713BE5CF5EFE66B457967FCAC788A68C7302E300A4AABC670FA83B48545F94CAEB0E540BDC13E078590D89F7CD8C7F1435204053F92780341940E9F3ED10CF8322260788D49BE3F294107AC0DC009DA6AD33079C9E04677D0A1C1E83FB3AE0D8E8E9D601BD85D0CBFC37E94AB0BF145E602FF06D33643B3C3FC0F22F44
310
000000000000000000000000000000000000000000000000000000000000000000000000000000000000000000000000000000000000000000000000000000000000000000000000000000000000000000000C78F307C2D146F4C1A45A930000000049454E44AE4260826C7D606055C13AFE96F7D44C030000000000000000
310
000000000000000000000000F0E5014A9A7290372C1C900000000049454E44AE426082008A81C73301C09AB8908B7FC88AEE55F954290113F71E91BC0B390380515166D91DC6B6589630CAC1409A0D005100B04A6A28A59600F036102ADB047BB2640AC07280ACB5DB3120B643B303002306C813CD2C3056D22D03D0DA5242
310
6D7AD73AE059009A650CF27AF70AC0B912C4B3A6C00580628D68D70245698FEF0270B91F709BF603804E00B1E4875D01C00560EC55A51A47D701106F3B1C1B17B8D101D80D806BE706C1EEDAE7666F8BFBDF3BEAF51E628637B7E3B295F6E217234E005DD6756D3ECF7D35D6F100B3E2FFDC3744B7674F2590373BA4BC1CB5
310
36CE1ED17FA578D13C2D8B3B47B2DBE123B80E00083BE0D9523E8CC09D01EC410022A6FD360013EFFD0A00890008800008800008800008800008800008800008800008800008800008800008800008800008800008800008800008800008800076D41FDD53988F2CEF45EF0000000049454E44AE4260821240024800092001
310
2480049000124002480009C09DFD006132F105BE159DF10000000049454E44AE426082
  0
ENDSEC
  0
EOF
